<?xml version="1.0" encoding="UTF-8"?>
<svg viewBox="0 0 409.16 339.72" xmlns="http://www.w3.org/2000/svg">
 <g fill="#3f3f3f" fill-rule="evenodd">
  <path d="m33.588 70.703c9.503-1.647 18.38-4.807 27.535-7.743 10.538-3.38 18.243-2.232 29.739-1.105-1.896 19.755 1.565 39.415-2.755 58.903-4.196 18.928-17.169 34.678-19.272 54.48-4.014 37.786 21.413 73.222 53.047 90.87 14.503 8.092 30.264 14.863 46.625 18.089 21.02 4.144 37.852-0.608 58.922-1.105 9.956-0.23401 20.047 3.468 29.882 1.351 10.215-2.199 20.495-4.158 30.667-6.543 13.186-3.091 43.527-5.853 51.793-16.38-0.888-0.19699-1.882-0.19-2.756-0.551 5.632-2.055 36.808-16.517 18.726-23.23 15.934-11.285 40.07-17.891 53.416-30.974-21.322-2.114-50.294 10.255-71.589 14.935 13.112-7.143 27.398-11.129 39.648-19.913-13.98 3.663-56.821 23.404-61.676 4.424 11.421-2.048 22.059-5.171 33.04-8.849-3.499-0.702-8.499-2.842-11.989-1.966-4.232 1.063-12.427 5.021-16.645 4.179-7.33-1.465-19.267-13.641-26.371-17.801-18.017-10.553-37.271-18.496-57.332-24.234-18.787-5.375-36.664-10.718-56.17-7.744-14.946 2.279-31.002 5.938-43.506-4.979-14.354-12.528-12.665-33.795-12.665-51.137 0-17.898 10.813-29.613 16.246-45.93 10.253-30.797-31.015-57.56-57.548-44.246-12.933 6.49-20.002 20.516-28.911 31.248-10.309 12.42-22.498 11.888-37.447 13.551-6.56 0.73-16.242 1.623-16.242 10.51 0 13.316 24.382 11.383 33.588 11.89"/>
  <path d="m215.32 272.58c1.325 5.712-3.708 11.103-2.468 16.084 1.763 7.081 5.144 17.08 1.917 24.293-7.031 15.721-31.695 10.945-45.158 13.826 5.158-0.14902 9.227 3.376 10.467 8.297 10.898-10.287 7.508 1.123 13.768 3.871 5.188 2.277 10.832-1.349 17.069-0.552 10.445 1.334 8.302 2.246 17.622-0.55402 5.889-1.769 13.836-2.664 19.272-5.53-7.177-2.582-14.07-6.423-21.475-7.745 8.105-19.753-0.85399-36.911-3.307-57.521-2.257 1.97-5.816 3.757-7.707 5.531"/>
  <path d="m168.51 277.56c-0.016006 10.557 9.24 30.222 0 39.27-5.629 5.513-16.014 2.213-23.403 2.213-10.767 0-21.507 2.84-32.215 3.872 5.504-0.22702 10.818 2.479 11.565 8.296 4.308-1.77 23.688 2.2 22.301 3.595 6.441-6.479 17.918-3.357 25.606-8.02 6.694-4.059 10.997-11.797 10.38-19.87-0.465-6.094-2.945-13.041 1.775-17.781 3.619-3.634 7.789-7.309 9.324-12.126-3.418 0.259-6.364 1.086-9.691 2.09-9.078 2.738-2.814-0.32501-6.831-3.197 0.198 0.142-2.735-10.104-7.712-4.979-1.679 1.73-1.732 4.436-1.099 6.637"/>
 </g>
</svg>
