<?xml version="1.0" encoding="UTF-8" standalone="no"?>
<!-- Created with Inkscape (http://www.inkscape.org/) -->

<svg
   xmlns:dc="http://purl.org/dc/elements/1.1/"
   xmlns:cc="http://creativecommons.org/ns#"
   xmlns:rdf="http://www.w3.org/1999/02/22-rdf-syntax-ns#"
   xmlns:svg="http://www.w3.org/2000/svg"
   xmlns="http://www.w3.org/2000/svg"
   xmlns:xlink="http://www.w3.org/1999/xlink"
   xmlns:sodipodi="http://sodipodi.sourceforge.net/DTD/sodipodi-0.dtd"
   xmlns:inkscape="http://www.inkscape.org/namespaces/inkscape"
   width="111.12303mm"
   height="64.532494mm"
   viewBox="0 0 111.12303 64.532493"
   version="1.1"
   id="svg3790"
   inkscape:version="0.92.4 (f8dce91, 2019-08-02)"
   sodipodi:docname="thePond_5b.svg"
   inkscape:export-filename="/home/ninaninerich/Pictures/thePond/thePond_5b.svg.png"
   inkscape:export-xdpi="96"
   inkscape:export-ydpi="96">
  <defs
     id="defs3784">
    <linearGradient
       inkscape:collect="always"
       id="linearGradient1317">
      <stop
         style="stop-color:#000000;stop-opacity:1;"
         offset="0"
         id="stop1313" />
      <stop
         style="stop-color:#000000;stop-opacity:0;"
         offset="1"
         id="stop1315" />
    </linearGradient>
    <marker
       style="overflow:visible"
       id="DistanceEnd"
       refX="0"
       refY="0"
       orient="auto"
       inkscape:stockid="DistanceEnd"
       inkscape:isstock="true">
      <g
         id="g2301"
         style="fill:#00ffff;fill-opacity:1;stroke:#000033;stroke-opacity:1">
        <path
           style="fill:#00ffff;fill-opacity:1;stroke:#000033;stroke-width:1.14999998;stroke-linecap:square;stroke-opacity:1"
           d="M 0,0 H -2"
           id="path2316"
           inkscape:connector-curvature="0" />
        <path
           style="fill:#00ffff;fill-opacity:1;fill-rule:evenodd;stroke:#000033;stroke-opacity:1"
           d="m 0,0 -13,4 4,-4 -4,-4 z"
           id="path2312"
           inkscape:connector-curvature="0" />
        <path
           style="fill:#00ffff;fill-opacity:1;stroke:#000033;stroke-width:1;stroke-linecap:square;stroke-opacity:1"
           d="M 0,-4 V 40"
           id="path2314"
           inkscape:connector-curvature="0" />
      </g>
    </marker>
    <marker
       inkscape:stockid="DotL"
       orient="auto"
       refY="0"
       refX="0"
       id="DotL"
       style="overflow:visible"
       inkscape:isstock="true">
      <path
         id="path1064"
         d="m -2.5,-1 c 0,2.76 -2.24,5 -5,5 -2.76,0 -5,-2.24 -5,-5 0,-2.76 2.24,-5 5,-5 2.76,0 5,2.24 5,5 z"
         style="fill:#00ffff;fill-opacity:1;fill-rule:evenodd;stroke:#000033;stroke-width:1.00000003pt;stroke-opacity:1"
         transform="matrix(0.8,0,0,0.8,5.92,0.8)"
         inkscape:connector-curvature="0" />
    </marker>
    <marker
       inkscape:stockid="Arrow1Lstart"
       orient="auto"
       refY="0"
       refX="0"
       id="marker1269"
       style="overflow:visible"
       inkscape:isstock="true">
      <path
         id="path1267"
         d="M 0,0 5,-5 -12.5,0 5,5 Z"
         style="fill:#00ffff;fill-opacity:1;fill-rule:evenodd;stroke:#000033;stroke-width:1.00000003pt;stroke-opacity:1"
         transform="matrix(0.8,0,0,0.8,10,0)"
         inkscape:connector-curvature="0" />
    </marker>
    <marker
       inkscape:stockid="Arrow1Lstart"
       orient="auto"
       refY="0"
       refX="0"
       id="Arrow1Lstart"
       style="overflow:visible"
       inkscape:isstock="true">
      <path
         id="path1003"
         d="M 0,0 5,-5 -12.5,0 5,5 Z"
         style="fill:#00ffff;fill-opacity:1;fill-rule:evenodd;stroke:#000033;stroke-width:1.00000003pt;stroke-opacity:1"
         transform="matrix(0.8,0,0,0.8,10,0)"
         inkscape:connector-curvature="0" />
    </marker>
    <inkscape:path-effect
       effect="bspline"
       id="path-effect920"
       is_visible="true"
       weight="33.333333"
       steps="2"
       helper_size="0"
       apply_no_weight="true"
       apply_with_weight="true"
       only_selected="false" />
    <linearGradient
       id="linearGradient3781">
      <stop
         style="stop-color:#b4c700;stop-opacity:1;"
         offset="0"
         id="stop4794" />
      <stop
         style="stop-color:#1ec700;stop-opacity:1;"
         offset="1"
         id="stop4796" />
    </linearGradient>
    <linearGradient
       id="linearGradient3854">
      <stop
         style="stop-color:#ffbe00;stop-opacity:1;"
         offset="0"
         id="stop3856" />
      <stop
         id="stop3860"
         offset="0.5"
         style="stop-color:#ffc895;stop-opacity:1;" />
      <stop
         style="stop-color:#ffffff;stop-opacity:1;"
         offset="1"
         id="stop3858" />
    </linearGradient>
    <linearGradient
       id="linearGradient3781-5">
      <stop
         id="stop3783"
         offset="0"
         style="stop-color:#b4c700;stop-opacity:1;" />
      <stop
         id="stop3785"
         offset="1"
         style="stop-color:#1ec700;stop-opacity:1;" />
    </linearGradient>
    <linearGradient
       id="linearGradient3765">
      <stop
         id="stop3779"
         offset="0"
         style="stop-color:#bcbb00;stop-opacity:0.49803922;" />
      <stop
         id="stop3769"
         offset="1"
         style="stop-color:#b2b700;stop-opacity:1;" />
    </linearGradient>
    <radialGradient
       gradientUnits="userSpaceOnUse"
       gradientTransform="matrix(1.1929256,0,0,1.1892072,-45.876126,-35.071197)"
       r="167.375"
       fy="201.875"
       fx="211.875"
       cy="201.875"
       cx="211.875"
       id="radialGradient3787"
       xlink:href="#linearGradient3781-5" />
    <radialGradient
       gradientUnits="userSpaceOnUse"
       gradientTransform="matrix(1.1929256,0,0,1.1892072,-45.876126,-35.071197)"
       r="167.375"
       fy="201.875"
       fx="211.875"
       cy="201.875"
       cx="211.875"
       id="radialGradient3787-1"
       xlink:href="#linearGradient3781-5" />
    <radialGradient
       gradientUnits="userSpaceOnUse"
       gradientTransform="matrix(1,0,0,1.0333496,0,-3.1554127)"
       r="94.635666"
       fy="94.616302"
       fx="236.89177"
       cy="94.616302"
       cx="236.89177"
       id="radialGradient3852"
       xlink:href="#linearGradient3854" />
    <radialGradient
       r="94.635666"
       fy="94.616302"
       fx="236.89177"
       cy="94.616302"
       cx="236.89177"
       gradientTransform="matrix(1,0,0,1.0333496,71,38.844587)"
       gradientUnits="userSpaceOnUse"
       id="radialGradient3863"
       xlink:href="#linearGradient3854" />
    <radialGradient
       r="94.635666"
       fy="94.616302"
       fx="236.89177"
       cy="94.616302"
       cx="236.89177"
       gradientTransform="matrix(1,0,0,1.0333496,75,36.844587)"
       gradientUnits="userSpaceOnUse"
       id="radialGradient3863-2"
       xlink:href="#linearGradient3854-7" />
    <linearGradient
       id="linearGradient3854-7">
      <stop
         style="stop-color:#ffbe00;stop-opacity:1;"
         offset="0"
         id="stop3856-7" />
      <stop
         id="stop3860-1"
         offset="0.5"
         style="stop-color:#ffb095;stop-opacity:1;" />
      <stop
         style="stop-color:#ffffde;stop-opacity:1;"
         offset="1"
         id="stop3858-2" />
    </linearGradient>
    <radialGradient
       xlink:href="#linearGradient3854-7"
       id="radialGradient3881"
       gradientUnits="userSpaceOnUse"
       gradientTransform="matrix(1,0,0,1.0333496,76.47055,35.77855)"
       cx="236.89177"
       cy="94.616302"
       fx="236.89177"
       fy="94.616302"
       r="94.635666" />
    <radialGradient
       gradientUnits="userSpaceOnUse"
       gradientTransform="matrix(1,0,0,0.96317364,0,3.5315011)"
       r="81.850082"
       fy="95.896019"
       fx="257.21243"
       cy="95.896019"
       cx="257.21243"
       id="radialGradient3913"
       xlink:href="#linearGradient3854-7" />
    <radialGradient
       r="81.850082"
       fy="95.896019"
       fx="257.21243"
       cy="95.896019"
       cx="257.21243"
       gradientTransform="matrix(0.99524277,-0.097426,0.09383816,0.9585916,49.878179,73.886603)"
       gradientUnits="userSpaceOnUse"
       id="radialGradient3916"
       xlink:href="#linearGradient3854-7" />
    <radialGradient
       r="81.850082"
       fy="95.896019"
       fx="257.21243"
       cy="95.896019"
       cx="257.21243"
       gradientTransform="matrix(0.99524277,-0.097426,0.09383816,0.9585916,49.878179,73.886603)"
       gradientUnits="userSpaceOnUse"
       id="radialGradient3916-6"
       xlink:href="#linearGradient3854-7" />
    <radialGradient
       xlink:href="#linearGradient3854-7"
       id="radialGradient3934"
       gradientUnits="userSpaceOnUse"
       gradientTransform="matrix(0.55907512,-0.5222096,0.50297853,0.5384864,126.0489,221.83648)"
       cx="257.21243"
       cy="95.896019"
       fx="257.21243"
       fy="95.896019"
       r="81.850082" />
    <radialGradient
       r="94.635666"
       fy="94.616302"
       fx="236.89177"
       cy="94.616302"
       cx="236.89177"
       gradientTransform="matrix(1,0,0,1.0333496,75,36.844587)"
       gradientUnits="userSpaceOnUse"
       id="radialGradient3863-5"
       xlink:href="#linearGradient3854" />
    <radialGradient
       inkscape:collect="always"
       xlink:href="#linearGradient3781"
       id="radialGradient4792"
       cx="206.875"
       cy="205"
       fx="206.875"
       fy="205"
       r="202.19447"
       gradientTransform="matrix(1,0,0,0.99690892,0,0.63367212)"
       gradientUnits="userSpaceOnUse" />
    <radialGradient
       inkscape:collect="always"
       xlink:href="#linearGradient3781"
       id="radialGradient865"
       gradientUnits="userSpaceOnUse"
       gradientTransform="matrix(1,0,0,0.99690892,0,0.63367212)"
       cx="206.875"
       cy="205"
       fx="206.875"
       fy="205"
       r="202.19447" />
    <radialGradient
       inkscape:collect="always"
       xlink:href="#linearGradient1317"
       id="radialGradient1319"
       cx="119.11783"
       cy="177.22479"
       fx="119.11783"
       fy="177.22479"
       r="23.732"
       gradientTransform="matrix(1,0,0,3.2086634,0,-391.42994)"
       gradientUnits="userSpaceOnUse" />
  </defs>
  <sodipodi:namedview
     id="base"
     pagecolor="#ffffff"
     bordercolor="#666666"
     borderopacity="1.0"
     inkscape:pageopacity="0.0"
     inkscape:pageshadow="2"
     inkscape:zoom="2.1028075"
     inkscape:cx="315.36922"
     inkscape:cy="58.83315"
     inkscape:document-units="mm"
     inkscape:current-layer="layer3"
     showgrid="false"
     inkscape:window-width="1850"
     inkscape:window-height="1016"
     inkscape:window-x="70"
     inkscape:window-y="27"
     inkscape:window-maximized="1" />
  <metadata
     id="metadata3787">
    <rdf:RDF>
      <cc:Work
         rdf:about="">
        <dc:format>image/svg+xml</dc:format>
        <dc:type
           rdf:resource="http://purl.org/dc/dcmitype/StillImage" />
        <dc:title></dc:title>
      </cc:Work>
    </rdf:RDF>
  </metadata>
  <g
     inkscape:groupmode="layer"
     id="layer3"
     inkscape:label="Layer 2"
     transform="translate(-10.181442,-0.35720076)">
    <flowRoot
       xml:space="preserve"
       id="flowRoot1281-0"
       style="font-style:normal;font-variant:normal;font-weight:normal;font-stretch:normal;font-size:192px;line-height:0;font-family:'Amatic SC';-inkscape-font-specification:'Amatic SC';letter-spacing:0px;word-spacing:0px;fill:none;fill-opacity:1;stroke:#000033;stroke-opacity:1"
       transform="matrix(0.03539738,-1.2023674,0.71745824,0.05113111,-65.624899,166.78514)"><flowRegion
         id="flowRegion1283-4"
         style="font-style:normal;font-variant:normal;font-weight:normal;font-stretch:normal;font-size:192px;line-height:0;font-family:'Amatic SC';-inkscape-font-specification:'Amatic SC';fill:none;fill-opacity:1;stroke:#000033;stroke-opacity:1"><rect
           id="rect1285-6"
           width="88.928726"
           height="219.70628"
           x="84.17318"
           y="190.14543"
           style="font-style:normal;font-variant:normal;font-weight:normal;font-stretch:normal;font-size:192px;line-height:0;font-family:'Amatic SC';-inkscape-font-specification:'Amatic SC';fill:none;fill-opacity:1;stroke:#000033;stroke-opacity:1" /></flowRegion><flowPara
         id="flowPara1287-2"
         style="fill:none;fill-opacity:1">O</flowPara></flowRoot>    <path
       style="opacity:1;fill:#b0e1e6;fill-opacity:0.92156863;stroke:#b0e2e6;stroke-width:0.44214499;stroke-miterlimit:4;stroke-dasharray:none;stroke-dashoffset:0;stroke-opacity:0.92156863"
       d="M 61.72999,52.722975 C 61.383973,52.694885 59.090834,52.53063 56.634123,52.357969 49.39789,51.849392 45.763679,51.44055 39.864754,50.471444 34.386271,49.571414 30.040722,48.127482 24.577355,45.391778 20.356255,43.27812 18.107862,41.295152 16.566489,38.326599 15.801435,36.853171 15.490353,35.676971 15.403045,33.927628 15.12379,28.332329 18.03082,22.699876 22.658504,19.86997 c 1.379282,-0.843453 4.732046,-2.531098 6.546021,-3.295 3.077385,-1.29595 6.808071,-2.435467 9.688436,-2.959279 2.302097,-0.418651 10.111147,-1.187046 14.766803,-1.453023 3.492138,-0.199505 5.685441,-0.157605 13.120505,0.250648 18.169228,0.997657 24.964622,2.036521 33.438041,5.111933 2.52167,0.915234 5.98581,2.368717 7.78052,3.264546 2.44555,1.2207 4.71962,3.045147 5.96013,4.781715 1.3278,1.858765 1.86876,3.555835 1.86146,5.839642 -0.0132,4.129535 -1.7616,7.327093 -5.86602,10.728111 -3.98085,3.298632 -8.54742,5.446101 -15.13274,7.116313 -5.703068,1.446453 -13.049565,2.55149 -21.515877,3.236356 -2.258528,0.182698 -10.215142,0.341506 -11.575793,0.231043 z M 51.577776,41.851007 c 0.332137,-0.202498 0.408948,-0.323429 0.377471,-0.594278 -0.06411,-0.551643 -0.459256,-0.656513 -2.481485,-0.658582 l -1.812843,-0.0019 0.08277,-2.285 c 0.04552,-1.256749 0.08277,-3.125234 0.08277,-4.152185 v -1.867189 h 1.201576 c 1.459564,0 1.944021,-0.187835 1.944021,-0.753747 0,-0.537287 -0.365355,-0.683663 -1.887358,-0.75614 l -1.321151,-0.06291 0.04718,-2.642302 c 0.02596,-1.453265 0.05959,-2.657073 0.07477,-2.675128 0.01519,-0.01806 0.659971,0.0876 1.43288,0.234784 1.567127,0.298431 1.989188,0.234004 2.380618,-0.363393 0.195762,-0.298769 0.190108,-0.323644 -0.137576,-0.605507 -0.390326,-0.335746 -0.957072,-0.508844 -2.476717,-0.756455 -3.196833,-0.520893 -3.774752,0.03554 -3.411751,3.284933 0.05411,0.484421 0.05552,1.877675 0.0031,3.096118 -0.143934,3.347355 -0.156454,5.565743 -0.04784,8.477533 l 0.09848,2.640158 0.348158,0.34816 0.348157,0.348157 2.368875,-5.29e-4 c 2.154952,-2.65e-4 2.406534,-0.02342 2.785867,-0.254704 z m 6.805311,-0.345757 0.30199,-0.337783 -0.08073,-2.267313 c -0.04441,-1.247023 -0.116205,-3.229866 -0.15956,-4.406317 l -0.07882,-2.139006 0.972402,-0.491326 c 1.095314,-0.553426 2.244288,-1.549651 2.8175,-2.442923 1.609029,-2.507457 1.079259,-5.832325 -1.176888,-7.386193 -1.664697,-1.14652 -4.412366,-1.518262 -5.155181,-0.697462 -0.207476,0.22926 -0.208743,0.293943 -0.02045,1.04469 0.669962,2.671408 0.864303,6.458099 0.690403,13.452387 -0.141449,5.689161 -0.134421,5.787207 0.431718,6.023742 0.44173,0.184558 1.125278,0.01926 1.457635,-0.352496 z m 45.600503,0.0537 c 2.07256,-0.966171 3.29592,-2.315019 3.80817,-4.198781 0.29326,-1.078434 0.45362,-6.480559 0.22516,-7.584724 -0.42932,-2.074873 -2.1616,-4.285158 -4.07494,-5.199389 -1.74,-0.831403 -3.68225,-1.086216 -4.496293,-0.589887 -0.386789,0.235831 -0.408927,0.289416 -0.408927,0.989852 0,0.407288 0.08826,1.580836 0.196144,2.607882 0.153913,1.465283 0.187777,3.046901 0.157282,7.345507 -0.05182,7.304537 -0.132178,7.050947 2.234214,7.050947 1.3868,0 1.49771,-0.01982 2.35919,-0.421407 z m -11.678406,0.18633 c 0.519766,-0.109445 0.760219,-0.662381 0.9921,-2.281399 0.360693,-2.518407 0.830032,-10.032231 0.831646,-13.314143 7.94e-4,-1.42254 -0.09098,-1.819074 -0.491691,-2.126733 -0.281935,-0.216462 -1.035778,-0.197387 -1.36697,0.03459 -0.27456,0.192309 -0.279688,0.246637 -0.282059,2.988315 -0.0028,3.195337 -0.150026,6.307234 -0.45589,9.633705 l -0.212548,2.311599 -0.215061,-0.424241 c -0.118282,-0.233333 -0.905936,-2.151174 -1.750338,-4.261869 -2.32437,-5.810073 -4.279003,-9.562136 -5.34538,-10.260852 -0.589655,-0.386358 -1.143531,-0.434431 -1.566148,-0.135933 -0.745842,0.526796 -0.861864,0.924647 -1.011134,3.467215 -0.158686,2.702977 -0.173747,12.403199 -0.02048,13.195965 0.149336,0.772453 0.551805,1.15721 1.21049,1.15721 0.95335,0 1.463284,-0.686771 1.000509,-1.347472 -0.164463,-0.234805 -0.185494,-1.158992 -0.157279,-6.910957 l 0.03257,-6.639903 1.152263,2.133109 c 2.495068,4.618954 4.880655,9.624045 5.247748,11.010065 0.426858,1.611664 0.64108,1.886976 1.452026,1.866098 0.317986,-0.0082 0.748022,-0.05065 0.955632,-0.09437 z M 26.619049,41.550623 c 0.234418,-0.09795 0.489392,-0.296129 0.566608,-0.440409 0.187883,-0.351063 -0.0078,-3.445783 -0.49389,-7.811704 -0.48088,-4.318929 -0.63188,-6.021055 -0.632409,-7.128714 l -4.23e-4,-0.900433 1.243501,0.01967 c 1.07233,0.01696 1.280991,-0.01407 1.515843,-0.225416 0.35791,-0.322087 0.300794,-0.829514 -0.117041,-1.039841 -0.173009,-0.08709 -0.739217,-0.158603 -1.25824,-0.158922 -0.519022,-3.18e-4 -1.911884,-0.06567 -3.095245,-0.145227 -2.290477,-0.153984 -2.887064,-0.109384 -3.329544,0.248914 -0.233991,0.189474 -0.254741,0.266899 -0.132662,0.495005 0.176237,0.329301 0.751855,0.493938 2.122159,0.606971 0.570926,0.0471 1.038143,0.119952 1.038261,0.161906 0.0011,0.382912 0.449275,5.989646 0.715213,8.946857 0.334402,3.718539 0.377791,4.384805 0.403291,6.192806 0.01303,0.923851 0.03054,0.980255 0.359712,1.158835 0.436822,0.236979 0.569168,0.239361 1.094874,0.01971 z m 8.313928,-0.128505 0.306591,-0.306589 -0.08096,-3.971422 c -0.06882,-3.375723 -0.05433,-3.970181 0.09662,-3.963157 0.09767,0.0046 0.80041,0.07643 1.561645,0.15974 l 1.384062,0.151474 -0.0406,2.210911 c -0.0585,3.18579 0.195535,5.168498 0.736624,5.749287 0.360437,0.386885 1.242111,0.38294 1.696125,-0.0076 l 0.330091,-0.283935 -0.316388,-6.290363 c -0.174017,-3.4597 -0.354396,-7.402882 -0.400849,-8.762627 l -0.08446,-2.472265 -0.378338,-0.07567 c -0.654926,-0.130986 -1.287317,-0.08279 -1.577123,0.120202 -0.241724,0.169308 -0.279578,0.310081 -0.279136,1.038047 2.52e-4,0.463197 0.08098,1.748108 0.179322,2.855358 0.09835,1.10725 0.217466,2.593545 0.26471,3.302877 l 0.0859,1.289693 h -1.732294 -1.73229 l 0.07767,-3.56859 c 0.08218,-3.77596 0.02851,-4.335517 -0.447833,-4.669162 -0.414954,-0.290646 -1.294422,-0.249199 -1.619965,0.07634 -0.26362,0.263619 -0.266972,0.318671 -0.174381,2.862492 0.108389,2.977833 0.104743,7.002647 -0.0089,9.828575 -0.08784,2.184122 0.06005,3.635398 0.447932,4.395705 0.277312,0.543579 0.38627,0.612974 0.984999,0.627314 0.280884,0.0067 0.51355,-0.08897 0.721235,-0.296653 z m 38.53539,-0.142113 c 1.504251,-0.305639 2.892665,-1.03795 4.032443,-2.126888 1.116647,-1.066837 1.777881,-2.105969 2.244262,-3.526866 0.602572,-1.835828 0.425836,-4.50509 -0.404678,-6.111851 -0.14642,-0.283272 -0.136977,-0.370176 0.07519,-0.692031 0.13345,-0.202443 0.243014,-0.578413 0.243469,-0.835491 0.0011,-0.580432 -0.27551,-0.756504 -1.104413,-0.703176 -0.560475,0.03606 -0.600358,0.0173 -0.719203,-0.338207 -0.08352,-0.249831 -0.23159,-0.397902 -0.440384,-0.440383 -0.173008,-0.0352 -0.654285,-0.29667 -1.069504,-0.581044 -1.080277,-0.739854 -1.714584,-1.037953 -2.798434,-1.315156 -1.175634,-0.300677 -3.178453,-0.326065 -4.252722,-0.05391 -2.920526,0.739891 -5.384453,3.176589 -6.169382,6.101206 -0.33247,1.238784 -0.306073,3.210576 0.0589,4.399402 0.734231,2.391603 2.260523,4.316515 3.077882,3.881731 0.148222,-0.07885 0.991409,-0.851583 1.87375,-1.717191 0.88234,-0.865611 1.604253,-1.519661 1.604253,-1.453444 0,0.06621 -0.389223,0.967632 -0.864939,2.00315 -0.475718,1.035516 -0.905086,2.067751 -0.954153,2.29385 -0.08717,0.40167 -0.07323,0.418412 0.608086,0.730327 1.450726,0.664165 3.22629,0.838147 4.95957,0.485971 z"
       id="path1331"
       inkscape:connector-curvature="0" />
    <path
       style="opacity:1;fill:#b0e1e6;fill-opacity:0.92156863;stroke:#b0e2e6;stroke-width:0.44214499;stroke-miterlimit:4;stroke-dasharray:none;stroke-dashoffset:0;stroke-opacity:0.92156863"
       d="m 58.213476,29.177779 c -0.04644,-0.88234 -0.136932,-2.340324 -0.201099,-3.239965 -0.141229,-1.980049 -0.150548,-3.335161 -0.02291,-3.331977 0.0519,0.0013 0.54641,0.244498 1.098905,0.540453 1.267388,0.6789 1.769922,1.288306 1.896268,2.299541 0.231344,1.851614 -0.224097,3.141061 -1.579819,4.472798 -0.483425,0.474872 -0.930246,0.863402 -0.992934,0.863402 -0.06269,0 -0.151974,-0.721913 -0.198411,-1.604252 z"
       id="path1359"
       inkscape:connector-curvature="0" />
    <path
       style="opacity:1;fill:#b0e1e6;fill-opacity:0.92156863;stroke:#b0e2e6;stroke-width:0.44214499;stroke-miterlimit:4;stroke-dasharray:none;stroke-dashoffset:0;stroke-opacity:0.92156863"
       d="m 102.01447,38.04836 c -0.0466,-1.332161 -0.16757,-3.639455 -0.26889,-5.127323 -0.19351,-2.841462 -0.24496,-6.22972 -0.10959,-7.217309 0.0913,-0.66621 0.17554,-0.695781 1.09217,-0.383453 1.26491,0.430998 2.33639,1.828162 2.84108,3.704642 0.56867,2.114326 0.65717,5.387052 0.20065,7.41919 -0.30163,1.34266 -0.95458,2.651159 -1.5976,3.201556 -0.45783,0.391888 -1.46936,0.824807 -1.92718,0.824807 -0.10275,0 -0.17104,-0.717145 -0.23064,-2.42211 z"
       id="path1361"
       inkscape:connector-curvature="0" />
    <path
       style="opacity:1;fill:#b0e1e6;fill-opacity:0.92156863;stroke:#b0e2e6;stroke-width:0.44214499;stroke-miterlimit:4;stroke-dasharray:none;stroke-dashoffset:0;stroke-opacity:0.92156863"
       d="M 61.669813,59.511288 C 54.039251,59.176183 46.688369,58.655123 42.325247,58.140067 32.831955,57.019411 24.67983,54.548192 19.872052,51.33365 18.391203,50.343537 16.506075,48.430623 15.434467,46.830661 14.483156,45.410307 13.123702,42.720867 12.696535,41.414149 10.817327,35.665586 11.757824,26.68863 14.927983,20.11518 c 1.322342,-2.741928 2.510972,-4.212594 4.765872,-5.896708 1.675356,-1.251273 4.55855,-2.809393 6.819384,-3.685295 3.114196,-1.2065154 13.009459,-2.8979995 22.448367,-3.8372979 13.02553,-1.2962154 23.356776,-1.2773664 35.167765,0.06416 7.866554,0.8935074 12.600027,1.9000848 18.836279,4.0055529 2.5579,0.863591 4.4377,1.699136 5.86179,2.605481 2.60861,1.660211 5.98317,4.70404 7.53391,6.79552 1.42257,1.918614 2.54626,4.543344 3.00945,7.02946 0.31528,1.692262 0.38299,5.871971 0.12676,7.825614 -1.72039,13.117512 -12.87644,20.989462 -33.480832,23.624796 -2.860198,0.365827 -6.160788,0.651299 -9.4997,0.821645 -2.157071,0.110051 -12.630904,0.140513 -14.847215,0.04318 z m 10.757939,-5.653042 c 8.07923,-0.533207 16.761005,-1.807004 22.648294,-3.322976 7.426294,-1.912266 12.039164,-4.231651 16.564894,-8.328946 3.38334,-3.063044 5.00795,-6.587429 5.01224,-10.873406 0.003,-2.55818 -0.59223,-4.498072 -2.02792,-6.613977 -1.41767,-2.089345 -3.99564,-4.135456 -6.90392,-5.479572 -5.78053,-2.671579 -11.564765,-4.647145 -16.797482,-5.737063 -4.906979,-1.02207 -12.198318,-1.748914 -24.284003,-2.420775 -9.029393,-0.501957 -11.003307,-0.486862 -18.30737,0.139995 -8.163743,0.700638 -11.477615,1.272003 -15.790267,2.722501 -4.081077,1.37261 -9.398526,3.953504 -11.550136,5.606013 -4.98069,3.825334 -7.625328,11.496286 -5.989763,17.373711 0.777407,2.793625 2.710118,5.465498 5.371338,7.4256 3.25091,2.394432 10.108589,5.369587 15.267853,6.623847 2.996501,0.728477 9.462894,1.706186 14.515422,2.194713 3.002624,0.290322 11.194283,0.873003 13.085681,0.930799 2.069475,0.06323 6.236345,-0.04585 9.185139,-0.240464 z"
       id="path1363"
       inkscape:connector-curvature="0" />
    <path
       style="opacity:1;fill:#000033;fill-opacity:1;stroke:#000033;stroke-width:1.67109919;stroke-miterlimit:4;stroke-dasharray:none;stroke-dashoffset:0;stroke-opacity:1"
       d="m 193.81744,228.10185 c -10.92302,-0.4082 -35.8183,-1.9156 -50.64658,-3.06663 -32.33901,-2.51026 -53.730059,-6.35194 -75.84731,-13.62164 -17.22042,-5.66016 -28.879173,-11.52359 -37.533736,-18.87649 -3.54144,-3.0088 -9.106118,-9.45311 -12.134246,-14.05236 -2.648918,-4.02329 -8.1467961,-14.64839 -9.7884376,-18.91696 -1.2436028,-3.2336 -3.076547,-10.5013 -3.8710111,-15.34873 -0.937972,-5.72305 -0.7857342,-24.59858 0.260815,-32.33772 2.5279334,-18.693861 9.0590077,-38.033454 16.7021017,-49.45769 7.3542,-10.992424 23.575146,-22.260969 41.605301,-28.902828 10.47792,-3.859805 40.961933,-9.272041 72.759873,-12.918039 44.97792,-5.157233 83.1499,-6.138724 121.27607,-3.11829 34.35732,2.721857 57.95728,6.468785 79.43587,12.611902 21.14224,6.046919 32.51521,10.897001 42.61255,18.172414 17.8278,12.845429 28.88644,26.347954 33.91394,41.4087 5.83581,17.482201 5.46906,41.365211 -0.92987,60.553071 -6.15354,18.45203 -18.76609,34.3904 -36.62899,46.28774 -36.05612,24.01469 -97.43256,34.71354 -181.18634,31.58355 z m 69.72395,-4.40147 c 55.05667,-4.59348 90.99964,-15.24685 116.70629,-34.59131 17.05868,-12.8368 28.57332,-30.775 32.78359,-51.07224 2.20179,-10.61459 2.31923,-29.33248 0.24415,-38.911895 -1.63437,-7.54487 -5.07483,-15.707291 -9.4494,-22.418481 C 397.80893,67.475424 381.0525,52.433378 369.77268,46.137175 361.28226,41.397969 338.82254,33.814764 322.07216,30.031773 302.7026,25.65725 278.25257,22.454478 247.31734,20.239446 235.99175,19.428508 190.9735,19.429507 179.07524,20.24096 130.20922,23.573588 79.516069,30.937518 62.144275,37.226911 45.780241,43.151449 29.634714,54.204912 22.737552,64.205329 16.273989,73.577057 10.585483,88.254844 7.3934941,103.79689 c -3.2897895,16.01824 -3.1856882,35.86272 0.2557062,48.74436 1.385465,5.18599 7.3030897,17.60749 11.2144787,23.53995 3.468075,5.26009 12.898482,14.65436 18.082191,18.01292 19.505782,12.63791 52.179467,22.02618 90.29391,25.94454 15.0276,1.54492 27.89318,2.46919 59.68211,4.28759 12.10755,0.69258 66.10337,0.25151 76.6195,-0.62587 z"
       id="path2651"
       inkscape:connector-curvature="0"
       transform="matrix(0.26458333,0,0,0.26458333,10.181442,0.35720076)" />
    <path
       style="opacity:1;fill:#000033;fill-opacity:1;stroke:#000033;stroke-width:1.67109919;stroke-miterlimit:4;stroke-dasharray:none;stroke-dashoffset:0;stroke-opacity:1"
       d="m 189.29967,201.46161 c -34.37102,-2.2278 -56.75641,-4.63376 -79.17986,-8.51019 C 95.853789,190.4852 84.97014,187.39729 70.871479,181.81585 63.226637,178.78939 49.046755,171.81115 43.810169,168.49838 30.230349,159.9075 21.568887,148.38652 18.493267,134.82328 17.287245,129.50482 17.407664,117.99403 18.734209,111.79172 22.446658,94.43403 31.907786,79.770699 44.968813,71.132016 53.858941,65.252003 71.464281,56.977091 84.439853,52.579727 101.6894,46.733931 114.02488,44.694532 151.96862,41.41534 c 13.11824,-1.133712 40.77256,-1.131145 59.44434,0.0055 63.44213,3.862098 83.79629,6.297783 108.18869,12.946424 17.10314,4.661805 41.6015,14.042926 53.1656,20.35863 11.61311,6.342466 20.21111,14.879451 24.82507,24.648895 2.86715,6.070811 3.33065,8.615761 3.31711,18.213171 -0.011,7.77696 -0.12709,8.97324 -1.26932,13.07775 -3.27305,11.76145 -9.52649,20.69871 -21.34755,30.50938 -13.84438,11.48989 -29.34607,19.30126 -50.2989,25.34582 -37.3222,10.76689 -99.59361,17.47502 -138.69399,14.94068 z m 36.00145,-2.79192 c 23.20845,-0.82471 52.3842,-4.19416 76.46723,-8.83105 39.12332,-7.53272 63.83685,-18.57892 82.13851,-36.71342 9.14551,-9.06198 13.65142,-16.88629 15.62837,-27.13798 0.88429,-4.58555 0.85606,-12.51796 -0.0608,-17.09819 -1.52206,-7.60324 -6.99092,-16.377364 -13.93084,-22.350369 C 377.51502,79.628727 370.01624,75.581257 351.10991,67.953095 312.80643,52.498742 285.48413,48.09742 201.67559,43.880865 178.67968,42.723901 169.91338,42.909186 144.35975,45.092297 111.31995,47.914968 100.1268,49.935392 81.824302,56.380278 70.032186,60.532654 53.14429,68.586074 44.968813,73.955749 34.790002,80.641217 26.025355,92.279216 21.95805,104.51022 c -2.241399,6.74023 -3.14141,12.36287 -3.143227,19.63668 -0.0025,10.13673 1.950232,16.70343 7.405051,24.90152 6.021794,9.0502 13.813919,15.10639 29.44892,22.88828 31.95242,15.90344 56.248566,20.92896 126.735326,26.21452 13.49163,1.01169 25.07669,1.15171 42.897,0.51847 z"
       id="path2653"
       inkscape:connector-curvature="0"
       transform="matrix(0.26458333,0,0,0.26458333,10.181442,0.35720076)" />
  </g>
  <g
     inkscape:label="Layer 1"
     inkscape:groupmode="layer"
     id="layer1"
     transform="translate(-83.67628,-107.23754)"
     style="display:inline">
    <text
       xml:space="preserve"
       style="font-style:normal;font-variant:normal;font-weight:bold;font-stretch:normal;font-size:15.05960083px;line-height:1.25;font-family:'Amatic SC';-inkscape-font-specification:'Amatic SC Bold';letter-spacing:0px;word-spacing:0px;fill:#164016;fill-opacity:1;stroke:none;stroke-width:0.37648997"
       x="79.801178"
       y="175.61577"
       id="text84"
       transform="scale(1.1816755,0.84625602)"><tspan
         sodipodi:role="line"
         id="tspan82"
         x="79.801178"
         y="175.61577"
         style="font-style:normal;font-variant:normal;font-weight:bold;font-stretch:normal;font-size:32.12714767px;font-family:'Amatic SC';-inkscape-font-specification:'Amatic SC Bold';fill:#164016;fill-opacity:1;stroke-width:0.37648997">theP  nd</tspan></text>
    <g
       id="g255"
       transform="matrix(0.0417766,0,0,0.0417766,136.19625,131.09889)">
      <g
         style="display:inline;fill:#164016;fill-opacity:1"
         id="layer2">
        <path
           id="path2994-9"
           d="m 416.06947,213.25 c 0,109.59786 -89.12643,198.44447 -199.06947,198.44447 -27.48575,0 -53.67048,-5.55291 -77.48682,-15.59474 -11.90818,-5.02091 63.26286,-133.975 52.6723,-141.10737 C 181.59491,247.85998 85.24274,362.54928 76.23663,353.57143 40.212138,317.66004 17.930529,268.04893 17.930529,213.25 17.930529,103.65215 107.05696,14.80553 217,14.80553 c 109.94304,0 199.06947,88.84662 199.06947,198.44447 z"
           style="fill:#164016;fill-opacity:1;stroke:none"
           inkscape:connector-curvature="0" />
      </g>
      <g
         style="display:inline;fill:url(#radialGradient4792);fill-opacity:1"
         id="layer1-4">
        <path
           id="path2994"
           d="m 405.94447,205 c 0,109.59786 -89.12643,198.44447 -199.06947,198.44447 -27.48575,0 -53.67048,-5.55291 -77.48682,-15.59474 -11.90818,-5.02091 63.26286,-133.975 52.6723,-141.10737 C 171.46991,239.60998 75.117742,354.29928 66.111624,345.32143 30.087137,309.41004 7.8055275,259.79893 7.8055275,205 7.8055275,95.402145 96.931963,6.5555275 206.875,6.5555275 316.81804,6.5555275 405.94447,95.402145 405.94447,205 Z"
           style="fill:url(#radialGradient865);fill-opacity:1;stroke:#008200;stroke-width:6.25;stroke-miterlimit:4;stroke-dasharray:none;stroke-opacity:1"
           inkscape:connector-curvature="0" />
      </g>
      <g
         style="display:inline"
         id="layer4">
        <path
           id="path3844"
           d="m 394.75,202 c -14.11139,17.43172 -65.63061,-14.81854 -65.63061,-14.81854 0,0 -28.47494,53.6981 -49.41415,45.66407 -20.93921,-8.03403 -6.18771,-66.9976 -6.18771,-66.9976 0,0 -59.86918,-10.48764 -58.69893,-32.88467 1.17025,-22.39703 61.8064,-26.58826 61.8064,-26.58826 0,0 -8.52624,-60.179832 13.13622,-65.987921 21.66246,-5.808089 44.38616,50.565155 44.38616,50.565155 0,0 54.59967,-26.70553 66.81756,-7.898101 12.21789,18.807427 -34.37424,57.839237 -34.37424,57.839237 0,0 42.27069,43.67491 28.1593,61.10663 z"
           style="display:inline;fill:url(#radialGradient3863);fill-opacity:1;stroke:#cc756c;stroke-width:6.25;stroke-miterlimit:4;stroke-dasharray:none;stroke-opacity:1"
           inkscape:connector-curvature="0" />
        <path
           id="path3905"
           d="m 396.32809,148.83341 c -3.34227,18.39826 -53.93266,15.43592 -53.93266,15.43592 0,0 0.67108,50.6726 -17.85952,53.17928 -18.5306,2.50669 -31.34654,-46.52305 -31.34654,-46.52305 0,0 -47.98514,16.29694 -56.0954,-0.5521 -8.11027,-16.84905 34.55944,-44.18874 34.55944,-44.18874 0,0 -30.32753,-40.600544 -16.80935,-53.520511 13.51817,-12.919968 52.70544,19.21291 52.70544,19.21291 0,0 29.24168,-41.389452 45.70665,-32.525392 16.46497,8.864059 -1.98568,56.062963 -1.98568,56.062963 0,0 48.39989,15.02046 45.05762,33.41872 z"
           style="fill:url(#radialGradient3916);fill-opacity:1;stroke:#cc756c;stroke-width:6.25;stroke-miterlimit:4;stroke-dasharray:none;stroke-opacity:1"
           inkscape:connector-curvature="0" />
        <path
           id="path3905-4"
           d="m 371.31476,106.16288 c 6.53017,12.72814 -25.57121,34.46667 -25.57121,34.46667 0,0 23.98331,30.46084 13.89607,40.60462 -10.08724,10.14377 -40.68168,-13.6689 -40.68168,-13.6689 0,0 -21.55875,32.22242 -34.32317,25.76349 -12.76445,-6.45893 0.42858,-42.91449 0.42858,-42.91449 0,0 -37.30737,-10.54631 -35.10899,-24.68193 2.19837,-14.13562 40.94654,-12.85372 40.94654,-12.85372 0,0 -1.49848,-38.74038 12.62464,-41.01775 14.12311,-2.277364 24.87779,34.97046 24.87779,34.97046 0,0 36.38124,-13.396574 42.91143,-0.66845 z"
           style="display:inline;fill:url(#radialGradient3934);fill-opacity:1;stroke:#cc756c;stroke-width:6.25;stroke-miterlimit:4;stroke-dasharray:none;stroke-opacity:1"
           inkscape:connector-curvature="0" />
      </g>
    </g>
  </g>
</svg>
