<?xml version="1.0" encoding="UTF-8"?>
<svg width="131.01mm" height="45.366mm" version="1.1" viewBox="0 0 131.01 45.366" xmlns="http://www.w3.org/2000/svg" xmlns:xlink="http://www.w3.org/1999/xlink">
 <defs>
  <linearGradient id="linearGradient3781">
   <stop stop-color="#b4c700" offset="0"/>
   <stop stop-color="#1ec700" offset="1"/>
  </linearGradient>
  <radialGradient id="radialGradient3863" cx="236.89" cy="94.616" r="94.636" gradientTransform="matrix(1 0 0 1.0333 71 38.845)" gradientUnits="userSpaceOnUse">
   <stop stop-color="#ffbe00" offset="0"/>
   <stop stop-color="#ffc895" offset=".5"/>
   <stop stop-color="#fff" offset="1"/>
  </radialGradient>
  <linearGradient id="linearGradient3854-7">
   <stop stop-color="#ffbe00" offset="0"/>
   <stop stop-color="#ffb095" offset=".5"/>
   <stop stop-color="#ffffde" offset="1"/>
  </linearGradient>
  <radialGradient id="radialGradient3916" cx="257.21" cy="95.896" r="81.85" gradientTransform="matrix(.99524 -.097426 .093838 .95859 49.878 73.887)" gradientUnits="userSpaceOnUse" xlink:href="#linearGradient3854-7"/>
  <radialGradient id="radialGradient3934" cx="257.21" cy="95.896" r="81.85" gradientTransform="matrix(.55908 -.52221 .50298 .53849 126.05 221.84)" gradientUnits="userSpaceOnUse" xlink:href="#linearGradient3854-7"/>
  <radialGradient id="radialGradient4792" cx="206.88" cy="205" r="202.19" gradientTransform="matrix(1 0 0 .99691 0 .63367)" gradientUnits="userSpaceOnUse" xlink:href="#linearGradient3781"/>
 </defs>
 <g transform="translate(-78.048 -120.41)">
  <path d="m95.031 134.37c-0.05712 0.0223-0.11476 0.0434-0.17157 0.0667-0.92324 0.38235-1.7733 0.90184-2.6174 1.4268-0.14917 0.0716-0.2984 0.14329-0.447 0.21601-0.40198 0.21238-0.80425 0.42308-1.2185 0.61185-0.88534 0.37382-1.7722 0.79743-2.5296 1.3849-0.33849 0.30266-0.54676 0.73615-0.69453 1.1539-0.20359 0.74632-0.02055 1.4078 0.27234 2.0996 0.44076 0.90312 1.1989 1.5754 1.9523 2.2267 1.1121 0.94139 2.2136 1.8938 3.2928 2.8711 1.0528 0.97877 2.2373 1.8056 3.5264 2.4608 0.34326 0.17449 0.69702 0.32904 1.0454 0.49351 2.9007 1.1879 5.9118 2.1007 8.9385 2.9254 2.6442 0.70351 5.3254 1.2715 8.0243 1.7332 2.4926 0.35789 5.0248 0.25863 7.536 0.24443 3.4331-7e-3 6.8482 0.3375 10.241 0.82114 2.5978 0.3773 5.1762 0.8666 7.783 1.1829 2.8854 0.31409 5.7898 0.32795 8.6873 0.22634 2.9181-0.17996 5.8365-0.33656 8.7592-0.42116 1.4452-0.0431 2.8926-0.0263 4.3367-0.10646 0.97466-0.0542 1.2931-0.096 2.2867-0.19223 2.8978-0.28508 5.791-0.60939 8.6806-0.96532 2.2805-0.28462 4.5616-0.56187 6.8306-0.92501 1.1075-0.18325 2.2067-0.42391 3.2696-0.78341 0.58199-0.19687 0.81164-0.30534 1.3767-0.54261 1.4832-0.69869 2.8766-1.5628 4.2819-2.3978 0.0674-0.0401 0.0908-0.0534 0.20361-0.11782 1.543-0.85908 3.0777-1.7315 4.608-2.6122 0.78977-0.48392 1.5046-1.0928 2.0024-1.8712 0.0926-0.14484 0.16892-0.29943 0.25322-0.44907 0.25589-0.55801 0.44432-1.1632 0.45992-1.7797 9e-3 -0.34062-0.035-0.54444-0.0832-0.87954-0.19587-0.84191-0.55311-1.6554-1.0149-2.3916-0.10924-0.17412-0.23285-0.33894-0.34934-0.5085-0.8233-1.103-1.9002-1.967-3.0515-2.7218-0.85588-0.5127-1.7344-1.0161-2.6774-1.3627-0.18909-0.0695-0.38259-0.1253-0.57412-0.1881-0.97444-0.29723-1.9914-0.3877-3.005-0.4408-0.49311-0.0156-0.25467-0.01-0.71676-0.0186l-0.96325 0.68265v0.27802c0.073 0.0391 0.14606 0.0782 0.21911 0.1173 1e-3 4e-3 2e-3 9e-3 4e-3 0.0129 0.98899 0.0345 1.9812 0.11032 2.9362 0.38188 0.18874 0.0592 0.38014 0.11147 0.56638 0.17777 0.93868 0.33398 1.8095 0.83481 2.667 1.3276 1.1416 0.7281 2.2024 1.5762 3.0065 2.665 0.58895 0.86974 1.0968 1.8054 1.3012 2.8396 0.044 0.34049 0.0792 0.49675 0.0625 0.8413-0.0288 0.59555-0.21855 1.1748-0.48266 1.7074-0.0858 0.14303-0.16324 0.29091-0.25734 0.42891-0.51486 0.75566-1.2445 1.3317-2.0273 1.8051 0.36544-0.20066 0.72892-0.40526 1.0966-0.60203 0.17476-0.0935-0.34498 0.19507-0.51779 0.29197-0.80662 0.45251-1.614 0.90334-2.419 1.3586-0.87773 0.49446-2.0032 1.1132-2.9388 1.6697-0.23181 0.13788-0.94998 0.49959-0.69143 0.41909 4e-3 -1e-3 7e-3 -3e-3 0.0109-5e-3 -0.34594 0.18462-0.64207 0.3391-0.47852 0.23461-0.52281 0.22583-0.83171 0.36971-1.3705 0.55965-1.0624 0.37456-2.1638 0.62892-3.2747 0.82011-2.2848 0.38054-4.582 0.67358-6.8797 0.96945-2.878 0.36259-5.7601 0.69191-8.6501 0.9493-0.93608 0.0872-1.3402 0.13373-2.2624 0.18603-1.4531 0.0824-2.9098 0.079-4.3641 0.12867-2.9329 0.1-5.862 0.2603-8.7907 0.44287-0.51766 0.0193-1.0355 0.0467-1.5534 0.0579-2.3637 0.0511-4.7306-0.0545-7.0822-0.28732-2.6156-0.31706-5.2076-0.78671-7.8156-1.1565-3.403-0.47149-6.8274-0.80409-10.268-0.83199-2.4824-6e-3 -4.9816 0.0496-7.4476-0.27027-2.7231-0.4267-5.4311-0.96008-8.0941-1.665-3.0028-0.81852-5.9898-1.731-8.8537-2.9435-0.3411-0.16484-0.68708-0.32021-1.0232-0.49455-1.2678-0.6576-2.4312-1.4821-3.4742-2.4453-1.0783-0.97664-2.1767-1.9314-3.2758-2.8856-0.7231-0.63831-1.4609-1.2937-1.8836-2.1704-0.27068-0.66133-0.43017-1.281-0.19585-1.9823 0.12578-0.29049 0.27364-0.58333 0.48679-0.82113 0.25947-0.12434 0.51648-0.25315 0.7674-0.3943 0.30745-0.15769 0.63324-0.2868 0.93534-0.45371 0.62053-0.34283 1.2377-0.69126 1.8547-1.0402 0.0845-0.0478 0.16594-0.0999 0.24908-0.14986 5e-3 -3e-3 0.01-7e-3 0.01499-0.01 0.0037-2e-3 0.0087-4e-3 0.0124-6e-3 0.53602-0.23424 1.0887-0.42787 1.6567-0.57464l0.35967-0.27543c-0.02716-0.0628-0.04878-0.10781-0.07596-0.17519-0.04215-0.0171-0.0766-0.0372-0.077-0.0703-0.0681-0.0313-0.1436-0.0711-0.21652-0.11317z" fill="#003" stroke-width=".26754"/>
  <g transform="scale(1.1817 .84626)" fill="#164016" stroke-width=".37649" aria-label="theP  nd">
   <path d="m83.112 166.35-0.03213-1.253q-0.03213-0.54616-0.03213-1.2208l0.03213-1.0923q-0.09638-0.3534-0.48191-7.0358-0.38553-6.6824-0.44978-8.578-1.8634-0.0643-2.3774-0.38552-0.3534-0.25702-0.3534-0.57829 0-0.25702 0.32127-0.44978 0.3534-0.22489 0.7068-0.22489 0.89956 0 2.1846 0.12851 1.2208 0.16063 2.1846 0.16063h0.51403q0.99594 0 0.99594 0.77106 0 0.38552-0.32127 0.64254-0.32127 0.22489-0.73892 0.22489-0.28914 0-0.83531-0.0964l-0.64254-0.12851-0.03213 0.16063-0.03213 0.16064q0 2.8593 0.54616 9.1241 0.51404 5.8793 0.51404 9.1241 0 0.38553-0.3534 0.67467-0.32127 0.28914-0.73892 0.28914z"/>
   <path d="m95.188 166.86q-1.0923 0-1.0923-5.301l0.03213-1.8312 0.03213-1.4778v-0.41767q0.03213-0.25702 0.03213-0.61042 0-0.0643-0.09638-0.16063-0.09638-0.0964-0.09638-0.16064v-0.0321q-0.16064 0.0643-0.57829 0.0643t-1.0281-0.12851q-0.19276-0.0321-1.0281-0.16064v3.6946q0 0.83531 0.09638 2.6344 0.09638 1.767 0.09638 2.6344 0 0.4819-0.25702 0.8353-0.25702 0.3534-0.67467 0.3534-0.61042 0-0.86743-1.1887-0.25702-1.2208-0.25702-3.1806l0.06426-2.6023q0.03213-1.0923 0.03213-2.3132v-0.99595q0-0.51403-0.03213-0.67467v-0.16063l0.09638-1.8634q0-1.2208-0.09638-3.6304-0.09638-2.4095-0.09638-3.6304 0-0.38553 0.25702-0.67467 0.25702-0.28915 0.64254-0.28915 1.0281 0 1.0281 1.9276l-0.06425 3.9838q-0.06426 1.7991-0.06426 4.0159 0.48191 0.16064 1.7349 0.16064h1.1887q0.06425-0.19276 0.06425-0.38553 0-1.5421-0.19276-4.562-0.22489-2.8272-0.22489-4.5942 0-0.3534 0.25702-0.57829 0.28914-0.25702 0.67467-0.25702 0.22489 0 0.64254 0.16064l0.28914 0.1285q0 4.5621 0.32127 12.176l0.28914 8.1282q0 0.44978-0.3534 0.7068-0.32127 0.25702-0.77105 0.25702z"/>
   <path d="m101.62 167.28q-0.41766 0-0.77106-0.28915-0.32127-0.28914-0.35339-0.70679v-1.4778q-0.0321-0.28915-0.0321-0.67467 0-0.67467-0.0964-2.0561l-0.0643-2.0561q0-1.5742 0.0964-4.6906 0.12851-2.7951 0.12851-4.6906 0-0.44978-0.0964-1.3493-0.0964-0.93169-0.0964-1.3493 0-2.281 1.3493-2.281 1.0602 0 2.4417 0.41765 1.4136 0.41765 1.4136 0.99594 0 0.32127-0.28915 0.61042-0.25701 0.25702-0.64254 0.41765-1.3493-0.48191-2.4417-0.64254 0.0321 0.48191 0.0321 1.3815 0 1.2851-0.0321 2.3132-0.0964 1.5421-0.0964 2.3132l0.0964 0.51403 0.51403-0.0321q0.25702-0.0321 0.64255-0.0321 1.5421 0 1.5421 0.89956 0 0.35339-0.28915 0.61041-0.28914 0.22489-0.73892 0.22489-0.57829 0-0.89956-0.0643h-0.80318q0.0643 0.8353 0.0643 2.4417t-0.0321 2.8914q-0.0964 1.9598-0.0964 2.9236 0 1.7991 0.0643 1.7991l1.0602-0.0321q0.54616-0.0321 1.3172-0.0321 1.2208 0 1.2208 0.77105 0 0.44978-0.41765 0.67467-0.38553 0.25702-0.96382 0.25702z"/>
   <path d="m110.3 167.02q-0.3534 0-0.57829-0.28914-0.19276-0.32127-0.19276-0.77105l0.0643-5.3974q0.0964-3.9195 0.0964-6.072 0-7.4856-0.8353-11.469 0.48191-0.73892 1.2208-0.73892 1.1887 0 2.1525 0.54616 0.99594 0.51403 1.6385 1.4136 1.253 1.8634 1.253 4.1765 0 2.4095-1.0281 4.305-1.0281 1.8955-2.9878 2.9557l0.0643 3.2448 0.0643 1.7027q0.0321 0.54616 0.0321 1.5742 0.0964 2.1525 0.0964 3.5019 0 0.61041-0.25702 0.96381t-0.80318 0.3534zm0.73892-12.883q1.253-1.1887 1.8312-2.4738 0.61042-1.3172 0.61042-2.9557v-0.0321q0-0.73892-0.16064-1.8634-0.0964-0.38553-0.3534-0.77106-0.25701-0.38552-0.28914-0.44978-0.22489-0.32127-1.1887-0.99594l-0.8353-0.61041q0 1.6385 0.19276 5.0761z"/>
   <path d="m139.03 166.96q-0.38553 0-0.57829-0.19277-0.19276-0.22489-0.28914-0.73892l-0.19277-0.61042v-0.1607q0-1.0602-2.2168-7.2286-2.1846-6.1684-3.4376-9.1241v16.16l0.12851 0.22489q0.0321 0.0642 0.1285 0.22489 0.0964 0.16063 0.0964 0.32127 0 0.41765-0.28915 0.70679-0.28914 0.28915-0.7068 0.28915-1.0281 0-1.0281-1.9598l-0.0321-5.4937q-0.0321-2.4738-0.0321-5.5259 0-1.0281 0.0964-2.9878 0.0964-2.024 0.0964-2.9878 0-1.51 1.1566-2.3774v0.19277q0.19276-0.0643 0.25702-0.0643 0.73892 0 1.8634 2.5702 0.89956 2.0561 1.6064 4.3372 0.73892 2.281 1.9276 6.4897l0.32127 1.1566q0.73892 2.6023 1.1244 3.7268 0.64254-6.9073 0.64254-16.321v-0.41766q-0.0321-0.19276-0.0321-0.41765 0-0.96381 0.77105-0.96381 0.44978 0 0.67467 0.3534 0.25702 0.35339 0.25702 0.89956v2.4095q-0.0643 4.9476-0.38553 10.73-0.32127 5.7829-0.77105 6.5218-0.93169 0.25702-1.1566 0.25702z"/>
   <path d="m146.66 167.05q-0.8353 0-0.8353-4.2087l0.0643-5.0761q0.0321-2.2489 0.0321-5.044 0-1.0281-0.19276-3.1806-0.16064-2.3453-0.16064-2.8593 0-0.41766 0.3534-0.73893t0.77105-0.32127q1.1244 0 2.1525 0.51404 1.0602 0.4819 1.8634 1.3815 1.7027 1.9598 2.2489 4.305 0.28915 1.1887 0.28915 2.3453 0 0.41766-0.0321 0.77105l-0.0321 0.86744v1.767q0 2.0561-0.12851 3.2448-0.19276 1.6064-0.73892 2.8593-0.64254 1.3493-1.8634 2.4095-0.57829 0.48191-1.4778 0.96382zm1.4136-1.6385q0.64254 0 1.1887-0.32127 0.54616-0.3534 0.93169-0.93168 0.32127-0.51404 0.57829-1.2851 0.28914-0.80318 0.41765-1.5421 0.28914-1.4457 0.3534-2.9557 0.0321-0.38553 0.0321-1.1244 0-9.7024-3.7589-10.12-0.22489 1.4457-0.22489 3.3412 0 2.024 0.25702 7.068 0.22489 4.4657 0.22489 7.1001z"/>
  </g>
  <g transform="matrix(.041777 0 0 .041777 135.67 123.69)">
   <g fill="#164016">
    <path d="m416.07 213.25c0 109.6-89.126 198.44-199.07 198.44-27.486 0-53.67-5.5529-77.487-15.595-11.908-5.0209 63.263-133.98 52.672-141.11-10.591-7.1324-106.94 107.56-115.95 98.579-36.024-35.911-58.306-85.522-58.306-140.32 0-109.6 89.126-198.44 199.07-198.44s199.07 88.847 199.07 198.44z" fill="#164016"/>
   </g>
   <g fill="url(#radialGradient4792)">
    <path d="m405.94 205c0 109.6-89.126 198.44-199.07 198.44-27.486 0-53.67-5.5529-77.487-15.595-11.908-5.0209 63.263-133.98 52.672-141.11-10.591-7.1324-106.94 107.56-115.95 98.579-36.024-35.911-58.306-85.522-58.306-140.32 0-109.6 89.126-198.44 199.07-198.44 109.94 0 199.07 88.847 199.07 198.44z" fill="url(#radialGradient4792)" stroke="#008200" stroke-width="6.25"/>
   </g>
   <g stroke="#cc756c" stroke-width="6.25">
    <path d="m394.75 202c-14.111 17.432-65.631-14.819-65.631-14.819s-28.475 53.698-49.414 45.664-6.1877-66.998-6.1877-66.998-59.869-10.488-58.699-32.885 61.806-26.588 61.806-26.588-8.5262-60.18 13.136-65.988 44.386 50.565 44.386 50.565 54.6-26.706 66.818-7.8981c12.218 18.807-34.374 57.839-34.374 57.839s42.271 43.675 28.159 61.107z" fill="url(#radialGradient3863)"/>
    <path d="m396.33 148.83c-3.3423 18.398-53.933 15.436-53.933 15.436s0.67108 50.673-17.86 53.179c-18.531 2.5067-31.347-46.523-31.347-46.523s-47.985 16.297-56.095-0.5521c-8.1103-16.849 34.559-44.189 34.559-44.189s-30.328-40.601-16.809-53.521c13.518-12.92 52.705 19.213 52.705 19.213s29.242-41.389 45.707-32.525c16.465 8.8641-1.9857 56.063-1.9857 56.063s48.4 15.02 45.058 33.419z" fill="url(#radialGradient3916)"/>
    <path d="m371.31 106.16c6.5302 12.728-25.571 34.467-25.571 34.467s23.983 30.461 13.896 40.605c-10.087 10.144-40.682-13.669-40.682-13.669s-21.559 32.222-34.323 25.763c-12.764-6.4589 0.42858-42.914 0.42858-42.914s-37.307-10.546-35.109-24.682c2.1984-14.136 40.947-12.854 40.947-12.854s-1.4985-38.74 12.625-41.018c14.123-2.2774 24.878 34.97 24.878 34.97s36.381-13.397 42.911-0.66845z" fill="url(#radialGradient3934)"/>
   </g>
  </g>
  <path d="m119.76 144.67c-0.12678 0.0904-0.25927 0.14386-0.41962 0.17673 0.013-5e-5 -9e-3 0.01-0.0326 0.0191 0.057-0.0166-0.31331 0.1736-0.34985 0.1881-0.0216 0.0152-0.0535 0.0253-0.0868 0.0331-0.0124 0.0292-0.0206 0.0465-0.0599 0.14986-0.0103 0.027-0.0212 0.0533-0.032 0.0801-0.0298 0.10146-0.0224 0.20694-0.0202 0.31161 0.037 0.0503 0.1209 0.25014 0.13332 0.2775 0.0666 0.14146 0.14522 0.27831 0.21084 0.42064 0.17132 0.21369 0.38447 0.3535 0.64854 0.44856 0.53488 0.14557 1.0737 0.27577 1.6066 0.42839 0.53417 0.15383 1.0779 0.27129 1.6175 0.40411 0.40473 0.0999 0.81803 0.1628 1.2304 0.22169 0.67933 0.0993 1.3478 0.26302 2.0128 0.4315 0.74557 0.16945 1.483 0.37017 2.2231 0.56121 0.66359 0.16069 1.3144 0.36737 1.9792 0.52296 0.59083 0.13606 1.1954 0.17679 1.7994 0.19689 0.65803-6e-3 1.3133 0.03 1.9652 0.11886 0.88132 0.15806 1.7651 0.3011 2.6505 0.43408 0.83834 0.14031 1.6746 0.29188 2.5161 0.41289 0.7341 0.10439 1.469 0.20349 2.2081 0.26459 0.64227 0.0449 1.2868 0.0304 1.9301 0.0284 0.73736-3e-3 1.4749 3e-3 2.2123 3e-3 0.75343 0.0302 1.501-0.0555 2.249-0.13074 0.80175-0.0949 1.6036-0.1868 2.4066-0.2713 0.66336-0.0741 1.3311-0.0743 1.9968-0.10904 0.66958-0.0763 1.3352-0.18226 2.0045-0.26096 0.81504-0.0921 1.636-0.0823 2.4541-0.11886 0.64795-0.0524 1.2807-0.21367 1.9053-0.38654 0.6191-0.17344 1.2458-0.31581 1.8831-0.40101 0.50084-0.0559 1.0049-0.0551 1.5028-0.13694 0.41504-0.0624 0.79353-0.23267 1.1601-0.42891 1.0298-0.49469 1.9231-1.1111 2.7812-1.8356 0.23061-0.23057 0.4719-0.45472 0.73639-0.64544 0.19598-0.10701 0.38333-0.26952 0.54208-0.42684 5e-3 -5e-3 0.0106-9e-3 0.0155-0.0135-0.0582-0.0718-0.11538-0.1443-0.17312-0.21652l-0.96738 0.40256c-0.19665 0.18243-0.41074 0.34441-0.60255 0.53227-0.17844 0.14384-0.3523 0.29177-0.5457 0.41547-0.24395 0.20865-0.48448 0.42053-0.71624 0.64286-0.13056 0.10758-0.32518 0.25412-0.51056 0.39377-0.0802 0.0243-0.161 0.0471-0.24391 0.0631-0.49808 0.11316-1.0067 0.11525-1.5136 0.16175-0.64478 0.0708-1.2763 0.20548-1.9012 0.37982-0.61835 0.17646-1.2436 0.33829-1.8826 0.41909-0.82018 0.0569-1.6444 0.0414-2.4639 0.11472-0.66512 0.0675-1.3273 0.1646-1.989 0.2589-0.66975 0.0518-1.3437 0.0359-2.0123 0.11214-0.80422 0.083-1.607 0.1783-2.4097 0.2744-0.74058 0.0725-1.48 0.17223-2.2262 0.13643-0.74181 1e-3 -1.4834 0.01-2.2252 7e-3 -0.63425-3e-3 -1.269-5e-3 -1.9027-0.0331-0.74363-0.044-1.4848-0.12142-2.2205-0.23978-0.84433-0.11773-1.6842-0.26305-2.5244-0.40618-0.88204-0.12741-1.7616-0.27131-2.636-0.4439-0.65078-0.10202-1.3059-0.15781-1.9653-0.14521-0.59889-0.0137-1.1993-0.0414-1.788-0.16175-0.66588-0.14419-1.3115-0.36042-1.973-0.52244-0.74685-0.17979-1.4882-0.38144-2.2381-0.54881-0.66018-0.17347-1.3218-0.34889-1.9937-0.47077-0.41026-0.0536-0.81872-0.12481-1.2247-0.20361-0.54126-0.12599-1.0834-0.24835-1.6206-0.39067-0.5252-0.1563-1.0576-0.28734-1.5844-0.43822-0.27891-0.0773-0.4883-0.20666-0.66095-0.44441-0.0642-0.0792-0.12462-0.16137-0.18655-0.24237-0.0389-0.0152-0.0785-0.0278-0.11627-0.0486-0.082-0.0579-0.17698-0.12513-0.262-0.20154-0.0177-6e-3 -0.0354-0.0112-0.0532-0.017-0.0858-0.0291-0.1674-0.0662-0.24701-0.10749z" fill="#003" stroke-width=".26458"/>
  <path d="m92.055 128.03-0.03411 0.0134c0.02675 0.0146 0.05683 0.0318 0.07441 0.0393-0.01624-0.0221-0.02501-0.0321-0.04031-0.0527zm-0.04961 0.0196-0.24598 0.0961c-0.21554 0.13855-0.42008 0.29229-0.62528 0.44493-0.10173 0.0382-0.2032 0.0771-0.30489 0.11524-0.22765 0.0639-0.45576 0.11337-0.67438 0.20567-0.20219 0.097-0.39688 0.20848-0.60306 0.29818-0.23765 0.0919-0.4766 0.18133-0.70125 0.3023-4.7089 2.7212-0.06981 0.041-0.21239 0.12093-0.57287 0.32112-1.1345 0.66241-1.7069 0.98443-0.49761 0.27997 0.98927-0.57089 1.4826-0.85834 0.01274-7e-3 -0.08132 0.0438-0.23668 0.12764-0.24696 0.12971-0.49694 0.25362-0.74569 0.37982-3.6843 2.1151-0.99245 0.57264-0.23203 0.12402 0.03831-0.0226-0.08029 0.0387-0.12092 0.0568-0.11248 0.0501-0.22371 0.10038-0.33486 0.15348-0.76642 0.3895-1.5298 0.79697-2.2412 1.279 2.3419-1.3597 1.6571-0.9661-0.19844 0.12867-0.12998 0.0767-0.26405 0.15792-0.38034 0.25322-0.15936 0.13515-0.35676 0.24495-0.51263 0.38085-0.25909 0.1875-0.53408 0.35383-0.78393 0.55346-0.23408 0.14675-0.4445 0.32677-0.68471 0.46302-0.21656 0.15495-0.45456 0.2766-0.67024 0.43563-0.21451 0.14119-0.43672 0.28351-0.61082 0.47491-0.20972 0.18485-0.42377 0.36625-0.60306 0.58136-0.20821 0.17098-0.31536 0.42409-0.49506 0.61805-0.1344 0.19758-0.25339 0.40638-0.37155 0.61391-0.11079 0.22166-0.2204 0.443-0.33021 0.6656-0.09931 0.25067-0.19796 0.50023-0.2558 0.76429-0.06573 0.2617-0.10456 0.53067-0.16846 0.79272-0.05821 0.31267-0.14833 0.61777-0.20619 0.93069-0.0267 0.32974-0.09187 0.65366-0.13539 0.98133-0.0352 0.27786-0.04344 0.55795-0.04754 0.83768-7.94e-4 0.28289 6.61e-4 0.56613 5.29e-4 0.84904 0.0085 0.32951-0.01336 0.6596 0.02222 0.98754 0.03027 0.34506 0.12183 0.67912 0.17518 1.0206 0.06467 0.32025 0.13784 0.6368 0.24495 0.94568 0.11128 0.33441 0.22703 0.66763 0.35295 0.99683 0.08764 0.29128 0.20869 0.56861 0.32453 0.84905 0.13137 0.26345 0.26362 0.52552 0.37982 0.79633 0.13927 0.30256 0.34133 0.57137 0.54105 0.83613 0.19955 0.27622 0.41703 0.53362 0.64647 0.78496 0.23348 0.24069 0.48376 0.46445 0.72709 0.69505 0.2609 0.28639 0.54854 0.54546 0.83147 0.80925 0.21975 0.2121 0.48105 0.36949 0.73742 0.53175 0.41698 0.23675 0.86788 0.40345 1.3126 0.5793 0.55958 0.22153 1.121 0.44196 1.6934 0.62838 0.52053 0.15976 1.043 0.31408 1.5704 0.44959 0.45585 0.12487 0.90738 0.26359 1.3617 0.39377 0.60943 0.16453 1.2141 0.34615 1.8252 0.50436 0.81035 0.19949 1.6155 0.4175 2.4205 0.63718 0.52008 0.14588 1.0485 0.26081 1.5673 0.41082 0.37791 0.10716 0.76731 0.16258 1.1488 0.25528 0.53904 0.16835 1.09 0.28567 1.6201 0.48163 0.68282 0.27268 1.3705 0.53192 2.0583 0.79168 0.44175 0.16629 0.88175 0.33694 1.3229 0.50488 0.41582 0.1585 0.83267 0.31557 1.2506 0.4687 0.42258 0.15769 0.83232 0.34586 1.2485 0.51884 0.38319 0.16676 0.78135 0.2956 1.1798 0.42064 0.44931 0.14496 0.90996 0.24951 1.3679 0.36277 0.4957 0.10915 0.98329 0.25192 1.4779 0.36484 0.48484 0.12106 0.97278 0.22866 1.4619 0.33072 0.50622 0.12467 1.0067 0.26278 1.5177 0.36794 0.49286 0.10098 0.99399 0.1502 1.4893 0.2372 0.54539 0.10998 1.084 0.25025 1.6304 0.35501 0.40019 0.11317 0.80881 0.1749 1.2201 0.231 0.76348 0.12164 1.5238 0.26583 2.2831 0.41238 0.7373 0.13708 1.4745 0.28077 2.218 0.38085 0.65361 0.0729 1.3076 0.13208 1.9642 0.16898 0.49303 0.029 0.98675 0.0409 1.4805 0.0439 0.46737 6e-3 0.93198-0.0573 1.3978-0.0884 0.54001-0.0314 1.0814-0.0379 1.6221-0.0419 0.52396-5e-3 1.0476 1.8e-4 1.5715 4e-3 0.39245 0.0207 0.78146-0.0326 1.171-0.0698 0.51278-0.0442 1.0277-0.0504 1.542-0.0574 0.61967-0.0274 1.237 0.0276 1.8547 0.0667 0.7394 0.0467 1.4705 0.16276 2.2019 0.27491 0.66202 0.10511 1.3323 0.12609 1.9994 0.18139 0.58477 0.0396 1.1682 0.0969 1.7487 0.17777 0.58278 0.0726 1.1517 0.22194 1.7244 0.34778 0.77856 0.15969 1.5414 0.38333 2.3048 0.60203 0.91947 0.26019 1.8493 0.47353 2.7885 0.64802 1.0799 0.19395 2.1469 0.45297 3.2174 0.69298 0.79712 0.18305 1.5904 0.38147 2.3936 0.5364 0.8817 0.17377 1.7692 0.31449 2.6577 0.44804 0.65994 0.0981 1.3165 0.20368 1.9823 0.25218 1.0317 0.0522 2.0659 0.0299 3.0985 0.0269 1.2947-1e-3 2.5893 1e-3 3.884 6e-3 0.81805 0.0273 1.6332-5e-3 2.4464-0.093 0.70425-0.1012 1.4092-0.19187 2.1063-0.33538 0.68634-0.17272 1.38-0.31605 2.0634-0.49972 0.60417-0.19095 1.2352-0.25361 1.8614-0.32711 0.66462-0.085 1.3282-0.18107 1.9828-0.32504 0.63054-0.14789 1.2541-0.32162 1.8893-0.44907 0.92471-0.15608 1.8534-0.274 2.7637-0.50385 0.76149-0.2147 1.5122-0.46316 2.2655-0.70435 0.77005-0.23225 1.5615-0.38259 2.3477-0.5488 0.62502-0.12123 1.2491-0.24387 1.866-0.40153 0.68572-0.16293 1.3715-0.32576 2.0567-0.49092 0.55477-0.15209 1.1062-0.31493 1.664-0.45631 0.66359-0.17859 1.3518-0.20549 2.033-0.25889 0.77758-0.0748 1.5452-0.21468 2.3084-0.37776 1.0368-0.20014 2.0583-0.46546 3.0732-0.75499 0.55095-0.14034 1.0784-0.3484 1.587-0.59996 1.0719-0.4545 1.8504-1.0412 2.6846-1.7606 0.38712-0.32334 0.78253-0.63907 1.1911-0.93534 0.35762-0.26101 0.73393-0.49296 1.1002-0.74104 0.24692-0.18259 0.49398-0.36453 0.74724-0.53847-3e-3 1e-3 -1e-3 -2.7e-4 -4e-3 5.3e-4 0.47244-0.25791 0.37552-0.18831 0.84543-0.51987 0.0432-0.0339 0.084-0.0709 0.1297-0.10128 0.28029-0.18645 0.018 0.0249 0.28061-0.17622 0.15412-0.11802 0.29543-0.25283 0.43718-0.38499 0.41411-0.40958 0.82603-0.81992 1.2873-1.1767 0.4237-0.34143 0.83057-0.7031 1.2258-1.0769 0.30665-0.28573 0.55676-0.62561 0.79324-0.96996 0.25199-0.40494 0.46462-0.83203 0.66921-1.263 0.22186-0.43701 0.47811-0.8576 0.66559-1.311 0.10749-0.32124 0.20378-0.64462 0.25528-0.97978 0.0806-0.34371 0.14021-0.69173 0.22531-1.0346 0.0801-0.40161 0.16475-0.80233 0.24185-1.2046 0.0583-0.35074 0.072-0.70562 0.077-1.0604 2e-3 -0.34933 4e-3 -0.69867 5e-3 -1.048-1e-3 -0.32345-5.3e-4 -0.64702-3e-3 -0.97048 9e-3 -0.33093 4e-3 -0.65717-0.0408-0.98496-0.0314-0.30613-0.0739-0.60736-0.15968-0.9033-0.10365-0.33586-0.21351-0.67065-0.33951-0.99891-0.10764-0.3222-0.22668-0.64008-0.38293-0.94206-0.21833-0.4351-0.51496-0.82179-0.77308-1.2325-0.20698-0.30922-0.36517-0.64668-0.55862-0.96377-0.22799-0.32512-0.47425-0.63851-0.73018-0.94206-0.3163-0.36662-0.64631-0.71627-1.0103-1.0356-0.33873-0.2441-0.62326-0.55273-0.94878-0.81184-0.29157-0.24059-0.60433-0.45497-0.93689-0.63459-0.31864-0.16878-0.64493-0.31669-0.98702-0.43046-0.64671-0.20594-1.2988-0.39307-1.9523-0.57568-0.44731-0.11683-0.88146-0.27678-1.3203-0.42116-0.30092-0.0928-0.61062-0.15605-0.92139-0.20515-0.49338-0.0881-0.99213-0.13483-1.4878-0.20723-0.37957-0.0437-0.7528-0.1246-1.1291-0.1881-0.4328-0.0468-0.86591-0.0946-1.2997-0.13281-0.50813-0.0527-1.0174-0.10154-1.5162-0.21497-0.32573-0.0997-0.65808-0.16431-0.99633-0.20051-0.35257-0.0264-0.70606-0.0238-1.0594-0.0248-0.33856-0.0156-0.67352-0.0695-1.0113-0.0966-0.36419-0.0203-0.72679-0.0696-1.0847-0.13901-0.48613-0.0601-0.95258-0.19424-1.4113-0.36121-0.33744-0.097-0.6459-0.26757-0.97152-0.39274-0.32786-0.0976-0.67042-0.12228-1.0103-0.13798-0.23819-0.012-0.47631-8e-3 -0.71468-6e-3 -0.063 2.9e-4 -0.12609-2e-4 -0.18913 0-5e-3 0.0112-7e-3 0.0232-0.0124 0.0341-9e-3 0.0183-0.0281 0.05-0.0434 0.078-0.0284 0.068-0.0661 0.12941-0.11317 0.18758-7e-3 0.093-0.0111 0.18849 2e-3 0.24753 2e-3 0.0419 5e-3 0.12947 6e-3 0.20877 2e-5 9.8e-4 -2e-5 2e-3 0 3e-3 0.20725 0.20999 0.18976 0.18473 0.22582 0.37723 0.10392 0.0127 0.20759 0.0279 0.31006 0.0512 0.33594 0.10082 0.63762 0.30178 0.98341 0.38138 0.46279 0.16542 0.92818 0.33235 1.4196 0.39015 0.36117 0.0721 0.72574 0.13812 1.0935 0.16072 0.34178 0.0209 0.68098 0.063 1.0206 0.10593 0.34887-1e-3 0.69788-3e-3 1.0464 0.014 0.33571 0.0232 0.6679 0.0705 0.99012 0.17156 0.50444 0.12755 1.0227 0.16619 1.5374 0.23409 0.42783 0.0345 0.85207 0.0952 1.2795 0.13126 0.38251 0.0539 0.75766 0.14687 1.1431 0.18087 0.49296 0.0704 0.98911 0.11611 1.478 0.21291 0.30428 0.0429 0.60301 0.11372 0.90227 0.18242 0.45013 0.13778 0.89477 0.29692 1.3529 0.40721 0.64714 0.17893 1.2921 0.36326 1.9275 0.58136 0.33313 0.11185 0.64903 0.2534 0.9617 0.41392 0.33248 0.15806 0.63834 0.36995 0.92139 0.60462 0.33316 0.24448 0.60762 0.56302 0.95084 0.79685 0.36039 0.30981 0.6832 0.65296 0.99581 1.0108 0.24857 0.29733 0.47567 0.61222 0.7028 0.92604 0.19554 0.31694 0.36141 0.65219 0.57361 0.95912 0.25936 0.40257 0.54871 0.78655 0.75499 1.2211 0.14639 0.29966 0.26041 0.61229 0.37259 0.92604 0.12302 0.32353 0.22943 0.65363 0.32763 0.98547 0.0757 0.28906 0.11159 0.58385 0.14779 0.88005 0.0395 0.31976 0.0325 0.64096 0.0315 0.96273-1e-3 0.32419-2e-4 0.64835-5.3e-4 0.97255 2e-3 0.34719 7e-3 0.69413-2e-3 1.0413-0.0105 0.34562-0.0256 0.69246-0.0904 1.033-0.0762 0.39883-0.15013 0.79862-0.24133 1.1942-0.0837 0.34848-0.15591 0.69916-0.22841 1.0501-0.06 0.3188-0.15291 0.63207-0.26458 0.93638-0.19779 0.44469-0.44582 0.86535-0.66301 1.3007-0.20644 0.42395-0.42057 0.84713-0.68678 1.2371-0.24359 0.3334-0.49877 0.65992-0.80822 0.93586-0.39104 0.36667-0.79246 0.72218-1.2123 1.0558-0.45497 0.37571-0.87141 0.7917-1.3022 1.1942-0.23191 0.20132-0.47895 0.37912-0.73329 0.54932-0.33333 0.18951-0.66048 0.38689-0.97255 0.61495-0.24924 0.17901-0.49878 0.35686-0.74724 0.53692-0.35759 0.25156-0.73901 0.46802-1.0821 0.74052-0.4041 0.30555-0.80588 0.61599-1.1875 0.9493-0.11724 0.1014-0.23556 0.2008-0.35554 0.29817-0.25424 0.10279-0.5138 0.1928-0.77876 0.26614-1.0091 0.30808-2.0294 0.57999-3.068 0.76946-0.75545 0.15357-1.512 0.30123-2.2794 0.38344-0.68219 0.0589-1.373 0.0676-2.0422 0.22789-0.55813 0.14318-1.1155 0.2851-1.665 0.4594-0.68548 0.17013-1.3711 0.33942-2.0609 0.49145-0.61815 0.16018-1.2421 0.29026-1.8686 0.41341-0.78904 0.167-1.5821 0.32106-2.3596 0.5364-0.7582 0.23187-1.507 0.49537-2.2686 0.71675-0.90186 0.24955-1.8261 0.37608-2.7507 0.51108-0.63582 0.10694-1.2562 0.27252-1.8805 0.4315-0.64955 0.16018-1.312 0.25311-1.974 0.34571-0.62907 0.0678-1.2665 0.11517-1.8748 0.29973-0.68086 0.19997-1.3788 0.33252-2.0645 0.51521-0.69217 0.15195-1.3925 0.23959-2.0924 0.34727-0.81881 0.0989-1.6393 0.15317-2.465 0.13177-1.3013 7e-3 -2.6029 0.0108-3.9042 9e-3 -1.0126-6e-3 -2.0258-9e-3 -3.0375-0.0558-0.66668-0.0438-1.3248-0.14222-1.9864-0.23202-0.88866-0.12459-1.7755-0.25789-2.6546-0.43977-0.80439-0.15408-1.599-0.35692-2.3998-0.52813-1.0778-0.22039-2.1455-0.48465-3.2256-0.69247-0.93176-0.18062-1.8573-0.38473-2.7724-0.63768-0.75842-0.22328-1.5122-0.46648-2.2867-0.62994-0.57478-0.12246-1.1421-0.28495-1.7255-0.36225-0.58436-0.0913-1.1748-0.14135-1.7648-0.18035-0.66656-0.0568-1.3352-0.0805-1.9988-0.16795-0.73304-0.10296-1.4623-0.23516-2.2009-0.29456-0.61904-0.0376-1.2373-0.0992-1.8583-0.0801-0.51403 2e-3 -1.0282 9e-3 -1.5415 0.0393-0.38632 0.0303-0.76969 0.0958-1.1581 0.0806-0.52893 4e-3 -1.058 8e-3 -1.587 6e-3 -0.54072 2e-3 -1.0814 2.7e-4 -1.6216 0.0284-0.4625 0.0261-0.92353 0.0815-1.386 0.0946-0.49779-2e-3 -0.99547-4e-3 -1.4929-0.0238-0.65297-0.0312-1.3024-0.0933-1.9523-0.16174-0.74897-0.0848-1.4907-0.22263-2.2324-0.35502-0.75265-0.15074-1.5061-0.29647-2.2598-0.4408-0.4081-0.0575-0.81569-0.11799-1.2139-0.22686-0.54933-0.09-1.0892-0.22605-1.6309-0.35295-0.49276-0.0973-0.99203-0.14331-1.4857-0.23461-0.51152-0.10884-1.0202-0.22112-1.5234-0.36484-0.48754-0.099-0.97131-0.21433-1.4542-0.33383-0.49666-0.1018-0.98204-0.25122-1.478-0.35708-0.45163-0.11701-0.90713-0.21754-1.3518-0.35967-0.39479-0.12811-0.79672-0.23983-1.1777-0.40566-0.42037-0.16649-0.82571-0.3691-1.2511-0.524-0.41552-0.15463-0.83184-0.30833-1.2444-0.47025-0.44507-0.17186-0.89497-0.33036-1.3436-0.49248-0.68872-0.25582-1.3821-0.49851-2.0572-0.78961-0.52724-0.21622-1.0767-0.33627-1.6185-0.5085-0.3758-0.10424-0.75855-0.17228-1.1384-0.25838-0.53037-0.14397-1.0692-0.25478-1.602-0.39016-0.80618-0.20907-1.6067-0.43847-2.4143-0.64234-0.60531-0.15845-1.2029-0.3394-1.8035-0.5147-0.45686-0.12428-0.90874-0.26771-1.3643-0.39687-0.5273-0.13732-1.0565-0.26767-1.5761-0.43305-0.57063-0.17763-1.1265-0.40384-1.6836-0.61908-0.4303-0.17421-0.86286-0.34538-1.2738-0.56276-0.24515-0.1613-0.50024-0.30853-0.72089-0.50384-0.28512-0.26003-0.57987-0.51121-0.82992-0.80719-0.2389-0.22817-0.48357-0.45073-0.71882-0.68265-0.2207-0.25177-0.44826-0.49442-0.64079-0.76998-0.19066-0.25315-0.3796-0.51313-0.51263-0.80201-0.1182-0.26857-0.25092-0.52924-0.37827-0.79324-0.1149-0.27834-0.2364-0.55327-0.32814-0.84077-0.12327-0.32785-0.23874-0.65879-0.34623-0.99219-0.09683-0.30104-0.17401-0.60675-0.23203-0.91777-0.0552-0.33662-0.1438-0.66747-0.1695-1.0087-0.02099-0.32504-0.0078-0.65113-0.0098-0.97668-8.99e-4 -0.28221-0.0014-0.56428 0.0036-0.84646 0.0053-0.27248 0.01509-0.54557 0.05168-0.81597 0.04488-0.32466 0.09962-0.64764 0.14211-0.97255 0.06309-0.30999 0.14559-0.61589 0.20826-0.92604 0.05415-0.26455 0.11454-0.52718 0.17363-0.79065 0.06912-0.2502 0.1649-0.49284 0.27182-0.72916 0.10437-0.2222 0.22602-0.43489 0.34003-0.65215 0.12241-0.19839 0.22442-0.41117 0.38034-0.58705 0.15344-0.21232 0.30383-0.42584 0.49454-0.60771 0.19638-0.19846 0.40839-0.37951 0.61185-0.57051 0.19666-0.16244 0.40859-0.30556 0.62063-0.447 0.22314-0.14423 0.4528-0.27747 0.67231-0.42737 0.22719-0.15607 0.45389-0.31358 0.67593-0.47697 0.26397-0.18646 0.53268-0.36607 0.7922-0.55862 0.16976-0.11348 0.32555-0.2451 0.49403-0.36019 0.03535-0.0112 0.07256-0.0178 0.1049-0.0356 0.29297-0.16197 3.9537-2.2554 0.23048-0.12764 0.25392-0.11514 0.49901-0.2487 0.74672-0.37621 0.28621-0.1338 0.58499-0.30278 0.87747-0.47439 0.15645-0.0811 0.31431-0.15891 0.48266-0.21756 0.21426-0.066 0.42415-0.16183 0.6072-0.29145 0.21878-0.0897 0.42685-0.19524 0.66714-0.21704 0.21514-0.0631 0.41381-0.17014 0.63304-0.21704 0.56247-0.31835 1.1255-0.63535 1.6872-0.95498 0.08632-0.0491 0.16446-0.11205 0.24856-0.16485 0.02664-0.0167 0.10789-0.0648 0.08062-0.0491 0.02687-0.0154 0.18539-0.10677 0.26303-0.15142-0.02545-0.055-0.04408-0.11275-0.05529-0.17311-0.08214-0.0315-0.16383-0.0661-0.20877-0.0915zm90.129 1.2325-0.0248 0.0181c2e-3 -1e-5 4e-3 1e-5 6e-3 0 6e-3 -6e-3 0.0128-0.012 0.0191-0.0181zm-92.089 2e-3c-0.01063 7e-3 -0.01991 0.0145-0.031 0.0207-0.02733 0.0151-0.1097 0.0607-0.08268 0.045 0.03784-0.0219 0.07584-0.0437 0.11369-0.0656zm94.042 0.0191c-5e-3 -2e-3 -6e-3 3e-3 -2e-3 0.0186 5.3e-4 2e-3 2e-3 4e-3 3e-3 7e-3 8e-3 8.5e-4 0.0169 2e-3 0.0253 3e-3 -0.0117-0.0152-0.0213-0.026-0.0264-0.0284zm-95.415 0.64647c0.04976-0.0271-0.14362 0.083-0.14676 0.0858-0.01096 0.01-0.17571 0.10566-0.51315 0.29869 0.05689-0.0341 0.11574-0.0693 0.17105-0.10232 0.1488-0.0856 0.20163-0.11557 0.3421-0.19637 0.06824-0.0393-0.2901 0.16597-0.32866 0.18811 0.16783-0.1 0.32878-0.19402 0.47542-0.27389zm-1.233 0.71159c-0.05811 0.0329-0.3368 0.19172-0.2527 0.14366 0.0049-3e-3 0.18437-0.10626 0.22428-0.1292 0.0094-5e-3 0.01902-9e-3 0.02842-0.0145zm-2.2407 1.1508c-0.5252 0.30278-0.26705 0.15193-0.02067 9e-3 0.0069-3e-3 0.0138-6e-3 0.02067-9e-3z" fill="#003" stroke-width=".26458"/>
 </g>
</svg>
