<?xml version="1.0" encoding="UTF-8" standalone="no"?>
<!-- Created with Inkscape (http://www.inkscape.org/) -->

<svg
   xmlns:dc="http://purl.org/dc/elements/1.1/"
   xmlns:cc="http://creativecommons.org/ns#"
   xmlns:rdf="http://www.w3.org/1999/02/22-rdf-syntax-ns#"
   xmlns:svg="http://www.w3.org/2000/svg"
   xmlns="http://www.w3.org/2000/svg"
   xmlns:xlink="http://www.w3.org/1999/xlink"
   xmlns:sodipodi="http://sodipodi.sourceforge.net/DTD/sodipodi-0.dtd"
   xmlns:inkscape="http://www.inkscape.org/namespaces/inkscape"
   width="131.00845mm"
   height="45.366383mm"
   viewBox="0 0 131.00845 45.366382"
   version="1.1"
   id="svg3790"
   inkscape:version="0.92.4 (f8dce91, 2019-08-02)"
   sodipodi:docname="thePond_4.svg">
  <defs
     id="defs3784">
    <inkscape:path-effect
       effect="bspline"
       id="path-effect920"
       is_visible="true"
       weight="33.333333"
       steps="2"
       helper_size="0"
       apply_no_weight="true"
       apply_with_weight="true"
       only_selected="false" />
    <linearGradient
       id="linearGradient3781">
      <stop
         style="stop-color:#b4c700;stop-opacity:1;"
         offset="0"
         id="stop4794" />
      <stop
         style="stop-color:#1ec700;stop-opacity:1;"
         offset="1"
         id="stop4796" />
    </linearGradient>
    <linearGradient
       id="linearGradient3854">
      <stop
         style="stop-color:#ffbe00;stop-opacity:1;"
         offset="0"
         id="stop3856" />
      <stop
         id="stop3860"
         offset="0.5"
         style="stop-color:#ffc895;stop-opacity:1;" />
      <stop
         style="stop-color:#ffffff;stop-opacity:1;"
         offset="1"
         id="stop3858" />
    </linearGradient>
    <linearGradient
       id="linearGradient3781-5">
      <stop
         id="stop3783"
         offset="0"
         style="stop-color:#b4c700;stop-opacity:1;" />
      <stop
         id="stop3785"
         offset="1"
         style="stop-color:#1ec700;stop-opacity:1;" />
    </linearGradient>
    <linearGradient
       id="linearGradient3765">
      <stop
         id="stop3779"
         offset="0"
         style="stop-color:#bcbb00;stop-opacity:0.49803922;" />
      <stop
         id="stop3769"
         offset="1"
         style="stop-color:#b2b700;stop-opacity:1;" />
    </linearGradient>
    <radialGradient
       gradientUnits="userSpaceOnUse"
       gradientTransform="matrix(1.1929256,0,0,1.1892072,-45.876126,-35.071197)"
       r="167.375"
       fy="201.875"
       fx="211.875"
       cy="201.875"
       cx="211.875"
       id="radialGradient3787"
       xlink:href="#linearGradient3781-5" />
    <radialGradient
       gradientUnits="userSpaceOnUse"
       gradientTransform="matrix(1.1929256,0,0,1.1892072,-45.876126,-35.071197)"
       r="167.375"
       fy="201.875"
       fx="211.875"
       cy="201.875"
       cx="211.875"
       id="radialGradient3787-1"
       xlink:href="#linearGradient3781-5" />
    <radialGradient
       gradientUnits="userSpaceOnUse"
       gradientTransform="matrix(1,0,0,1.0333496,0,-3.1554127)"
       r="94.635666"
       fy="94.616302"
       fx="236.89177"
       cy="94.616302"
       cx="236.89177"
       id="radialGradient3852"
       xlink:href="#linearGradient3854" />
    <radialGradient
       r="94.635666"
       fy="94.616302"
       fx="236.89177"
       cy="94.616302"
       cx="236.89177"
       gradientTransform="matrix(1,0,0,1.0333496,71,38.844587)"
       gradientUnits="userSpaceOnUse"
       id="radialGradient3863"
       xlink:href="#linearGradient3854" />
    <radialGradient
       r="94.635666"
       fy="94.616302"
       fx="236.89177"
       cy="94.616302"
       cx="236.89177"
       gradientTransform="matrix(1,0,0,1.0333496,75,36.844587)"
       gradientUnits="userSpaceOnUse"
       id="radialGradient3863-2"
       xlink:href="#linearGradient3854-7" />
    <linearGradient
       id="linearGradient3854-7">
      <stop
         style="stop-color:#ffbe00;stop-opacity:1;"
         offset="0"
         id="stop3856-7" />
      <stop
         id="stop3860-1"
         offset="0.5"
         style="stop-color:#ffb095;stop-opacity:1;" />
      <stop
         style="stop-color:#ffffde;stop-opacity:1;"
         offset="1"
         id="stop3858-2" />
    </linearGradient>
    <radialGradient
       xlink:href="#linearGradient3854-7"
       id="radialGradient3881"
       gradientUnits="userSpaceOnUse"
       gradientTransform="matrix(1,0,0,1.0333496,76.47055,35.77855)"
       cx="236.89177"
       cy="94.616302"
       fx="236.89177"
       fy="94.616302"
       r="94.635666" />
    <radialGradient
       gradientUnits="userSpaceOnUse"
       gradientTransform="matrix(1,0,0,0.96317364,0,3.5315011)"
       r="81.850082"
       fy="95.896019"
       fx="257.21243"
       cy="95.896019"
       cx="257.21243"
       id="radialGradient3913"
       xlink:href="#linearGradient3854-7" />
    <radialGradient
       r="81.850082"
       fy="95.896019"
       fx="257.21243"
       cy="95.896019"
       cx="257.21243"
       gradientTransform="matrix(0.99524277,-0.097426,0.09383816,0.9585916,49.878179,73.886603)"
       gradientUnits="userSpaceOnUse"
       id="radialGradient3916"
       xlink:href="#linearGradient3854-7" />
    <radialGradient
       r="81.850082"
       fy="95.896019"
       fx="257.21243"
       cy="95.896019"
       cx="257.21243"
       gradientTransform="matrix(0.99524277,-0.097426,0.09383816,0.9585916,49.878179,73.886603)"
       gradientUnits="userSpaceOnUse"
       id="radialGradient3916-6"
       xlink:href="#linearGradient3854-7" />
    <radialGradient
       xlink:href="#linearGradient3854-7"
       id="radialGradient3934"
       gradientUnits="userSpaceOnUse"
       gradientTransform="matrix(0.55907512,-0.5222096,0.50297853,0.5384864,126.0489,221.83648)"
       cx="257.21243"
       cy="95.896019"
       fx="257.21243"
       fy="95.896019"
       r="81.850082" />
    <radialGradient
       r="94.635666"
       fy="94.616302"
       fx="236.89177"
       cy="94.616302"
       cx="236.89177"
       gradientTransform="matrix(1,0,0,1.0333496,75,36.844587)"
       gradientUnits="userSpaceOnUse"
       id="radialGradient3863-5"
       xlink:href="#linearGradient3854" />
    <radialGradient
       inkscape:collect="always"
       xlink:href="#linearGradient3781"
       id="radialGradient4792"
       cx="206.875"
       cy="205"
       fx="206.875"
       fy="205"
       r="202.19447"
       gradientTransform="matrix(1,0,0,0.99690892,0,0.63367212)"
       gradientUnits="userSpaceOnUse" />
    <radialGradient
       inkscape:collect="always"
       xlink:href="#linearGradient3781"
       id="radialGradient865"
       gradientUnits="userSpaceOnUse"
       gradientTransform="matrix(1,0,0,0.99690892,0,0.63367212)"
       cx="206.875"
       cy="205"
       fx="206.875"
       fy="205"
       r="202.19447" />
  </defs>
  <sodipodi:namedview
     id="base"
     pagecolor="#ffffff"
     bordercolor="#666666"
     borderopacity="1.0"
     inkscape:pageopacity="0.0"
     inkscape:pageshadow="2"
     inkscape:zoom="2.1028075"
     inkscape:cx="256.19341"
     inkscape:cy="41.626456"
     inkscape:document-units="mm"
     inkscape:current-layer="layer1"
     showgrid="false"
     inkscape:window-width="1850"
     inkscape:window-height="1016"
     inkscape:window-x="70"
     inkscape:window-y="27"
     inkscape:window-maximized="1" />
  <metadata
     id="metadata3787">
    <rdf:RDF>
      <cc:Work
         rdf:about="">
        <dc:format>image/svg+xml</dc:format>
        <dc:type
           rdf:resource="http://purl.org/dc/dcmitype/StillImage" />
        <dc:title />
      </cc:Work>
    </rdf:RDF>
  </metadata>
  <g
     inkscape:label="Layer 1"
     inkscape:groupmode="layer"
     id="layer1"
     transform="translate(-78.048229,-120.40888)">
    <path
       id="path3818"
       style="fill:#000033;fill-opacity:1;stroke-width:0.26754072"
       d="m 95.030707,134.37095 c -0.05712,0.0223 -0.114761,0.0434 -0.171566,0.0667 -0.923237,0.38235 -1.773275,0.90184 -2.617411,1.42679 -0.149166,0.0716 -0.298396,0.14329 -0.447001,0.21601 -0.401979,0.21238 -0.804246,0.42308 -1.21853,0.61185 -0.885345,0.37382 -1.772155,0.79743 -2.529561,1.38492 -0.338494,0.30266 -0.546762,0.73615 -0.694532,1.15394 -0.203588,0.74632 -0.02055,1.40779 0.272335,2.09961 0.440757,0.90312 1.198885,1.57545 1.952336,2.22674 1.112088,0.94139 2.213581,1.89384 3.292822,2.87114 1.052756,0.97877 2.237313,1.80557 3.5264,2.46083 0.343258,0.17449 0.697023,0.32904 1.045414,0.49351 2.900737,1.18792 5.911847,2.10067 8.938467,2.92541 2.64424,0.70351 5.32541,1.27147 8.02432,1.73322 2.49257,0.35789 5.02484,0.25863 7.53597,0.24443 3.43311,-0.007 6.84817,0.3375 10.24072,0.82114 2.59779,0.3773 5.17624,0.8666 7.78299,1.18288 2.88545,0.31409 5.78983,0.32795 8.68732,0.22634 2.91807,-0.17996 5.8365,-0.33656 8.75916,-0.42116 1.44525,-0.0431 2.89258,-0.0263 4.33668,-0.10646 0.97466,-0.0542 1.29309,-0.096 2.28669,-0.19223 2.89784,-0.28508 5.79104,-0.60939 8.6806,-0.96532 2.28046,-0.28462 4.56159,-0.56187 6.8306,-0.92501 1.10754,-0.18325 2.20674,-0.42391 3.26956,-0.78341 0.58199,-0.19687 0.81164,-0.30534 1.37666,-0.54261 1.48315,-0.69869 2.87663,-1.56281 4.28191,-2.39778 0.0674,-0.0401 0.0908,-0.0534 0.20361,-0.11782 1.54299,-0.85908 3.07774,-1.73152 4.60799,-2.61225 0.78977,-0.48392 1.50464,-1.09277 2.00245,-1.8712 0.0926,-0.14484 0.16892,-0.29943 0.25322,-0.44907 0.25589,-0.55801 0.44432,-1.16318 0.45992,-1.77973 0.009,-0.34062 -0.035,-0.54444 -0.0832,-0.87954 -0.19587,-0.84191 -0.55311,-1.65541 -1.01492,-2.39158 -0.10924,-0.17412 -0.23285,-0.33894 -0.34934,-0.5085 -0.8233,-1.10301 -1.90019,-1.96696 -3.05149,-2.7218 -0.85588,-0.5127 -1.73435,-1.01614 -2.67736,-1.36271 -0.18909,-0.0695 -0.38259,-0.1253 -0.57412,-0.1881 -0.97444,-0.29723 -1.99135,-0.3877 -3.00498,-0.4408 -0.49311,-0.0156 -0.25467,-0.01 -0.71676,-0.0186 l -0.96325,0.68265 v 0.27802 c 0.073,0.0391 0.14606,0.0782 0.21911,0.1173 0.001,0.004 0.002,0.009 0.004,0.0129 0.98899,0.0345 1.98118,0.11032 2.93625,0.38188 0.18874,0.0592 0.38014,0.11147 0.56638,0.17777 0.93868,0.33398 1.80947,0.83481 2.66702,1.32757 1.14155,0.7281 2.20243,1.57616 3.00653,2.66495 0.58895,0.86974 1.09683,1.8054 1.30121,2.83962 0.044,0.34049 0.0792,0.49675 0.0625,0.8413 -0.0288,0.59555 -0.21855,1.17476 -0.48266,1.70739 -0.0858,0.14303 -0.16324,0.29091 -0.25734,0.42891 -0.51486,0.75566 -1.24454,1.33167 -2.02727,1.80506 0.36544,-0.20066 0.72892,-0.40526 1.09657,-0.60203 0.17476,-0.0935 -0.34498,0.19507 -0.51779,0.29197 -0.80662,0.45251 -1.61396,0.90334 -2.41898,1.35857 -0.87773,0.49446 -2.00325,1.1132 -2.93884,1.66967 -0.23181,0.13788 -0.94998,0.49959 -0.69143,0.41909 0.004,-0.001 0.007,-0.003 0.0109,-0.005 -0.34594,0.18462 -0.64207,0.3391 -0.47852,0.23461 -0.52281,0.22583 -0.83171,0.36971 -1.37046,0.55965 -1.06239,0.37456 -2.16383,0.62892 -3.27474,0.82011 -2.2848,0.38054 -4.58201,0.67358 -6.87968,0.96945 -2.87795,0.36259 -5.76009,0.69191 -8.65012,0.9493 -0.93608,0.0872 -1.3402,0.13373 -2.26239,0.18603 -1.45314,0.0824 -2.90979,0.079 -4.36408,0.12867 -2.93288,0.1 -5.862,0.2603 -8.79068,0.44287 -0.51766,0.0193 -1.03546,0.0467 -1.55339,0.0579 -2.3637,0.0511 -4.73057,-0.0545 -7.08225,-0.28732 -2.6156,-0.31706 -5.20757,-0.78671 -7.81555,-1.15652 -3.40297,-0.47149 -6.82739,-0.80409 -10.26759,-0.83199 -2.48238,-0.006 -4.9816,0.0496 -7.4476,-0.27027 -2.72306,-0.4267 -5.4311,-0.96008 -8.09408,-1.66501 -3.0028,-0.81852 -5.98975,-1.73102 -8.853723,-2.94349 -0.341096,-0.16484 -0.687076,-0.32021 -1.023194,-0.49455 -1.267826,-0.6576 -2.431189,-1.48214 -3.474206,-2.44533 -1.078286,-0.97664 -2.176748,-1.93139 -3.275769,-2.88561 -0.723103,-0.63831 -1.460942,-1.2937 -1.883606,-2.17041 -0.270676,-0.66133 -0.430167,-1.28101 -0.195854,-1.98231 0.125777,-0.29049 0.273636,-0.58333 0.486792,-0.82113 0.25947,-0.12434 0.516481,-0.25315 0.767395,-0.3943 0.307451,-0.15769 0.633241,-0.2868 0.935344,-0.45371 0.620528,-0.34283 1.23774,-0.69126 1.854667,-1.04025 0.0845,-0.0478 0.16594,-0.0999 0.24908,-0.14986 0.005,-0.003 0.01,-0.007 0.01499,-0.01 0.0037,-0.002 0.0087,-0.004 0.0124,-0.006 0.53602,-0.23424 1.088727,-0.42787 1.656747,-0.57464 l 0.359667,-0.27543 c -0.02716,-0.0628 -0.04878,-0.10781 -0.07596,-0.17519 -0.04215,-0.0171 -0.0766,-0.0372 -0.077,-0.0703 -0.0681,-0.0313 -0.143603,-0.0711 -0.216524,-0.11317 z"
       inkscape:connector-curvature="0" />
    <text
       xml:space="preserve"
       style="font-style:normal;font-variant:normal;font-weight:bold;font-stretch:normal;font-size:15.05960083px;line-height:1.25;font-family:'Amatic SC';-inkscape-font-specification:'Amatic SC Bold';letter-spacing:0px;word-spacing:0px;fill:#164016;fill-opacity:1;stroke:none;stroke-width:0.37648997"
       x="79.353371"
       y="166.8615"
       id="text84"
       transform="scale(1.1816755,0.84625602)"><tspan
         sodipodi:role="line"
         id="tspan82"
         x="79.353371"
         y="166.8615"
         style="font-style:normal;font-variant:normal;font-weight:bold;font-stretch:normal;font-size:32.12714767px;font-family:'Amatic SC';-inkscape-font-specification:'Amatic SC Bold';fill:#164016;fill-opacity:1;stroke-width:0.37648997">theP  nd</tspan></text>
    <g
       id="g255"
       transform="matrix(0.0417766,0,0,0.0417766,135.66708,123.69051)">
      <g
         style="display:inline;fill:#164016;fill-opacity:1"
         id="layer2">
        <path
           id="path2994-9"
           d="m 416.06947,213.25 c 0,109.59786 -89.12643,198.44447 -199.06947,198.44447 -27.48575,0 -53.67048,-5.55291 -77.48682,-15.59474 -11.90818,-5.02091 63.26286,-133.975 52.6723,-141.10737 C 181.59491,247.85998 85.24274,362.54928 76.23663,353.57143 40.212138,317.66004 17.930529,268.04893 17.930529,213.25 17.930529,103.65215 107.05696,14.80553 217,14.80553 c 109.94304,0 199.06947,88.84662 199.06947,198.44447 z"
           style="fill:#164016;fill-opacity:1;stroke:none"
           inkscape:connector-curvature="0" />
      </g>
      <g
         style="display:inline;fill:url(#radialGradient4792);fill-opacity:1"
         id="layer1-4">
        <path
           id="path2994"
           d="m 405.94447,205 c 0,109.59786 -89.12643,198.44447 -199.06947,198.44447 -27.48575,0 -53.67048,-5.55291 -77.48682,-15.59474 -11.90818,-5.02091 63.26286,-133.975 52.6723,-141.10737 C 171.46991,239.60998 75.117742,354.29928 66.111624,345.32143 30.087137,309.41004 7.8055275,259.79893 7.8055275,205 7.8055275,95.402145 96.931963,6.5555275 206.875,6.5555275 316.81804,6.5555275 405.94447,95.402145 405.94447,205 Z"
           style="fill:url(#radialGradient865);fill-opacity:1;stroke:#008200;stroke-width:6.25;stroke-miterlimit:4;stroke-dasharray:none;stroke-opacity:1"
           inkscape:connector-curvature="0" />
      </g>
      <g
         style="display:inline"
         id="layer4">
        <path
           id="path3844"
           d="m 394.75,202 c -14.11139,17.43172 -65.63061,-14.81854 -65.63061,-14.81854 0,0 -28.47494,53.6981 -49.41415,45.66407 -20.93921,-8.03403 -6.18771,-66.9976 -6.18771,-66.9976 0,0 -59.86918,-10.48764 -58.69893,-32.88467 1.17025,-22.39703 61.8064,-26.58826 61.8064,-26.58826 0,0 -8.52624,-60.179832 13.13622,-65.987921 21.66246,-5.808089 44.38616,50.565155 44.38616,50.565155 0,0 54.59967,-26.70553 66.81756,-7.898101 12.21789,18.807427 -34.37424,57.839237 -34.37424,57.839237 0,0 42.27069,43.67491 28.1593,61.10663 z"
           style="display:inline;fill:url(#radialGradient3863);fill-opacity:1;stroke:#cc756c;stroke-width:6.25;stroke-miterlimit:4;stroke-dasharray:none;stroke-opacity:1"
           inkscape:connector-curvature="0" />
        <path
           id="path3905"
           d="m 396.32809,148.83341 c -3.34227,18.39826 -53.93266,15.43592 -53.93266,15.43592 0,0 0.67108,50.6726 -17.85952,53.17928 -18.5306,2.50669 -31.34654,-46.52305 -31.34654,-46.52305 0,0 -47.98514,16.29694 -56.0954,-0.5521 -8.11027,-16.84905 34.55944,-44.18874 34.55944,-44.18874 0,0 -30.32753,-40.600544 -16.80935,-53.520511 13.51817,-12.919968 52.70544,19.21291 52.70544,19.21291 0,0 29.24168,-41.389452 45.70665,-32.525392 16.46497,8.864059 -1.98568,56.062963 -1.98568,56.062963 0,0 48.39989,15.02046 45.05762,33.41872 z"
           style="fill:url(#radialGradient3916);fill-opacity:1;stroke:#cc756c;stroke-width:6.25;stroke-miterlimit:4;stroke-dasharray:none;stroke-opacity:1"
           inkscape:connector-curvature="0" />
        <path
           id="path3905-4"
           d="m 371.31476,106.16288 c 6.53017,12.72814 -25.57121,34.46667 -25.57121,34.46667 0,0 23.98331,30.46084 13.89607,40.60462 -10.08724,10.14377 -40.68168,-13.6689 -40.68168,-13.6689 0,0 -21.55875,32.22242 -34.32317,25.76349 -12.76445,-6.45893 0.42858,-42.91449 0.42858,-42.91449 0,0 -37.30737,-10.54631 -35.10899,-24.68193 2.19837,-14.13562 40.94654,-12.85372 40.94654,-12.85372 0,0 -1.49848,-38.74038 12.62464,-41.01775 14.12311,-2.277364 24.87779,34.97046 24.87779,34.97046 0,0 36.38124,-13.396574 42.91143,-0.66845 z"
           style="display:inline;fill:url(#radialGradient3934);fill-opacity:1;stroke:#cc756c;stroke-width:6.25;stroke-miterlimit:4;stroke-dasharray:none;stroke-opacity:1"
           inkscape:connector-curvature="0" />
      </g>
    </g>
    <path
       id="path868"
       style="opacity:1;vector-effect:none;fill:#000033;fill-opacity:1;stroke-width:0.26458332;stroke-linecap:butt;stroke-linejoin:miter;stroke-miterlimit:4;stroke-dasharray:none;stroke-dashoffset:0;stroke-opacity:1"
       d="m 119.758,144.67352 c -0.12678,0.0904 -0.25927,0.14386 -0.41962,0.17673 0.013,-5e-5 -0.009,0.01 -0.0326,0.0191 0.057,-0.0166 -0.31331,0.1736 -0.34985,0.1881 -0.0216,0.0152 -0.0535,0.0253 -0.0868,0.0331 -0.0124,0.0292 -0.0206,0.0465 -0.0599,0.14986 -0.0103,0.027 -0.0212,0.0533 -0.032,0.0801 -0.0298,0.10146 -0.0224,0.20694 -0.0202,0.31161 0.037,0.0503 0.1209,0.25014 0.13332,0.2775 0.0666,0.14146 0.14522,0.27831 0.21084,0.42064 0.17132,0.21369 0.38447,0.3535 0.64854,0.44856 0.53488,0.14557 1.07367,0.27577 1.60662,0.42839 0.53417,0.15383 1.07789,0.27129 1.61747,0.40411 0.40473,0.0999 0.81803,0.1628 1.23042,0.22169 0.67933,0.0993 1.34784,0.26302 2.0128,0.4315 0.74557,0.16945 1.48296,0.37017 2.22312,0.56121 0.66359,0.16069 1.31442,0.36737 1.97921,0.52296 0.59083,0.13606 1.19542,0.17679 1.79937,0.19689 0.65803,-0.006 1.31334,0.03 1.96525,0.11886 0.88132,0.15806 1.76507,0.3011 2.65049,0.43408 0.83834,0.14031 1.67461,0.29188 2.51612,0.41289 0.7341,0.10439 1.46903,0.20349 2.20814,0.26459 0.64227,0.0449 1.28677,0.0304 1.93011,0.0284 0.73736,-0.003 1.47491,0.003 2.21227,0.003 0.75343,0.0302 1.50105,-0.0555 2.24896,-0.13074 0.80175,-0.0949 1.60364,-0.1868 2.40657,-0.2713 0.66336,-0.0741 1.33111,-0.0743 1.99678,-0.10904 0.66958,-0.0763 1.33521,-0.18226 2.00453,-0.26096 0.81504,-0.0921 1.63603,-0.0823 2.45411,-0.11886 0.64795,-0.0524 1.28072,-0.21367 1.90531,-0.38654 0.6191,-0.17344 1.2458,-0.31581 1.88309,-0.40101 0.50084,-0.0559 1.00494,-0.0551 1.50275,-0.13694 0.41504,-0.0624 0.79353,-0.23267 1.16013,-0.42891 1.02985,-0.49469 1.92309,-1.11112 2.78123,-1.83555 0.23061,-0.23057 0.4719,-0.45472 0.73639,-0.64544 0.19598,-0.10701 0.38333,-0.26952 0.54208,-0.42684 0.005,-0.005 0.0106,-0.009 0.0155,-0.0135 -0.0582,-0.0718 -0.11538,-0.1443 -0.17312,-0.21652 l -0.96738,0.40256 c -0.19665,0.18243 -0.41074,0.34441 -0.60255,0.53227 -0.17844,0.14384 -0.3523,0.29177 -0.5457,0.41547 -0.24395,0.20865 -0.48448,0.42053 -0.71624,0.64286 -0.13056,0.10758 -0.32518,0.25412 -0.51056,0.39377 -0.0802,0.0243 -0.161,0.0471 -0.24391,0.0631 -0.49808,0.11316 -1.00671,0.11525 -1.51361,0.16175 -0.64478,0.0708 -1.2763,0.20548 -1.90117,0.37982 -0.61835,0.17646 -1.24357,0.33829 -1.88257,0.41909 -0.82018,0.0569 -1.64439,0.0414 -2.46394,0.11472 -0.66512,0.0675 -1.32728,0.1646 -1.98902,0.2589 -0.66975,0.0518 -1.3437,0.0359 -2.01228,0.11214 -0.80422,0.083 -1.60698,0.1783 -2.40967,0.2744 -0.74058,0.0725 -1.48004,0.17223 -2.22622,0.13643 -0.74181,0.001 -1.48338,0.01 -2.22519,0.007 -0.63425,-0.003 -1.26898,-0.005 -1.90273,-0.0331 -0.74363,-0.044 -1.48485,-0.12142 -2.22053,-0.23978 -0.84433,-0.11773 -1.68417,-0.26305 -2.5244,-0.40618 -0.88204,-0.12741 -1.76161,-0.27131 -2.63601,-0.4439 -0.65078,-0.10202 -1.30586,-0.15781 -1.96526,-0.14521 -0.59889,-0.0137 -1.1993,-0.0414 -1.788,-0.16175 -0.66588,-0.14419 -1.31148,-0.36042 -1.97301,-0.52244 -0.74685,-0.17979 -1.4882,-0.38144 -2.2381,-0.54881 -0.66018,-0.17347 -1.32178,-0.34889 -1.99368,-0.47077 -0.41026,-0.0536 -0.81872,-0.12481 -1.22473,-0.20361 -0.54126,-0.12599 -1.0834,-0.24835 -1.62057,-0.39067 -0.5252,-0.1563 -1.05764,-0.28734 -1.5844,-0.43822 -0.27891,-0.0773 -0.4883,-0.20666 -0.66095,-0.44441 -0.0642,-0.0792 -0.12462,-0.16137 -0.18655,-0.24237 -0.0389,-0.0152 -0.0785,-0.0278 -0.11627,-0.0486 -0.082,-0.0579 -0.17698,-0.12513 -0.262,-0.20154 -0.0177,-0.006 -0.0354,-0.0112 -0.0532,-0.017 -0.0858,-0.0291 -0.1674,-0.0662 -0.24701,-0.10749 z"
       inkscape:connector-curvature="0" />
    <path
       id="path884"
       style="opacity:1;vector-effect:none;fill:#000033;fill-opacity:1;stroke-width:0.26458332;stroke-linecap:butt;stroke-linejoin:miter;stroke-miterlimit:4;stroke-dasharray:none;stroke-dashoffset:0;stroke-opacity:1"
       d="m 92.055362,128.0302 -0.03411,0.0134 c 0.02675,0.0146 0.05683,0.0318 0.07441,0.0393 -0.01624,-0.0221 -0.02501,-0.0321 -0.04031,-0.0527 z m -0.04961,0.0196 -0.24598,0.0961 c -0.215544,0.13855 -0.42008,0.29229 -0.625284,0.44493 -0.101729,0.0382 -0.203199,0.0771 -0.304891,0.11524 -0.227648,0.0639 -0.455763,0.11337 -0.674378,0.20567 -0.202193,0.097 -0.396883,0.20848 -0.603064,0.29818 -0.237648,0.0919 -0.476597,0.18133 -0.701249,0.3023 -4.708878,2.72124 -0.06981,0.041 -0.21239,0.12093 -0.572872,0.32112 -1.134509,0.66241 -1.706873,0.98443 -0.497614,0.27997 0.989267,-0.57089 1.482597,-0.85834 0.01274,-0.007 -0.08132,0.0438 -0.236678,0.12764 -0.246963,0.12971 -0.496937,0.25362 -0.745691,0.37982 -3.684329,2.11512 -0.992453,0.57264 -0.232027,0.12402 0.03831,-0.0226 -0.08029,0.0387 -0.120923,0.0568 -0.112475,0.0501 -0.223709,0.10038 -0.334863,0.15348 -0.766422,0.3895 -1.529807,0.79697 -2.241207,1.27899 2.341859,-1.35966 1.657129,-0.9661 -0.198437,0.12867 -0.129979,0.0767 -0.264046,0.15792 -0.380339,0.25322 -0.159363,0.13515 -0.356762,0.24495 -0.51263,0.38085 -0.259089,0.1875 -0.534084,0.35383 -0.783932,0.55346 -0.234084,0.14675 -0.444495,0.32677 -0.684713,0.46302 -0.216565,0.15495 -0.454556,0.2766 -0.670243,0.43563 -0.214513,0.14119 -0.436716,0.28351 -0.610815,0.47491 -0.209724,0.18485 -0.423774,0.36625 -0.603064,0.58136 -0.20821,0.17098 -0.315363,0.42409 -0.49506,0.61805 -0.134401,0.19758 -0.253387,0.40638 -0.371554,0.61391 -0.11079,0.22166 -0.220405,0.443 -0.330212,0.6656 -0.09931,0.25067 -0.197959,0.50023 -0.255799,0.76429 -0.06573,0.2617 -0.104555,0.53067 -0.168465,0.79272 -0.05821,0.31267 -0.148329,0.61777 -0.206189,0.93069 -0.0267,0.32974 -0.09187,0.65366 -0.135392,0.98133 -0.0352,0.27786 -0.04344,0.55795 -0.04754,0.83768 -7.94e-4,0.28289 6.61e-4,0.56613 5.29e-4,0.84904 0.0085,0.32951 -0.01336,0.6596 0.02222,0.98754 0.03027,0.34506 0.121833,0.67912 0.175183,1.02061 0.06467,0.32025 0.137835,0.6368 0.244946,0.94568 0.111279,0.33441 0.227031,0.66763 0.352951,0.99683 0.08764,0.29128 0.20869,0.56861 0.324527,0.84905 0.131367,0.26345 0.263622,0.52552 0.379822,0.79633 0.139268,0.30256 0.341334,0.57137 0.541052,0.83613 0.199548,0.27622 0.417029,0.53362 0.646473,0.78496 0.23348,0.24069 0.483759,0.46445 0.727087,0.69505 0.260902,0.28639 0.548544,0.54546 0.831474,0.80925 0.219749,0.2121 0.481048,0.36949 0.737423,0.53175 0.416983,0.23675 0.867879,0.40345 1.312581,0.5793 0.559575,0.22153 1.121041,0.44196 1.693437,0.62838 0.520532,0.15976 1.043045,0.31408 1.570446,0.44959 0.455846,0.12487 0.907379,0.26359 1.361674,0.39377 0.609432,0.16453 1.214064,0.34615 1.825212,0.50436 0.810351,0.19949 1.615499,0.4175 2.420524,0.63718 0.52008,0.14588 1.048542,0.26081 1.567346,0.41082 0.377912,0.10716 0.767311,0.16258 1.148767,0.25528 0.539043,0.16835 1.09,0.28567 1.620056,0.48163 0.682816,0.27268 1.370506,0.53192 2.058276,0.79168 0.441747,0.16629 0.881747,0.33694 1.322907,0.50488 0.41582,0.1585 0.83267,0.31557 1.25057,0.4687 0.42258,0.15769 0.83232,0.34586 1.24851,0.51884 0.38319,0.16676 0.78135,0.2956 1.17977,0.42064 0.44931,0.14496 0.90996,0.24951 1.36788,0.36277 0.4957,0.10915 0.98329,0.25192 1.47794,0.36484 0.48484,0.12106 0.97278,0.22866 1.46193,0.33072 0.50622,0.12467 1.0067,0.26278 1.51773,0.36794 0.49286,0.10098 0.99399,0.1502 1.48932,0.2372 0.54539,0.10998 1.08397,0.25025 1.63039,0.35501 0.40019,0.11317 0.80881,0.1749 1.22008,0.231 0.76348,0.12164 1.52385,0.26583 2.28306,0.41238 0.7373,0.13708 1.47451,0.28077 2.21796,0.38085 0.65361,0.0729 1.30761,0.13208 1.96422,0.16898 0.49303,0.029 0.98675,0.0409 1.48053,0.0439 0.46737,0.006 0.93198,-0.0573 1.39785,-0.0884 0.54001,-0.0314 1.08135,-0.0379 1.62212,-0.0419 0.52396,-0.005 1.04755,1.8e-4 1.57148,0.004 0.39245,0.0207 0.78146,-0.0326 1.17099,-0.0698 0.51278,-0.0442 1.0277,-0.0504 1.54202,-0.0574 0.61967,-0.0274 1.23701,0.0276 1.85467,0.0667 0.7394,0.0467 1.47046,0.16276 2.20193,0.27491 0.66202,0.10511 1.33228,0.12609 1.99936,0.18139 0.58477,0.0396 1.16822,0.0969 1.74873,0.17777 0.58278,0.0726 1.15171,0.22194 1.72445,0.34778 0.77856,0.15969 1.54138,0.38333 2.30476,0.60203 0.91947,0.26019 1.84932,0.47353 2.78846,0.64802 1.0799,0.19395 2.14693,0.45297 3.21738,0.69298 0.79712,0.18305 1.59043,0.38147 2.39365,0.5364 0.8817,0.17377 1.76919,0.31449 2.65772,0.44804 0.65994,0.0981 1.31649,0.20368 1.98231,0.25218 1.03169,0.0522 2.0659,0.0299 3.09852,0.0269 1.29471,-0.001 2.58931,0.001 3.884,0.006 0.81805,0.0273 1.63322,-0.005 2.44636,-0.093 0.70425,-0.1012 1.40919,-0.19187 2.10633,-0.33538 0.68634,-0.17272 1.37997,-0.31605 2.06344,-0.49972 0.60417,-0.19095 1.23524,-0.25361 1.86139,-0.32711 0.66462,-0.085 1.32822,-0.18107 1.98282,-0.32504 0.63054,-0.14789 1.25413,-0.32162 1.88929,-0.44907 0.92471,-0.15608 1.85336,-0.274 2.76366,-0.50385 0.76149,-0.2147 1.51223,-0.46316 2.26549,-0.70435 0.77005,-0.23225 1.56153,-0.38259 2.34766,-0.5488 0.62502,-0.12123 1.24908,-0.24387 1.86604,-0.40153 0.68572,-0.16293 1.37153,-0.32576 2.05672,-0.49092 0.55477,-0.15209 1.1062,-0.31493 1.66398,-0.45631 0.66359,-0.17859 1.35179,-0.20549 2.03295,-0.25889 0.77758,-0.0748 1.54524,-0.21468 2.30839,-0.37776 1.03678,-0.20014 2.05829,-0.46546 3.0732,-0.75499 0.55095,-0.14034 1.07837,-0.3484 1.58698,-0.59996 1.07186,-0.4545 1.85035,-1.04119 2.68459,-1.76062 0.38712,-0.32334 0.78253,-0.63907 1.19114,-0.93534 0.35762,-0.26101 0.73393,-0.49296 1.10019,-0.74104 0.24692,-0.18259 0.49398,-0.36453 0.74724,-0.53847 -0.003,0.001 -10e-4,-2.7e-4 -0.004,5.3e-4 0.47244,-0.25791 0.37552,-0.18831 0.84543,-0.51987 0.0432,-0.0339 0.084,-0.0709 0.1297,-0.10128 0.28029,-0.18645 0.018,0.0249 0.28061,-0.17622 0.15412,-0.11802 0.29543,-0.25283 0.43718,-0.38499 0.41411,-0.40958 0.82603,-0.81992 1.28726,-1.17667 0.4237,-0.34143 0.83057,-0.7031 1.22576,-1.07694 0.30665,-0.28573 0.55676,-0.62561 0.79324,-0.96996 0.25199,-0.40494 0.46462,-0.83203 0.66921,-1.26298 0.22186,-0.43701 0.47811,-0.8576 0.66559,-1.31103 0.10749,-0.32124 0.20378,-0.64462 0.25528,-0.97978 0.0806,-0.34371 0.14021,-0.69173 0.22531,-1.03457 0.0801,-0.40161 0.16475,-0.80233 0.24185,-1.20457 0.0583,-0.35074 0.072,-0.70562 0.077,-1.0604 0.002,-0.34933 0.004,-0.69867 0.005,-1.048 -0.001,-0.32345 -5.3e-4,-0.64702 -0.003,-0.97048 0.009,-0.33093 0.004,-0.65717 -0.0408,-0.98496 -0.0314,-0.30613 -0.0739,-0.60736 -0.15968,-0.9033 -0.10365,-0.33586 -0.21351,-0.67065 -0.33951,-0.99891 -0.10764,-0.3222 -0.22668,-0.64008 -0.38293,-0.94206 -0.21833,-0.4351 -0.51496,-0.82179 -0.77308,-1.23248 -0.20698,-0.30922 -0.36517,-0.64668 -0.55862,-0.96377 -0.22799,-0.32512 -0.47425,-0.63851 -0.73018,-0.94206 -0.3163,-0.36662 -0.64631,-0.71627 -1.01028,-1.03559 -0.33873,-0.2441 -0.62326,-0.55273 -0.94878,-0.81184 -0.29157,-0.24059 -0.60433,-0.45497 -0.93689,-0.63459 -0.31864,-0.16878 -0.64493,-0.31669 -0.98702,-0.43046 -0.64671,-0.20594 -1.29876,-0.39307 -1.95234,-0.57568 -0.44731,-0.11683 -0.88146,-0.27678 -1.32033,-0.42116 -0.30092,-0.0928 -0.61062,-0.15605 -0.92139,-0.20515 -0.49338,-0.0881 -0.99213,-0.13483 -1.48777,-0.20723 -0.37957,-0.0437 -0.7528,-0.1246 -1.12913,-0.1881 -0.4328,-0.0468 -0.86591,-0.0946 -1.29966,-0.13281 -0.50813,-0.0527 -1.01742,-0.10154 -1.51618,-0.21497 -0.32573,-0.0997 -0.65808,-0.16431 -0.99633,-0.20051 -0.35257,-0.0264 -0.70606,-0.0238 -1.05936,-0.0248 -0.33856,-0.0156 -0.67352,-0.0695 -1.01131,-0.0966 -0.36419,-0.0203 -0.72679,-0.0696 -1.08469,-0.13901 -0.48613,-0.0601 -0.95258,-0.19424 -1.41128,-0.36121 -0.33744,-0.097 -0.6459,-0.26757 -0.97152,-0.39274 -0.32786,-0.0976 -0.67042,-0.12228 -1.01028,-0.13798 -0.23819,-0.012 -0.47631,-0.008 -0.71468,-0.006 -0.063,2.9e-4 -0.12609,-2e-4 -0.18913,0 -0.005,0.0112 -0.007,0.0232 -0.0124,0.0341 -0.009,0.0183 -0.0281,0.05 -0.0434,0.078 -0.0284,0.068 -0.0661,0.12941 -0.11317,0.18758 -0.007,0.093 -0.0111,0.18849 0.002,0.24753 0.002,0.0419 0.005,0.12947 0.006,0.20877 2e-5,9.8e-4 -2e-5,0.002 0,0.003 0.20725,0.20999 0.18976,0.18473 0.22582,0.37723 0.10392,0.0127 0.20759,0.0279 0.31006,0.0512 0.33594,0.10082 0.63762,0.30178 0.98341,0.38138 0.46279,0.16542 0.92818,0.33235 1.41955,0.39015 0.36117,0.0721 0.72574,0.13812 1.09347,0.16072 0.34178,0.0209 0.68098,0.063 1.02061,0.10593 0.34887,-0.001 0.69788,-0.003 1.04645,0.014 0.33571,0.0232 0.6679,0.0705 0.99012,0.17156 0.50444,0.12755 1.02268,0.16619 1.53737,0.23409 0.42783,0.0345 0.85207,0.0952 1.27951,0.13126 0.38251,0.0539 0.75766,0.14687 1.14308,0.18087 0.49296,0.0704 0.98911,0.11611 1.47795,0.21291 0.30428,0.0429 0.60301,0.11372 0.90227,0.18242 0.45013,0.13778 0.89477,0.29692 1.35289,0.40721 0.64714,0.17893 1.29214,0.36326 1.92753,0.58136 0.33313,0.11185 0.64903,0.2534 0.9617,0.41392 0.33248,0.15806 0.63834,0.36995 0.92139,0.60462 0.33316,0.24448 0.60762,0.56302 0.95084,0.79685 0.36039,0.30981 0.6832,0.65296 0.99581,1.01079 0.24857,0.29733 0.47567,0.61222 0.7028,0.92604 0.19554,0.31694 0.36141,0.65219 0.57361,0.95912 0.25936,0.40257 0.54871,0.78655 0.75499,1.22111 0.14639,0.29966 0.26041,0.61229 0.37259,0.92604 0.12302,0.32353 0.22943,0.65363 0.32763,0.98547 0.0757,0.28906 0.11159,0.58385 0.14779,0.88005 0.0395,0.31976 0.0325,0.64096 0.0315,0.96273 -0.001,0.32419 -2e-4,0.64835 -5.3e-4,0.97255 0.002,0.34719 0.007,0.69413 -0.002,1.04128 -0.0105,0.34562 -0.0256,0.69246 -0.0904,1.03301 -0.0762,0.39883 -0.15013,0.79862 -0.24133,1.19425 -0.0837,0.34848 -0.15591,0.69916 -0.22841,1.05006 -0.06,0.3188 -0.15291,0.63207 -0.26458,0.93638 -0.19779,0.44469 -0.44582,0.86535 -0.66301,1.30069 -0.20644,0.42395 -0.42057,0.84713 -0.68678,1.23714 -0.24359,0.3334 -0.49877,0.65992 -0.80822,0.93586 -0.39104,0.36667 -0.79246,0.72218 -1.21233,1.05575 -0.45497,0.37571 -0.87141,0.7917 -1.30224,1.19424 -0.23191,0.20132 -0.47895,0.37912 -0.73329,0.54932 -0.33333,0.18951 -0.66048,0.38689 -0.97255,0.61495 -0.24924,0.17901 -0.49878,0.35686 -0.74724,0.53692 -0.35759,0.25156 -0.73901,0.46802 -1.08211,0.74052 -0.4041,0.30555 -0.80588,0.61599 -1.18752,0.9493 -0.11724,0.1014 -0.23556,0.2008 -0.35554,0.29817 -0.25424,0.10279 -0.5138,0.1928 -0.77876,0.26614 -1.00908,0.30808 -2.02944,0.57999 -3.06803,0.76946 -0.75545,0.15357 -1.51204,0.30123 -2.27945,0.38344 -0.68219,0.0589 -1.373,0.0676 -2.04225,0.22789 -0.55813,0.14318 -1.11554,0.2851 -1.66501,0.4594 -0.68548,0.17013 -1.37107,0.33942 -2.06086,0.49145 -0.61815,0.16018 -1.24212,0.29026 -1.86862,0.41341 -0.78904,0.167 -1.58207,0.32106 -2.35955,0.5364 -0.7582,0.23187 -1.50697,0.49537 -2.26859,0.71675 -0.90186,0.24955 -1.82613,0.37608 -2.75074,0.51108 -0.63582,0.10694 -1.25617,0.27252 -1.8805,0.4315 -0.64955,0.16018 -1.31201,0.25311 -1.97404,0.34571 -0.62907,0.0678 -1.26652,0.11517 -1.87482,0.29973 -0.68086,0.19997 -1.37883,0.33252 -2.06448,0.51521 -0.69217,0.15195 -1.39248,0.23959 -2.09238,0.34727 -0.81881,0.0989 -1.63933,0.15317 -2.46496,0.13177 -1.30128,0.007 -2.60287,0.0108 -3.90416,0.009 -1.01262,-0.006 -2.02579,-0.009 -3.03754,-0.0558 -0.66668,-0.0438 -1.32484,-0.14222 -1.98644,-0.23202 -0.88866,-0.12459 -1.77554,-0.25789 -2.65462,-0.43977 -0.80439,-0.15408 -1.59901,-0.35692 -2.39985,-0.52813 -1.0778,-0.22039 -2.14549,-0.48465 -3.22564,-0.69247 -0.93176,-0.18062 -1.85726,-0.38473 -2.77244,-0.63768 -0.75842,-0.22328 -1.51223,-0.46648 -2.28669,-0.62994 -0.57478,-0.12246 -1.14211,-0.28495 -1.72547,-0.36225 -0.58436,-0.0913 -1.17482,-0.14135 -1.76475,-0.18035 -0.66656,-0.0568 -1.33519,-0.0805 -1.99885,-0.16795 -0.73304,-0.10296 -1.46228,-0.23516 -2.2009,-0.29456 -0.61904,-0.0376 -1.23732,-0.0992 -1.85828,-0.0801 -0.51403,0.002 -1.02824,0.009 -1.54151,0.0393 -0.38632,0.0303 -0.76969,0.0958 -1.15807,0.0806 -0.52893,0.004 -1.05803,0.008 -1.58698,0.006 -0.54072,0.002 -1.08143,2.7e-4 -1.62161,0.0284 -0.4625,0.0261 -0.92353,0.0815 -1.38596,0.0946 -0.49779,-0.002 -0.99547,-0.004 -1.49293,-0.0238 -0.65297,-0.0312 -1.30245,-0.0933 -1.95234,-0.16174 -0.74897,-0.0848 -1.49074,-0.22263 -2.23242,-0.35502 -0.75265,-0.15074 -1.5061,-0.29647 -2.25981,-0.4408 -0.4081,-0.0575 -0.81569,-0.11799 -1.21388,-0.22686 -0.54933,-0.09 -1.08925,-0.22605 -1.63091,-0.35295 -0.49276,-0.0973 -0.99203,-0.14331 -1.48569,-0.23461 -0.51152,-0.10884 -1.02025,-0.22112 -1.52342,-0.36484 -0.48754,-0.099 -0.97131,-0.21433 -1.45418,-0.33383 -0.49666,-0.1018 -0.98204,-0.25122 -1.47795,-0.35708 -0.45163,-0.11701 -0.90713,-0.21754 -1.35185,-0.35967 -0.39479,-0.12811 -0.79672,-0.23983 -1.17771,-0.40566 -0.42037,-0.16649 -0.82571,-0.3691 -1.25108,-0.524 -0.41552,-0.15463 -0.83184,-0.30833 -1.24437,-0.47025 -0.44507,-0.17186 -0.89497,-0.33036 -1.34359,-0.49248 -0.68872,-0.25582 -1.382087,-0.49851 -2.057236,-0.78961 -0.527242,-0.21622 -1.076653,-0.33627 -1.618506,-0.5085 -0.375796,-0.10424 -0.758554,-0.17228 -1.138432,-0.25838 -0.530372,-0.14397 -1.069193,-0.25478 -1.601969,-0.39016 -0.806176,-0.20907 -1.606723,-0.43847 -2.414323,-0.64234 -0.605309,-0.15845 -1.202932,-0.3394 -1.803507,-0.5147 -0.45686,-0.12428 -0.908741,-0.26771 -1.364258,-0.39687 -0.527304,-0.13732 -1.056544,-0.26767 -1.576131,-0.43305 -0.57063,-0.17763 -1.126461,-0.40384 -1.683618,-0.61908 -0.430305,-0.17421 -0.862858,-0.34538 -1.273824,-0.56276 -0.245147,-0.1613 -0.500239,-0.30853 -0.720887,-0.50384 -0.285115,-0.26003 -0.579871,-0.51121 -0.829923,-0.80719 -0.238896,-0.22817 -0.483566,-0.45073 -0.718819,-0.68265 -0.220697,-0.25177 -0.448258,-0.49442 -0.640788,-0.76998 -0.190665,-0.25315 -0.379603,-0.51313 -0.51263,-0.80201 -0.118197,-0.26857 -0.250917,-0.52924 -0.378272,-0.79324 -0.114899,-0.27834 -0.236405,-0.55327 -0.328145,-0.84077 -0.123273,-0.32785 -0.238745,-0.65879 -0.346232,-0.99219 -0.09683,-0.30104 -0.174007,-0.60675 -0.232027,-0.91777 -0.0552,-0.33662 -0.143799,-0.66747 -0.169499,-1.00873 -0.02099,-0.32504 -0.0078,-0.65113 -0.0098,-0.97668 -8.99e-4,-0.28221 -0.0014,-0.56428 0.0036,-0.84646 0.0053,-0.27248 0.01509,-0.54557 0.05168,-0.81597 0.04488,-0.32466 0.09962,-0.64764 0.14211,-0.97255 0.06309,-0.30999 0.145586,-0.61589 0.208256,-0.92604 0.05415,-0.26455 0.114543,-0.52718 0.173633,-0.79065 0.06912,-0.2502 0.164896,-0.49284 0.271818,-0.72916 0.104367,-0.2222 0.226022,-0.43489 0.340031,-0.65215 0.122407,-0.19839 0.224424,-0.41117 0.380338,-0.58705 0.153445,-0.21232 0.303834,-0.42584 0.494544,-0.60771 0.196375,-0.19846 0.408389,-0.37951 0.611849,-0.57051 0.19666,-0.16244 0.408591,-0.30556 0.620634,-0.447 0.223137,-0.14423 0.452805,-0.27747 0.67231,-0.42737 0.22719,-0.15607 0.453891,-0.31358 0.675928,-0.47697 0.263969,-0.18646 0.532679,-0.36607 0.792199,-0.55862 0.169764,-0.11348 0.325546,-0.2451 0.494027,-0.36019 0.03535,-0.0112 0.07256,-0.0178 0.104903,-0.0356 0.292966,-0.16197 3.953656,-2.2554 0.230477,-0.12764 0.253921,-0.11514 0.499012,-0.2487 0.746724,-0.37621 0.286211,-0.1338 0.584993,-0.30278 0.877466,-0.47439 0.156453,-0.0811 0.314308,-0.15891 0.482658,-0.21756 0.214261,-0.066 0.424146,-0.16183 0.607198,-0.29145 0.218785,-0.0897 0.426853,-0.19524 0.667143,-0.21704 0.215136,-0.0631 0.413812,-0.17014 0.633036,-0.21704 0.56247,-0.31835 1.125493,-0.63535 1.687236,-0.95498 0.08632,-0.0491 0.164463,-0.11205 0.248563,-0.16485 0.02664,-0.0167 0.107886,-0.0648 0.08062,-0.0491 0.02687,-0.0154 0.185389,-0.10677 0.263033,-0.15142 -0.02545,-0.055 -0.04408,-0.11275 -0.05529,-0.17311 -0.08214,-0.0315 -0.163834,-0.0661 -0.208773,-0.0915 z m 90.128858,1.23248 -0.0248,0.0181 c 0.002,-1e-5 0.004,1e-5 0.006,0 0.006,-0.006 0.0128,-0.012 0.0191,-0.0181 z m -92.089462,0.002 c -0.01063,0.007 -0.01991,0.0145 -0.031,0.0207 -0.02733,0.0151 -0.109703,0.0607 -0.08268,0.045 0.03784,-0.0219 0.07584,-0.0437 0.113688,-0.0656 z m 94.042322,0.0191 c -0.005,-0.002 -0.006,0.003 -0.002,0.0186 5.3e-4,0.002 0.002,0.004 0.003,0.007 0.008,8.5e-4 0.0169,0.002 0.0253,0.003 -0.0117,-0.0152 -0.0213,-0.026 -0.0264,-0.0284 z m -95.415365,0.64647 c 0.04976,-0.0271 -0.143622,0.083 -0.146761,0.0858 -0.01096,0.01 -0.175708,0.10566 -0.513147,0.29869 0.05689,-0.0341 0.115735,-0.0693 0.17105,-0.10232 0.148801,-0.0856 0.201628,-0.11557 0.342097,-0.19637 0.06824,-0.0393 -0.290097,0.16597 -0.328662,0.18811 0.167833,-0.1 0.328781,-0.19402 0.475423,-0.27389 z m -1.232999,0.71159 c -0.05811,0.0329 -0.336799,0.19172 -0.252698,0.14366 0.0049,-0.003 0.184369,-0.10626 0.224276,-0.1292 0.0094,-0.005 0.01902,-0.009 0.02842,-0.0145 z m -2.24069,1.15083 c -0.525201,0.30278 -0.267054,0.15193 -0.02067,0.009 0.0069,-0.003 0.0138,-0.006 0.02067,-0.009 z"
       inkscape:connector-curvature="0" />
  </g>
</svg>
