<?xml version="1.0" encoding="UTF-8" standalone="no"?>
<!-- Created with Inkscape (http://www.inkscape.org/) -->

<svg
   xmlns:dc="http://purl.org/dc/elements/1.1/"
   xmlns:cc="http://creativecommons.org/ns#"
   xmlns:rdf="http://www.w3.org/1999/02/22-rdf-syntax-ns#"
   xmlns:svg="http://www.w3.org/2000/svg"
   xmlns="http://www.w3.org/2000/svg"
   xmlns:xlink="http://www.w3.org/1999/xlink"
   xmlns:sodipodi="http://sodipodi.sourceforge.net/DTD/sodipodi-0.dtd"
   xmlns:inkscape="http://www.inkscape.org/namespaces/inkscape"
   width="136.14209mm"
   height="66.414764mm"
   viewBox="0 0 136.14209 66.414764"
   version="1.1"
   id="svg3790"
   inkscape:version="0.92.4 (f8dce91, 2019-08-02)"
   sodipodi:docname="thePond_3.svg">
  <defs
     id="defs3784">
    <linearGradient
       id="linearGradient3781">
      <stop
         style="stop-color:#b4c700;stop-opacity:1;"
         offset="0"
         id="stop4794" />
      <stop
         style="stop-color:#1ec700;stop-opacity:1;"
         offset="1"
         id="stop4796" />
    </linearGradient>
    <linearGradient
       id="linearGradient3854">
      <stop
         style="stop-color:#ffbe00;stop-opacity:1;"
         offset="0"
         id="stop3856" />
      <stop
         id="stop3860"
         offset="0.5"
         style="stop-color:#ffc895;stop-opacity:1;" />
      <stop
         style="stop-color:#ffffff;stop-opacity:1;"
         offset="1"
         id="stop3858" />
    </linearGradient>
    <linearGradient
       id="linearGradient3781-5">
      <stop
         id="stop3783"
         offset="0"
         style="stop-color:#b4c700;stop-opacity:1;" />
      <stop
         id="stop3785"
         offset="1"
         style="stop-color:#1ec700;stop-opacity:1;" />
    </linearGradient>
    <linearGradient
       id="linearGradient3765">
      <stop
         id="stop3779"
         offset="0"
         style="stop-color:#bcbb00;stop-opacity:0.49803922;" />
      <stop
         id="stop3769"
         offset="1"
         style="stop-color:#b2b700;stop-opacity:1;" />
    </linearGradient>
    <radialGradient
       gradientUnits="userSpaceOnUse"
       gradientTransform="matrix(1.1929256,0,0,1.1892072,-45.876126,-35.071197)"
       r="167.375"
       fy="201.875"
       fx="211.875"
       cy="201.875"
       cx="211.875"
       id="radialGradient3787"
       xlink:href="#linearGradient3781-5" />
    <radialGradient
       gradientUnits="userSpaceOnUse"
       gradientTransform="matrix(1.1929256,0,0,1.1892072,-45.876126,-35.071197)"
       r="167.375"
       fy="201.875"
       fx="211.875"
       cy="201.875"
       cx="211.875"
       id="radialGradient3787-1"
       xlink:href="#linearGradient3781-5" />
    <radialGradient
       gradientUnits="userSpaceOnUse"
       gradientTransform="matrix(1,0,0,1.0333496,0,-3.1554127)"
       r="94.635666"
       fy="94.616302"
       fx="236.89177"
       cy="94.616302"
       cx="236.89177"
       id="radialGradient3852"
       xlink:href="#linearGradient3854" />
    <radialGradient
       r="94.635666"
       fy="94.616302"
       fx="236.89177"
       cy="94.616302"
       cx="236.89177"
       gradientTransform="matrix(1,0,0,1.0333496,71,38.844587)"
       gradientUnits="userSpaceOnUse"
       id="radialGradient3863"
       xlink:href="#linearGradient3854" />
    <radialGradient
       r="94.635666"
       fy="94.616302"
       fx="236.89177"
       cy="94.616302"
       cx="236.89177"
       gradientTransform="matrix(1,0,0,1.0333496,75,36.844587)"
       gradientUnits="userSpaceOnUse"
       id="radialGradient3863-2"
       xlink:href="#linearGradient3854-7" />
    <linearGradient
       id="linearGradient3854-7">
      <stop
         style="stop-color:#ffbe00;stop-opacity:1;"
         offset="0"
         id="stop3856-7" />
      <stop
         id="stop3860-1"
         offset="0.5"
         style="stop-color:#ffb095;stop-opacity:1;" />
      <stop
         style="stop-color:#ffffde;stop-opacity:1;"
         offset="1"
         id="stop3858-2" />
    </linearGradient>
    <radialGradient
       xlink:href="#linearGradient3854-7"
       id="radialGradient3881"
       gradientUnits="userSpaceOnUse"
       gradientTransform="matrix(1,0,0,1.0333496,76.47055,35.77855)"
       cx="236.89177"
       cy="94.616302"
       fx="236.89177"
       fy="94.616302"
       r="94.635666" />
    <radialGradient
       gradientUnits="userSpaceOnUse"
       gradientTransform="matrix(1,0,0,0.96317364,0,3.5315011)"
       r="81.850082"
       fy="95.896019"
       fx="257.21243"
       cy="95.896019"
       cx="257.21243"
       id="radialGradient3913"
       xlink:href="#linearGradient3854-7" />
    <radialGradient
       r="81.850082"
       fy="95.896019"
       fx="257.21243"
       cy="95.896019"
       cx="257.21243"
       gradientTransform="matrix(0.99524277,-0.097426,0.09383816,0.9585916,49.878179,73.886603)"
       gradientUnits="userSpaceOnUse"
       id="radialGradient3916"
       xlink:href="#linearGradient3854-7" />
    <radialGradient
       r="81.850082"
       fy="95.896019"
       fx="257.21243"
       cy="95.896019"
       cx="257.21243"
       gradientTransform="matrix(0.99524277,-0.097426,0.09383816,0.9585916,49.878179,73.886603)"
       gradientUnits="userSpaceOnUse"
       id="radialGradient3916-6"
       xlink:href="#linearGradient3854-7" />
    <radialGradient
       xlink:href="#linearGradient3854-7"
       id="radialGradient3934"
       gradientUnits="userSpaceOnUse"
       gradientTransform="matrix(0.55907512,-0.5222096,0.50297853,0.5384864,126.0489,221.83648)"
       cx="257.21243"
       cy="95.896019"
       fx="257.21243"
       fy="95.896019"
       r="81.850082" />
    <radialGradient
       r="94.635666"
       fy="94.616302"
       fx="236.89177"
       cy="94.616302"
       cx="236.89177"
       gradientTransform="matrix(1,0,0,1.0333496,75,36.844587)"
       gradientUnits="userSpaceOnUse"
       id="radialGradient3863-5"
       xlink:href="#linearGradient3854" />
    <radialGradient
       inkscape:collect="always"
       xlink:href="#linearGradient3781"
       id="radialGradient4792"
       cx="206.875"
       cy="205"
       fx="206.875"
       fy="205"
       r="202.19447"
       gradientTransform="matrix(1,0,0,0.99690892,0,0.63367212)"
       gradientUnits="userSpaceOnUse" />
    <radialGradient
       inkscape:collect="always"
       xlink:href="#linearGradient3781"
       id="radialGradient865"
       gradientUnits="userSpaceOnUse"
       gradientTransform="matrix(1,0,0,0.99690892,0,0.63367212)"
       cx="206.875"
       cy="205"
       fx="206.875"
       fy="205"
       r="202.19447" />
  </defs>
  <sodipodi:namedview
     id="base"
     pagecolor="#ffffff"
     bordercolor="#666666"
     borderopacity="1.0"
     inkscape:pageopacity="0.0"
     inkscape:pageshadow="2"
     inkscape:zoom="2.1028075"
     inkscape:cx="251.35111"
     inkscape:cy="93.713782"
     inkscape:document-units="mm"
     inkscape:current-layer="layer1"
     showgrid="false"
     inkscape:window-width="1850"
     inkscape:window-height="1016"
     inkscape:window-x="70"
     inkscape:window-y="27"
     inkscape:window-maximized="1" />
  <metadata
     id="metadata3787">
    <rdf:RDF>
      <cc:Work
         rdf:about="">
        <dc:format>image/svg+xml</dc:format>
        <dc:type
           rdf:resource="http://purl.org/dc/dcmitype/StillImage" />
        <dc:title></dc:title>
      </cc:Work>
    </rdf:RDF>
  </metadata>
  <g
     inkscape:label="Layer 1"
     inkscape:groupmode="layer"
     id="layer1"
     transform="translate(-73.494838,-106.88034)">
    <path
       id="path3818"
       d="m 96.153908,138.32824 c -0.555532,0.14677 -1.096391,0.3401 -1.620626,0.57434 -0.588483,0.26064 -1.830797,0.96592 0.707417,-0.45553 0.08835,-0.0495 -0.173445,0.10462 -0.258834,0.15905 -0.159772,0.10186 -0.316296,0.20873 -0.475065,0.31214 -0.08131,0.05 -0.161285,0.10232 -0.24393,0.15012 -0.603364,0.34899 -1.207111,0.69736 -1.813996,1.04019 -0.295461,0.16691 -0.614035,0.29566 -0.914726,0.45336 -0.390062,0.22435 -0.79158,0.42484 -1.201735,0.60982 -0.176006,0.0605 -0.34286,0.14082 -0.504994,0.23142 -0.04515,0.0252 -0.17926,0.1033 -0.134398,0.0776 1.510387,-0.86659 1.946281,-1.16078 1.356231,-0.76767 -0.363035,0.25805 -0.572199,0.66413 -0.741686,1.06438 -0.229163,0.7013 -0.0728,1.32133 0.191921,1.98266 0.413372,0.87671 1.134914,1.53179 1.842119,2.1701 1.074859,0.95422 2.149213,1.90891 3.203792,2.88556 1.020085,0.96318 2.157688,1.78768 3.397639,2.44528 0.328729,0.17434 0.667187,0.32968 1.000779,0.49452 2.801004,1.21247 5.722334,2.12543 8.659114,2.94395 2.60443,0.70493 5.25263,1.23794 7.91582,1.66464 2.41179,0.31989 4.85636,0.26456 7.28416,0.27054 3.36457,0.0279 6.71371,0.36032 10.04186,0.83181 2.55064,0.36981 5.08521,0.83971 7.64331,1.15677 2.29997,0.2328 4.61528,0.33847 6.92702,0.28736 0.50654,-0.0112 1.01259,-0.0386 1.51888,-0.0579 2.86428,-0.18257 5.72937,-0.34304 8.59777,-0.44304 1.42232,-0.0497 2.84677,-0.0461 4.26796,-0.12849 0.90191,-0.0523 1.29698,-0.099 2.21248,-0.18622 2.8265,-0.25738 5.64514,-0.5867 8.45981,-0.9493 2.24716,-0.29587 4.49427,-0.58898 6.72884,-0.96952 1.08648,-0.19119 2.16346,-0.44534 3.20249,-0.8199 0.52691,-0.18994 0.82913,-0.33406 1.34045,-0.55989 -0.38882,0.25401 1.73995,-0.93567 1.30417,-0.70323 -0.28541,0.15224 -0.53885,0.37539 -0.84709,0.47348 -0.25286,0.0805 0.44998,-0.28138 0.67669,-0.41926 0.91502,-0.55647 2.0154,-1.17519 2.87383,-1.66965 0.78732,-0.45523 1.57725,-0.9059 2.36613,-1.35841 0.16901,-0.0969 0.67712,-0.38576 0.5062,-0.29222 -0.35957,0.19677 -0.71483,0.40133 -1.07224,0.60199 0.76552,-0.47339 1.47887,-1.04905 1.98241,-1.80471 0.092,-0.138 0.16781,-0.28608 0.25171,-0.42912 0.2583,-0.53262 0.4441,-1.11188 0.47222,-1.70743 0.0163,-0.34455 -0.0184,-0.50064 -0.0614,-0.84113 -0.19989,-1.03422 -0.6964,-1.97015 -1.27241,-2.83989 -0.78642,-1.08879 -1.82412,-1.93669 -2.94057,-2.66479 -0.83869,-0.49276 -1.6904,-0.99372 -2.60844,-1.3277 -0.18215,-0.0663 -0.36918,-0.11828 -0.55377,-0.17743 -0.95344,-0.2772 -1.94455,-0.35162 -2.9317,-0.38508 -0.48493,-0.009 -0.24967,-0.006 -0.70579,-0.008 0,0 1.49032,-1.08007 1.49032,-1.08007 v 0 c 0.45193,0.009 0.21838,0.003 0.70064,0.0186 0.99134,0.0531 1.98578,0.14345 2.93879,0.44068 0.18732,0.0628 0.37704,0.11879 0.56197,0.18829 0.92228,0.34657 1.78129,0.84984 2.61835,1.36254 1.12599,0.75484 2.17919,1.61887 2.98439,2.72188 0.11393,0.16956 0.23497,0.33456 0.3418,0.50868 0.45166,0.73617 0.80069,1.54956 0.99225,2.39147 0.0471,0.3351 0.0898,0.53905 0.0813,0.87967 -0.0153,0.61655 -0.19955,1.22179 -0.44982,1.7798 -0.0824,0.14964 -0.15661,0.3041 -0.2472,0.44894 -0.48688,0.77843 -1.18632,1.3873 -1.95874,1.87122 -1.61648,0.95128 -3.23697,1.89486 -4.86852,2.82009 0.28309,-0.16517 0.56234,-0.3371 0.84925,-0.49552 0.23272,-0.1285 -0.4594,0.26769 -0.6866,0.40571 -1.37438,0.83497 -2.73692,1.69883 -4.18746,2.39753 -0.55261,0.23727 -0.77758,0.34572 -1.34678,0.54259 -1.03945,0.3595 -2.11435,0.60025 -3.19755,0.7835 -2.21911,0.36314 -4.4502,0.64038 -6.68053,0.925 -2.82603,0.35594 -5.65565,0.68017 -8.48977,0.96525 -0.97176,0.0962 -1.28303,0.13788 -2.23626,0.19203 -1.41236,0.0802 -2.82753,0.0635 -4.24101,0.10657 -2.85841,0.0846 -5.71295,0.24146 -8.56686,0.42142 -2.83378,0.10161 -5.67414,0.0874 -8.49615,-0.22669 -2.54944,-0.31628 -5.07145,-0.80551 -7.61212,-1.18281 -3.31796,-0.48364 -6.6579,-0.82848 -10.01553,-0.82109 -2.45592,0.0142 -4.93234,0.11368 -7.37011,-0.2442 -2.63957,-0.46176 -5.26203,-1.0299 -7.84813,-1.73341 -2.96008,-0.82474 -5.90504,-1.73742 -8.742004,-2.92533 -0.340731,-0.16447 -0.686483,-0.31892 -1.022194,-0.4934 -1.260745,-0.65526 -2.419281,-1.48215 -3.448891,-2.46092 -1.055513,-0.9773 -2.132971,-1.92997 -3.220609,-2.87136 -0.736886,-0.65129 -1.478,-1.32348 -1.909067,-2.2266 -0.286451,-0.69182 -0.465796,-1.35351 -0.266684,-2.09983 0.144521,-0.41779 0.348208,-0.85106 0.67926,-1.15372 0.740754,-0.58749 1.608325,-1.01101 2.474206,-1.38483 0.405175,-0.18877 0.798449,-0.3997 1.19159,-0.61208 0.227142,-0.11365 0.456904,-0.2221 0.683192,-0.33743 0.07592,-0.0387 0.299836,-0.16194 0.226591,-0.11838 -0.365439,0.21732 -1.991375,1.16409 -1.103302,0.64007 1.037421,-0.65155 2.057866,-1.34696 3.190799,-1.82669 0.539226,-0.22559 1.093626,-0.40457 1.649113,-0.58512 0,0 -1.471742,1.15216 -1.471742,1.15216 z"
       inkscape:connector-curvature="0"
       style="stroke-width:0.26458332;fill:#000033;fill-opacity:1" />
    <path
       id="path3820"
       d="m 121.62314,147.86179 c -0.0206,0.45472 -0.0253,0.90409 0.0912,1.34607 0.139,0.52258 0.52302,0.8817 0.89814,1.24533 0.77444,0.63374 1.65552,1.12683 2.54088,1.58696 1.10294,0.58514 2.26447,1.03335 3.4513,1.41357 1.38658,0.41548 2.7809,0.80488 4.17032,1.21106 1.48118,0.41892 2.97209,0.80234 4.47331,1.14232 1.78508,0.36867 3.6123,0.45151 5.42991,0.47145 1.8902,-0.0284 3.75995,-0.34142 5.6056,-0.72784 1.57074,-0.31194 3.09172,-0.82132 4.60117,-1.34723 0.82784,-0.31008 1.66605,-0.60988 2.4478,-1.02757 0.16088,-0.086 0.63404,-0.36083 0.47322,-0.27476 -0.37871,0.20268 -0.75138,0.41646 -1.12707,0.62469 0.71519,-0.49096 1.22447,-1.00793 1.61803,-1.78069 0.29229,-0.67145 0.24952,-1.38673 0.15843,-2.0948 -0.10008,-0.60056 -0.40356,-1.1123 -0.73748,-1.60812 -0.23654,-0.32897 -0.55377,-0.58428 -0.86751,-0.83551 0,0 1.58321,-0.99065 1.58321,-0.99065 v 0 c 0.31721,0.27195 0.63738,0.54645 0.87879,0.89139 0.34728,0.52137 0.65745,1.06096 0.76775,1.6881 0.0987,0.7352 0.1583,1.48006 -0.10905,2.1899 -0.3787,0.81558 -0.86966,1.35437 -1.60034,1.88095 -0.81316,0.48339 -1.6057,1.0053 -2.44866,1.43463 -0.78399,0.3993 -1.61681,0.69324 -2.44102,0.99569 -1.50965,0.51887 -3.03126,1.01762 -4.6021,1.31868 -1.85219,0.37131 -3.72635,0.67581 -5.62032,0.69154 -1.83039,-0.03 -3.67123,-0.11388 -5.46814,-0.4897 -1.5056,-0.34351 -3.0026,-0.72414 -4.48858,-1.14487 -1.39191,-0.40538 -2.78744,-0.79826 -4.17667,-1.21252 -1.19729,-0.38545 -2.37077,-0.83592 -3.48245,-1.4297 -0.90093,-0.47361 -1.80356,-0.96831 -2.59518,-1.61329 -0.40505,-0.38273 -0.80844,-0.76836 -0.96451,-1.32209 -0.12935,-0.45525 -0.12862,-0.91412 -0.1245,-1.38488 0,0 1.6645,-0.84811 1.6645,-0.84811 z"
       inkscape:connector-curvature="0"
       style="stroke-width:0.26458332;fill:#000033;fill-opacity:1" />
    <path
       id="path3822"
       d="m 91.715226,133.47473 c -0.775253,-0.0111 -1.550812,-0.0248 -2.325745,0.003 -1.005795,0.033 -2.004259,0.17857 -2.999619,0.31897 -1.1895,0.17007 -2.370846,0.38764 -3.540902,0.66056 -0.855642,0.18478 -1.657268,0.53636 -2.447319,0.90252 -0.538843,0.30373 -1.90259,1.02296 0.560511,-0.33144 0.11924,-0.0656 -0.23133,0.14338 -0.34622,0.2163 -0.263837,0.16744 -0.450765,0.29166 -0.712542,0.46355 -0.688887,0.46007 -1.32308,0.9954 -1.941634,1.54471 -0.491294,0.44898 -0.960403,0.91924 -1.380384,1.43564 -0.578702,0.76096 -0.893881,1.65987 -1.158377,2.56683 -0.248375,0.84382 -0.320546,1.7081 -0.292365,2.58238 0.08926,1.188 0.499885,2.30368 0.977347,3.38312 0.106579,0.20705 0.208052,0.41681 0.319736,0.62116 0.2277,0.41661 0.578493,0.98592 0.814885,1.3883 0.497271,0.84646 0.988636,1.69652 1.484624,2.54375 0.931291,1.56738 1.950524,3.08413 3.104743,4.49701 0.253881,0.31077 0.519985,0.61136 0.779978,0.91705 1.696186,1.87864 3.689133,3.47697 5.837272,4.81146 0.532164,0.3306 1.082924,0.63028 1.624388,0.94542 1.632604,0.91413 3.344373,1.67498 5.084236,2.35885 0.873567,0.34336 1.969717,0.75699 2.892018,0.98007 0.455805,0.11025 0.922721,0.16803 1.38408,0.25204 0.494856,0.0375 0.988633,0.0943 1.484573,0.1124 2.09664,0.0765 4.20688,-0.0779 6.30132,-0.14213 3.23668,-0.0992 2.3971,-0.0736 5.69419,-0.0788 4.96371,0.0349 9.893,0.71387 14.76594,1.61448 0.99063,0.18309 1.9769,0.38902 2.96535,0.58354 4.35385,0.89918 8.65388,2.04213 13.00381,2.95835 0.63957,0.13472 1.28284,0.25124 1.92426,0.37685 2.76525,0.48943 5.57996,0.43362 8.37402,0.33598 0.45718,-0.016 5.79206,-0.2499 6.10483,-0.26356 5.58633,-0.26949 11.17796,-0.38937 16.76711,-0.57931 3.07366,-0.15889 6.16519,-0.18881 9.2226,-0.57797 0.51142,-0.0651 1.01945,-0.15451 1.52917,-0.23177 1.26765,-0.25679 2.56412,-0.46374 3.77299,-0.94593 0.33292,-0.1328 0.64477,-0.31346 0.97075,-0.46251 0.19581,-0.0895 -0.71832,0.44909 -0.58019,0.28393 0.24205,-0.28943 0.60531,-0.45058 0.90796,-0.67587 2.24932,-1.80008 4.22186,-3.90887 6.2355,-5.96054 1.6885,-1.6987 3.37131,-3.40241 4.95849,-5.19683 0.80251,-0.93466 1.51658,-1.93975 2.24563,-2.93147 0.45587,-0.60569 0.86423,-1.24301 1.2411,-1.90004 0.49186,-0.85095 0.59678,-1.82252 0.67946,-2.78238 0.0646,-0.9651 -0.0147,-1.9262 -0.18779,-2.87534 -0.13341,-0.61954 -0.25134,-1.24176 -0.39017,-1.86013 -0.27939,-1.04518 -0.58415,-2.08718 -0.95626,-3.10373 -0.29127,-0.79569 -0.4286,-1.07621 -0.76989,-1.85578 -0.77215,-1.67935 -1.76504,-3.25111 -2.92262,-4.69107 -0.23403,-0.29112 -0.48191,-0.57082 -0.72286,-0.85623 -1.24741,-1.36068 -2.56973,-2.68335 -4.07695,-3.75973 -0.26307,-0.18787 -0.54015,-0.35531 -0.81023,-0.53296 -1.26398,-0.79476 -2.70372,-1.09166 -4.15174,-1.33654 -1.45724,-0.19994 -2.92985,-0.26736 -4.39822,-0.33426 -1.17244,-0.0705 -2.34592,-0.0264 -3.51911,-0.0238 0,0 1.45219,-1.05533 1.45219,-1.05533 v 0 c 1.17106,9e-5 2.34261,-0.0336 3.51263,0.039 1.47525,0.0709 2.9554,0.1365 4.41857,0.34658 1.47677,0.25429 2.88358,0.58541 4.15879,1.42138 0.26934,0.18307 0.54547,0.35652 0.80801,0.5492 1.50098,1.10158 2.83312,2.4266 4.08665,3.7963 0.24237,0.2878 0.49178,0.56981 0.72711,0.86339 1.16393,1.45202 2.16316,3.0355 2.95619,4.71929 0.3441,0.77775 0.48723,1.07087 0.78512,1.86373 0.38107,1.01423 0.69833,2.05241 1.02567,3.08468 0.16323,0.61631 0.30172,1.23577 0.40552,1.86514 0.16779,0.96751 0.2395,1.94644 0.18616,2.92857 -0.072,0.97307 -0.15341,1.96487 -0.62032,2.84252 -0.37583,0.6662 -0.77802,1.31589 -1.24289,1.92483 -0.7489,1.00421 -1.48703,2.0186 -2.30047,2.97214 -1.61389,1.80987 -3.32589,3.52562 -5.03987,5.24021 -2.00457,2.03809 -3.95154,4.14751 -6.16906,5.96043 -0.29826,0.22893 -0.57829,0.4838 -0.89477,0.68679 -0.903,0.5792 -2.24021,1.43684 -3.37208,1.86344 -1.20412,0.45383 -2.48839,0.64352 -3.74399,0.88899 -0.5081,0.0729 -1.01465,0.15756 -1.5243,0.21864 -3.03747,0.36404 -6.10583,0.38098 -9.15792,0.51619 -5.55272,0.14476 -11.10807,0.21518 -16.65627,0.50126 -2.05894,0.10309 -4.11716,0.22122 -6.17662,0.31338 -2.82576,0.12645 -5.67574,0.2316 -8.46941,-0.31277 -4.95331,-1.05564 -9.84591,-2.3784 -14.80252,-3.42132 -0.98659,-0.19438 -1.97078,-0.40137 -2.95978,-0.58314 -4.87284,-0.89559 -9.80526,-1.54976 -14.76686,-1.58254 -3.3237,0.0195 -2.46548,-0.0151 -5.74021,0.1193 -0.87261,0.0358 -3.67483,0.17993 -4.64586,0.20282 -0.59317,0.014 -1.18702,0.0266 -1.779992,0.006 -0.503047,-0.0175 -1.003509,-0.0801 -1.505265,-0.12013 -0.463626,-0.0903 -0.933375,-0.15339 -1.390877,-0.27081 -0.922938,-0.23689 -1.985563,-0.66509 -2.859564,-1.02052 -1.735039,-0.7056 -3.447272,-1.47134 -5.085053,-2.38372 -0.547913,-0.31478 -1.10489,-0.61428 -1.643737,-0.94433 -2.176333,-1.33304 -4.20419,-2.92578 -5.930046,-4.80957 -1.456595,-1.70962 -2.80343,-3.47356 -3.924046,-5.42578 -0.498385,-0.84485 -0.99347,-1.69205 -1.502608,-2.53049 -0.274114,-0.4514 -0.581575,-0.92517 -0.839409,-1.38796 -0.115023,-0.20646 -0.218602,-0.41908 -0.327904,-0.62862 -0.491212,-1.09392 -0.919451,-2.22381 -1.04005,-3.42686 -0.04581,-0.89394 0.0258,-1.77502 0.27605,-2.6394 0.258128,-0.91871 0.558147,-1.83289 1.110239,-2.62344 0.410097,-0.53132 0.871834,-1.01146 1.367994,-1.46395 0.61577,-0.56044 1.258255,-1.09511 1.940171,-1.5736 1.174134,-0.77735 2.373731,-1.52178 3.633793,-2.15271 0.789945,-0.36009 1.598583,-0.68342 2.45251,-0.85886 1.174276,-0.26116 2.358443,-0.47296 3.548708,-0.64764 1.001998,-0.14311 2.007513,-0.28514 3.020838,-0.30996 0.789347,-0.0214 1.578959,-0.0115 2.368439,-0.027 0,0 -1.511335,1.09805 -1.511335,1.09805 z"
       inkscape:connector-curvature="0"
       style="stroke-width:0.26458332;fill:#000033;fill-opacity:1" />
    <text
       xml:space="preserve"
       style="font-style:normal;font-variant:normal;font-weight:bold;font-stretch:normal;font-size:15.05960083px;line-height:1.25;font-family:'Amatic SC';-inkscape-font-specification:'Amatic SC Bold';letter-spacing:0px;word-spacing:0px;fill:#164016;fill-opacity:1;stroke:none;stroke-width:0.37648997"
       x="79.801178"
       y="171.23863"
       id="text84"
       transform="scale(1.1816755,0.84625602)"><tspan
         sodipodi:role="line"
         id="tspan82"
         x="79.801178"
         y="171.23863"
         style="font-style:normal;font-variant:normal;font-weight:bold;font-stretch:normal;font-size:32.12714767px;font-family:'Amatic SC';-inkscape-font-specification:'Amatic SC Bold';fill:#164016;fill-opacity:1;stroke-width:0.37648997">theP  nd</tspan></text>
    <g
       id="g255"
       transform="matrix(0.0417766,0,0,0.0417766,136.19625,127.3947)">
      <g
         style="display:inline;fill:#164016;fill-opacity:1"
         id="layer2">
        <path
           id="path2994-9"
           d="m 416.06947,213.25 c 0,109.59786 -89.12643,198.44447 -199.06947,198.44447 -27.48575,0 -53.67048,-5.55291 -77.48682,-15.59474 -11.90818,-5.02091 63.26286,-133.975 52.6723,-141.10737 C 181.59491,247.85998 85.24274,362.54928 76.23663,353.57143 40.212138,317.66004 17.930529,268.04893 17.930529,213.25 17.930529,103.65215 107.05696,14.80553 217,14.80553 c 109.94304,0 199.06947,88.84662 199.06947,198.44447 z"
           style="fill:#164016;fill-opacity:1;stroke:none"
           inkscape:connector-curvature="0" />
      </g>
      <g
         style="display:inline;fill:url(#radialGradient4792);fill-opacity:1"
         id="layer1-4">
        <path
           id="path2994"
           d="m 405.94447,205 c 0,109.59786 -89.12643,198.44447 -199.06947,198.44447 -27.48575,0 -53.67048,-5.55291 -77.48682,-15.59474 -11.90818,-5.02091 63.26286,-133.975 52.6723,-141.10737 C 171.46991,239.60998 75.117742,354.29928 66.111624,345.32143 30.087137,309.41004 7.8055275,259.79893 7.8055275,205 7.8055275,95.402145 96.931963,6.5555275 206.875,6.5555275 316.81804,6.5555275 405.94447,95.402145 405.94447,205 Z"
           style="fill:url(#radialGradient865);fill-opacity:1;stroke:#008200;stroke-width:6.25;stroke-miterlimit:4;stroke-dasharray:none;stroke-opacity:1"
           inkscape:connector-curvature="0" />
      </g>
      <g
         style="display:inline"
         id="layer4">
        <path
           id="path3844"
           d="m 394.75,202 c -14.11139,17.43172 -65.63061,-14.81854 -65.63061,-14.81854 0,0 -28.47494,53.6981 -49.41415,45.66407 -20.93921,-8.03403 -6.18771,-66.9976 -6.18771,-66.9976 0,0 -59.86918,-10.48764 -58.69893,-32.88467 1.17025,-22.39703 61.8064,-26.58826 61.8064,-26.58826 0,0 -8.52624,-60.179832 13.13622,-65.987921 21.66246,-5.808089 44.38616,50.565155 44.38616,50.565155 0,0 54.59967,-26.70553 66.81756,-7.898101 12.21789,18.807427 -34.37424,57.839237 -34.37424,57.839237 0,0 42.27069,43.67491 28.1593,61.10663 z"
           style="display:inline;fill:url(#radialGradient3863);fill-opacity:1;stroke:#cc756c;stroke-width:6.25;stroke-miterlimit:4;stroke-dasharray:none;stroke-opacity:1"
           inkscape:connector-curvature="0" />
        <path
           id="path3905"
           d="m 396.32809,148.83341 c -3.34227,18.39826 -53.93266,15.43592 -53.93266,15.43592 0,0 0.67108,50.6726 -17.85952,53.17928 -18.5306,2.50669 -31.34654,-46.52305 -31.34654,-46.52305 0,0 -47.98514,16.29694 -56.0954,-0.5521 -8.11027,-16.84905 34.55944,-44.18874 34.55944,-44.18874 0,0 -30.32753,-40.600544 -16.80935,-53.520511 13.51817,-12.919968 52.70544,19.21291 52.70544,19.21291 0,0 29.24168,-41.389452 45.70665,-32.525392 16.46497,8.864059 -1.98568,56.062963 -1.98568,56.062963 0,0 48.39989,15.02046 45.05762,33.41872 z"
           style="fill:url(#radialGradient3916);fill-opacity:1;stroke:#cc756c;stroke-width:6.25;stroke-miterlimit:4;stroke-dasharray:none;stroke-opacity:1"
           inkscape:connector-curvature="0" />
        <path
           id="path3905-4"
           d="m 371.31476,106.16288 c 6.53017,12.72814 -25.57121,34.46667 -25.57121,34.46667 0,0 23.98331,30.46084 13.89607,40.60462 -10.08724,10.14377 -40.68168,-13.6689 -40.68168,-13.6689 0,0 -21.55875,32.22242 -34.32317,25.76349 -12.76445,-6.45893 0.42858,-42.91449 0.42858,-42.91449 0,0 -37.30737,-10.54631 -35.10899,-24.68193 2.19837,-14.13562 40.94654,-12.85372 40.94654,-12.85372 0,0 -1.49848,-38.74038 12.62464,-41.01775 14.12311,-2.277364 24.87779,34.97046 24.87779,34.97046 0,0 36.38124,-13.396574 42.91143,-0.66845 z"
           style="display:inline;fill:url(#radialGradient3934);fill-opacity:1;stroke:#cc756c;stroke-width:6.25;stroke-miterlimit:4;stroke-dasharray:none;stroke-opacity:1"
           inkscape:connector-curvature="0" />
      </g>
    </g>
  </g>
</svg>
