<?xml version="1.0" encoding="UTF-8" standalone="no"?>
<!-- Created with Inkscape (http://www.inkscape.org/) -->

<svg
   xmlns:dc="http://purl.org/dc/elements/1.1/"
   xmlns:cc="http://creativecommons.org/ns#"
   xmlns:rdf="http://www.w3.org/1999/02/22-rdf-syntax-ns#"
   xmlns:svg="http://www.w3.org/2000/svg"
   xmlns="http://www.w3.org/2000/svg"
   xmlns:sodipodi="http://sodipodi.sourceforge.net/DTD/sodipodi-0.dtd"
   xmlns:inkscape="http://www.inkscape.org/namespaces/inkscape"
   width="136.14209mm"
   height="66.414764mm"
   viewBox="0 0 136.14209 66.414764"
   version="1.1"
   id="svg3790"
   inkscape:version="0.92.4 (f8dce91, 2019-08-02)"
   sodipodi:docname="thePond.svg">
  <defs
     id="defs3784" />
  <sodipodi:namedview
     id="base"
     pagecolor="#ffffff"
     bordercolor="#666666"
     borderopacity="1.0"
     inkscape:pageopacity="0.0"
     inkscape:pageshadow="2"
     inkscape:zoom="2.1028075"
     inkscape:cx="334.02012"
     inkscape:cy="93.713782"
     inkscape:document-units="mm"
     inkscape:current-layer="layer1"
     showgrid="false"
     inkscape:window-width="1850"
     inkscape:window-height="1016"
     inkscape:window-x="70"
     inkscape:window-y="27"
     inkscape:window-maximized="1" />
  <metadata
     id="metadata3787">
    <rdf:RDF>
      <cc:Work
         rdf:about="">
        <dc:format>image/svg+xml</dc:format>
        <dc:type
           rdf:resource="http://purl.org/dc/dcmitype/StillImage" />
        <dc:title></dc:title>
      </cc:Work>
    </rdf:RDF>
  </metadata>
  <g
     inkscape:label="Layer 1"
     inkscape:groupmode="layer"
     id="layer1"
     transform="translate(-73.494838,-106.88034)">
    <path
       id="path3800"
       d="m 105.75887,110.6272 c -0.22799,1.36829 -0.35912,2.74943 -0.49279,4.12929 -0.19382,2.35169 -0.36684,4.70505 -0.53878,7.05843 -0.17213,2.80591 -0.48175,5.59955 -0.80726,8.39096 -0.27187,2.37837 -0.61571,4.74766 -0.90884,7.12332 -0.1613,1.2292 -0.29981,2.46139 -0.37004,3.69935 -0.0212,0.36825 -0.0237,0.737 -0.0211,1.1057 0.002,0.084 0.003,0.16806 0.005,0.25209 0,0 -1.67134,0.85398 -1.67134,0.85398 v 0 c -5e-5,-0.0854 -0.001,-0.1707 -2.7e-4,-0.25605 5.3e-4,-0.3786 0.0182,-0.75703 0.0479,-1.13445 0.10523,-1.25398 0.26353,-2.50232 0.44405,-3.74759 0.31794,-2.38553 0.68255,-4.76476 0.97476,-7.15376 0.32605,-2.78235 0.61358,-5.5701 0.77698,-8.36735 0.16371,-2.34878 0.34918,-4.69593 0.50403,-7.04533 0.12259,-1.36019 0.24141,-2.72078 0.38449,-4.07901 0,0 1.67367,-0.82958 1.67367,-0.82958 z"
       inkscape:connector-curvature="0"
       style="stroke-width:0.26458332" />
    <path
       id="path3802"
       d="m 98.921079,130.55164 c 0.654288,-0.17045 1.292761,-0.39312 1.908551,-0.67171 0.19511,-0.0874 0.30068,-0.13002 0.48534,-0.22963 0.0659,-0.0355 0.259,-0.15024 0.19408,-0.11297 -0.4671,0.26824 -0.93346,0.53779 -1.40066,0.80586 -0.0643,0.0369 0.12783,-0.0752 0.19204,-0.11237 0.5956,-0.34433 1.1916,-0.68799 1.7874,-1.03199 0.68097,-0.34381 2.5971,-1.46127 -0.22888,0.1619 3.65393,-2.11315 1.24145,-0.71654 0.35578,-0.20915 -0.0473,0.0271 0.0935,-0.0558 0.13988,-0.0844 0.10822,-0.0667 0.21259,-0.13815 0.31716,-0.21038 0.64876,-0.39626 1.26992,-1.01805 2.0601,-1.01886 0.0194,-2e-5 0.0396,0.005 0.0583,-6e-5 0.0572,-0.017 0.10397,-0.0762 0.15082,-0.10755 0.0228,-0.0153 0.0976,-0.0501 0.0739,-0.0363 -0.50576,0.29307 -1.0134,0.5829 -1.5201,0.87436 0.74851,-0.40331 1.47442,-0.96779 2.31656,-1.19462 0.18434,-0.0439 0.36276,-0.1058 0.55043,-0.14146 0.15225,-0.0202 0.30593,-0.0189 0.45918,-0.0186 0.1308,-2.7e-4 0.2616,10e-4 0.3924,5.3e-4 0,0 -1.52136,1.10445 -1.52136,1.10445 v 0 c -0.12918,-0.002 -0.25838,-0.002 -0.38757,1.5e-4 -0.14657,0.004 -0.29381,0.0112 -0.43651,0.0483 -0.18138,0.0443 -0.35763,0.10712 -0.53915,0.15088 -0.69826,0.22929 -1.88308,0.98867 0.91359,-0.62446 -0.56293,0.32546 -1.1259,0.65083 -1.68878,0.97636 -0.10696,0.0619 -0.20904,0.0874 -0.33289,0.0837 -0.65224,0.10451 -1.65624,1.01461 1.19669,-0.77248 -0.16343,0.0891 -0.3066,0.20822 -0.46783,0.30204 -0.21762,0.12665 -3.94094,2.28336 -0.36207,0.2102 -0.97611,0.56734 -1.94462,1.14268 -2.94098,1.67234 0.46201,-0.26704 0.92368,-0.53465 1.38602,-0.8011 0.0641,-0.0369 -0.12723,0.0755 -0.19126,0.11253 -0.81002,0.46835 -1.59161,0.98467 -2.455644,1.34562 -0.631676,0.26543 -1.281784,0.48048 -1.941988,0.6637 0,0 1.477491,-1.13477 1.477491,-1.13477 z"
       inkscape:connector-curvature="0"
       style="stroke-width:0.26458332" />
    <path
       id="path3804"
       d="m 111.65302,117.42729 c -0.28057,0.77135 -0.50349,1.56246 -0.68488,2.36247 -0.26654,1.31829 -0.39663,2.65963 -0.48928,3.9999 -0.0956,1.31755 -0.0468,2.63859 -0.0192,3.95756 0.0222,1.27788 0.067,2.55602 0.0464,3.83413 0.005,0.86998 -0.1242,1.72985 -0.23821,2.58958 -0.0438,0.32353 -0.0744,0.64859 -0.0892,0.97468 0.007,0.16465 -0.009,0.31749 -0.0598,0.47392 -0.11025,0.27655 -0.22762,0.55012 -0.31833,0.83384 -0.0906,0.36082 -0.12009,0.73236 -0.19476,1.09669 -0.13825,0.56831 -0.24314,1.14303 -0.34279,1.7191 -0.1444,0.79413 -0.28019,1.58973 -0.42598,2.38362 -0.0764,0.41542 -0.13244,0.83436 -0.16297,1.25561 -0.15947,-0.6109 0.0511,0.16438 -1.64945,0.74338 -0.0713,0.0243 0.0301,-0.14755 0.0425,-0.22179 0.0172,-0.10268 0.0309,-0.20592 0.0463,-0.30888 0.0729,-0.48633 0.038,-0.24662 0.10756,-0.74011 0.10592,-0.70014 0.2283,-1.39744 0.38059,-2.08898 0.17881,-0.94769 0.50967,-1.84661 0.88552,-2.73098 0.36547,-0.88395 0.85382,-1.70296 1.42943,-2.46413 0.32185,-0.38092 0.63257,-0.77282 0.96719,-1.14281 0.67969,-0.65417 1.54412,-1.11857 2.42999,-1.43799 0.4288,-0.15739 0.8851,-0.20619 1.33751,-0.24015 0.35616,-0.008 0.71834,-0.0583 1.07234,-0.005 0.55724,0.20638 0.69914,0.80751 0.81951,1.3277 0.1249,0.67966 0.15215,1.37133 0.16669,2.06059 0.0349,0.57914 -0.0926,1.14617 -0.19779,1.71142 -0.16033,0.84656 -0.29084,1.69855 -0.42923,2.54892 -0.10378,0.6956 -0.23626,1.38636 -0.32241,2.08454 -0.015,0.2315 -0.0619,0.46623 -0.0425,0.69891 0.0215,0.095 0.006,0.052 0.0437,0.13006 0,0 -1.63004,0.92822 -1.63004,0.92822 v 0 c -0.0597,-0.11728 -0.0371,-0.0579 -0.0701,-0.17729 -0.0587,-0.24761 0.0208,-0.51071 0.0369,-0.76001 0.0966,-0.70504 0.24309,-1.40143 0.35046,-2.10475 0.13725,-0.84692 0.26113,-1.69611 0.40677,-2.54153 0.0971,-0.55526 0.23507,-1.11059 0.21153,-1.67831 -0.007,-0.67851 -0.0205,-1.36042 -0.14112,-2.03012 -0.10007,-0.4361 -0.2071,-1.01525 -0.72384,-1.1166 -0.34715,-0.0173 -0.69548,0.003 -1.04193,0.0262 -0.44718,0.0444 -0.89429,0.11018 -1.31119,0.28746 -0.61301,0.26263 -1.42284,0.7935 1.13913,-0.70327 0.16555,-0.0967 -0.53545,0.29631 -0.38515,0.27579 -0.3645,0.34835 -0.65408,0.77015 -1.00173,1.135 -0.59306,0.74519 -1.10392,1.54899 -1.47035,2.43166 -0.3769,0.86843 -0.70681,1.75212 -0.87481,2.68776 -0.15083,0.68859 -0.28173,1.38095 -0.39012,2.07753 -0.0471,0.3475 -0.0924,0.69427 -0.1321,1.04263 -0.008,0.0721 0.0319,0.17427 -0.0275,0.21594 -1.63916,1.14991 -1.4483,1.58052 -1.70462,0.9152 0.0331,-0.43296 0.10738,-0.86158 0.1827,-1.28882 0.15595,-0.79198 0.29689,-1.58642 0.4315,-2.38222 0.0954,-0.57369 0.17909,-1.14948 0.31521,-1.71546 0.0854,-0.36577 0.11583,-0.73842 0.18718,-1.10646 0.0755,-0.29202 0.1976,-0.56562 0.29786,-0.84897 0.0746,-0.13554 0.0996,-0.25877 0.0895,-0.41414 0.0144,-0.33653 0.0598,-0.6708 0.10742,-1.00399 0.13059,-0.85789 0.285,-1.71519 0.28137,-2.58658 0.0336,-1.27878 -0.004,-2.55829 -0.0232,-3.8371 -0.0324,-1.32226 -0.10008,-2.64723 0.003,-3.96815 0.0978,-1.34395 0.22938,-2.68797 0.46361,-4.01569 0.16326,-0.79885 0.3887,-1.58033 0.62042,-2.36174 0,0 1.69473,-0.78826 1.69473,-0.78826 z"
       inkscape:connector-curvature="0"
       style="stroke-width:0.26458332" />
    <path
       id="path3806"
       d="m 121.29217,136.98581 c 0.065,-0.0192 0.13126,-0.0344 0.19494,-0.0576 0.17117,-0.0622 0.64566,-0.33741 0.48497,-0.25168 -0.4415,0.23555 -0.8612,0.51379 -1.31641,0.7216 -0.10672,0.0487 0.17615,-0.15527 0.25861,-0.23871 0.0891,-0.0901 0.17029,-0.18764 0.25543,-0.28146 0.45485,-0.5657 0.84509,-1.17689 1.18229,-1.81857 0.18023,-0.33373 0.30606,-0.68728 0.35965,-1.06219 0.0365,-0.23586 0.0249,-0.44701 -0.0687,-0.66599 -0.14228,-0.27575 -0.42036,-0.44144 -0.68528,-0.58474 -0.24514,-0.12067 -0.51463,-0.14266 -0.78296,-0.15341 -0.50301,-0.0348 -0.99688,0.0129 -1.48976,0.11174 -0.56774,0.1487 -1.12625,0.33009 -1.66375,0.56608 -0.86952,0.48582 0.74419,-0.43613 1.12577,-0.6368 0.082,-0.0431 -0.15031,0.10865 -0.2216,0.16784 -0.22042,0.18301 -0.39816,0.39372 -0.57552,0.6169 -0.29042,0.37098 -0.51583,0.783 -0.65385,1.23293 -0.0955,0.38434 -0.10281,0.78198 -0.10748,1.17573 -0.002,0.52456 0.27079,0.97282 0.54602,1.3992 0.41858,0.60444 0.90322,1.16057 1.36152,1.7351 0.41417,0.50433 0.84081,0.9943 1.32474,1.4329 0.53372,0.49003 1.16602,0.82937 1.82057,1.12631 0.62989,0.28958 1.29399,0.4868 1.97702,0.59792 0.58659,0.0775 1.17916,0.0801 1.76974,0.0837 0.52653,0.0132 1.05378,-0.0221 1.57347,-0.10702 0.32548,-0.0539 0.64961,-0.11983 0.97849,-0.14971 0,0 -1.50297,1.11657 -1.50297,1.11657 v 0 c -0.32085,0.0396 -0.63938,0.0945 -0.95884,0.14369 -0.52589,0.0662 -1.05481,0.0973 -1.58503,0.0808 -0.59597,-0.006 -1.19406,-0.0187 -1.78409,-0.11122 -0.68938,-0.13088 -1.3588,-0.34419 -1.99503,-0.64258 -0.66832,-0.31082 -1.31296,-0.66755 -1.86078,-1.16845 -0.48555,-0.44967 -0.91803,-0.94628 -1.33166,-1.46252 -0.46037,-0.58084 -0.95239,-1.13811 -1.37697,-1.74615 -0.29735,-0.45264 -0.59066,-0.92897 -0.61457,-1.48584 0.004,-0.40797 0.008,-0.81844 0.0884,-1.22022 0.11941,-0.47449 0.33943,-0.9108 0.6348,-1.30152 0.73729,-1.00876 1.5967,-1.4748 2.8197,-2.02379 0.54477,-0.22185 1.10813,-0.40083 1.68226,-0.52939 0.50864,-0.085 1.02089,-0.1249 1.53668,-0.0901 0.28965,0.0242 0.57385,0.0775 0.82927,0.22494 0.29276,0.17566 0.5878,0.37214 0.74827,0.68434 0.1158,0.24965 0.15938,0.48087 0.11614,0.75589 -0.0431,0.39925 -0.15936,0.77819 -0.35206,1.13253 -0.34332,0.65132 -0.72796,1.27552 -1.17502,1.86221 -0.0653,0.0777 -0.39715,0.48596 -0.4932,0.54967 -0.76914,0.51019 -1.62372,1.15518 -2.55977,1.40164 0,0 1.48659,-1.13055 1.48659,-1.13055 z"
       inkscape:connector-curvature="0"
       style="stroke-width:0.26458332" />
    <path
       id="path3808"
       d="m 134.18082,113.93551 c -0.3047,1.20868 -0.37728,2.45403 -0.42558,3.69435 -0.0173,2.04511 0.0964,4.08837 0.21083,6.12945 0.15654,1.99447 0.22931,3.99308 0.2778,5.9926 0.0366,1.78477 0.0565,3.57014 0.0283,5.35512 -0.0333,1.44202 -0.0793,2.88324 -0.0466,4.32553 0.0345,1.01185 0.15158,2.01751 0.25525,3.02381 0.0443,0.42248 0.0795,0.84587 0.10177,1.27007 0.007,0.14735 0.006,0.29484 0.007,0.4423 5.3e-4,0.011 0.001,0.0219 0.002,0.0328 0,0 -1.67826,0.85306 -1.67826,0.85306 v 0 c 8e-4,-0.0113 0.001,-0.0226 0.002,-0.0339 0.002,-0.1466 0.003,-0.29323 0.003,-0.43984 -0.003,-0.42676 -0.0278,-0.85299 -0.0608,-1.27842 -0.0822,-1.01614 -0.20144,-2.02954 -0.23474,-3.04916 -0.0237,-1.45076 0.0362,-2.8992 0.079,-4.34923 0.0304,-1.78499 0.005,-3.57053 -0.0125,-5.35558 -0.0404,-1.99946 -0.12451,-3.99719 -0.26633,-5.99223 -0.10711,-2.04309 -0.24147,-4.08661 -0.23623,-6.13346 0.0317,-1.22863 0.0711,-2.46348 0.3192,-3.67137 0,0 1.67529,-0.81599 1.67529,-0.81599 z"
       inkscape:connector-curvature="0"
       style="stroke-width:0.26458332" />
    <path
       id="path3810"
       d="m 128.42125,117.08163 c 0.21779,-0.63886 0.4408,-1.27405 0.71386,-1.89159 0.33453,-0.65907 0.74126,-1.2808 1.15124,-1.89514 0.53931,-0.75777 1.1248,-1.48019 1.73537,-2.18123 0.691,-0.78579 1.52411,-1.42331 2.37214,-2.02831 0.97162,-0.60781 1.93288,-1.26538 2.99473,-1.70454 0.22228,-0.0919 0.4865,-0.17266 0.715,-0.24675 0.84351,-0.2376 1.72589,-0.27865 2.59663,-0.24202 0.70485,0.0478 1.40604,0.19097 2.05033,0.48934 0.38585,0.17869 0.55538,0.31179 0.9075,0.54704 0.61185,0.50521 1.19856,1.07374 1.61303,1.75764 0.0714,0.11783 0.13021,0.24288 0.19531,0.36432 0.22905,0.53284 0.35355,1.11069 0.32737,1.69304 -0.0185,0.4116 -0.082,0.61261 -0.17134,1.01776 -0.32127,1.17164 -0.95421,2.2143 -1.5992,3.23113 -0.55368,0.86521 -1.14299,1.70579 -1.75551,2.53004 -0.6084,0.91294 -1.32275,1.73807 -2.10491,2.50432 -1.23224,1.19236 -2.7642,1.98471 -4.26008,2.79553 -0.63112,0.30727 -1.29422,0.54315 -1.96768,0.73845 -0.18128,0.0551 -0.36715,0.0925 -0.55556,0.11059 0,0 1.50064,-1.12097 1.50064,-1.12097 v 0 c 0.17648,-0.0307 0.3512,-0.0697 0.52272,-0.12198 0.657,-0.19862 1.30609,-0.42849 1.91585,-0.74709 0.41064,-0.22561 1.55817,-0.86054 -0.6696,0.40296 -0.15997,0.0907 0.31842,-0.18435 0.473,-0.28397 0.37324,-0.24054 0.59458,-0.40861 0.9342,-0.69597 0.1489,-0.12599 0.29133,-0.25943 0.43699,-0.38915 0.78556,-0.75194 1.51081,-1.56017 2.10714,-2.47336 0.6133,-0.82506 1.2122,-1.66023 1.77145,-2.52327 0.64541,-0.99782 1.28558,-2.01876 1.61775,-3.17072 0.0847,-0.36253 0.15792,-0.60289 0.18105,-0.9729 0.0346,-0.55425 -0.0788,-1.10592 -0.29236,-1.61513 -0.43188,-0.82298 -1.01015,-1.48348 -1.74645,-2.05274 -0.35798,-0.23175 -0.49529,-0.34103 -0.88647,-0.51348 -0.63669,-0.28068 -1.32517,-0.40525 -2.01666,-0.43882 -0.8665,-0.0135 -1.74179,0.0404 -2.5732,0.30483 -0.28173,0.0977 -0.42768,0.14155 -0.70045,0.26302 -0.11688,0.052 -0.4535,0.23592 -0.34522,0.16775 2.4314,-1.53069 1.02107,-0.5689 0.47695,-0.27225 -0.85287,0.59225 -1.69342,1.21722 -2.39327,1.99017 -0.60877,0.69151 -1.18695,1.40743 -1.72833,2.15325 -0.41239,0.60469 -0.80377,1.22664 -1.16078,1.86525 -0.27704,0.60315 -0.50968,1.22285 -0.6932,1.86128 0,0 -1.68998,0.79367 -1.68998,0.79367 z"
       inkscape:connector-curvature="0"
       style="stroke-width:0.26458332" />
    <path
       id="path3812"
       d="m 144.06582,126.39015 c -0.0814,0.037 -0.16297,0.0737 -0.24418,0.11108 -0.10016,0.0462 -0.20188,0.0892 -0.29992,0.13966 -0.11273,0.058 -0.44215,0.24846 -0.33197,0.18573 2.13567,-1.21598 1.36855,-0.82714 0.88095,-0.45169 -0.11245,0.0866 -0.2177,0.18215 -0.32655,0.27322 -0.62856,0.57044 -1.19452,1.20628 -1.73954,1.85575 -0.68649,0.83408 -1.18531,1.78524 -1.61846,2.76849 -0.42077,0.97159 -0.6768,1.99368 -0.81561,3.03993 -0.11692,1.07526 0.0469,2.1419 0.34663,3.17309 0.23396,0.66272 0.57634,1.28933 1.16318,1.70235 0.12245,0.0862 0.25766,0.15262 0.38649,0.22892 0.8526,0.43749 1.79494,0.58102 2.74273,0.56696 0.38273,-0.03 0.76818,-0.0852 1.13417,-0.20611 0.5419,-0.17897 1.93301,-1.00628 -0.61386,0.38716 0.90644,-0.70027 1.32223,-1.64743 1.70466,-2.69448 0.38448,-1.2261 0.53396,-2.50717 0.5666,-3.78709 0.007,-0.91953 -0.19729,-1.81531 -0.45473,-2.69187 -0.27096,-0.90462 -0.57814,-1.79986 -0.93569,-2.67403 -0.18796,-0.5145 -0.48302,-0.96738 -0.79634,-1.41088 -0.0928,-0.112 -0.18002,-0.22639 -0.2802,-0.33179 0,0 1.59842,-0.96885 1.59842,-0.96885 v 0 c 0.10023,0.11521 0.19203,0.23604 0.28421,0.35785 0.31283,0.46089 0.60493,0.93207 0.7912,1.46177 0.34551,0.88497 0.65351,1.78517 0.93854,2.69127 0.27091,0.89396 0.47561,1.81014 0.46741,2.7501 -0.0353,1.29806 -0.19176,2.59454 -0.55594,3.84455 -0.35686,1.04689 -0.75975,2.04574 -1.62441,2.7817 -1.49351,0.89746 -2.08425,1.49471 -3.69966,1.56243 -0.97057,-0.0174 -1.93261,-0.18575 -2.79715,-0.65001 -0.13447,-0.0838 -0.27541,-0.15804 -0.40341,-0.25145 -0.6091,-0.44446 -0.97298,-1.09667 -1.21225,-1.79811 -0.30028,-1.05314 -0.47306,-2.14277 -0.37634,-3.24049 0.0509,-0.43156 0.0609,-0.59945 0.1491,-1.02272 0.14752,-0.70821 0.39118,-1.3952 0.65288,-2.06779 0.42414,-0.99172 0.90575,-1.95596 1.57871,-2.80649 0.53622,-0.66143 1.10955,-1.2956 1.72612,-1.88326 1.01458,-0.90911 2.24296,-1.54079 3.4797,-2.09731 0,0 -1.46549,1.15241 -1.46549,1.15241 z"
       inkscape:connector-curvature="0"
       style="stroke-width:0.26458332" />
    <path
       id="path3814"
       d="m 152.90275,126.04225 c -0.31355,0.915 -0.57208,1.8483 -0.82928,2.78043 -0.3205,1.22822 -0.48867,2.48486 -0.58771,3.74791 -0.0412,0.98943 0.003,1.97981 0.0361,2.96882 0.0163,0.45304 0.0331,0.90604 0.0466,1.35916 -0.0695,-0.14988 0.0325,0.21258 0.0109,0.16271 -0.3063,-0.70605 0.73147,-0.11647 -1.57774,0.66106 -0.10886,0.0367 0.0652,-0.22042 0.0915,-0.33223 0.0383,-0.16265 0.0682,-0.32716 0.10232,-0.49075 0.25544,-1.3869 0.46067,-2.78234 0.73223,-4.16626 0.23348,-1.18528 0.53189,-2.35864 0.99487,-3.47593 0.21238,-0.5026 0.46424,-0.9881 0.82276,-1.40316 0.21842,-0.25287 0.33479,-0.34475 0.58253,-0.56986 0.32133,-0.27353 0.66164,-0.52705 1.02847,-0.73689 1.23976,-0.70922 1.63923,-1.05194 2.76177,-1.36426 0.74238,-0.1602 1.5042,-0.2522 2.26144,-0.1703 0.78798,0.16881 1.0385,0.78638 1.31255,1.46736 0.32381,0.93807 0.37485,1.9337 0.38304,2.91716 -0.009,1.24247 -0.22265,2.4645 -0.51965,3.66667 -0.34591,1.27165 -0.75531,2.52446 -1.11653,3.79193 -0.28589,1.0312 -0.50699,2.07762 -0.64024,3.13924 -0.0288,0.23589 -0.0441,0.47292 -0.0559,0.71012 0,0 -1.66338,0.83432 -1.66338,0.83432 v 0 c 0.0187,-0.24486 0.0382,-0.48978 0.0726,-0.73308 0.15515,-1.07517 0.38264,-2.13726 0.67388,-3.18406 0.35601,-1.26426 0.74905,-2.51691 1.10569,-3.78079 0.30293,-1.18682 0.5277,-2.39273 0.53433,-3.62254 -0.01,-0.9586 -0.0592,-1.93086 -0.37127,-2.84605 -0.25747,-0.63172 -0.47143,-1.17703 -1.21737,-1.28996 -0.74076,-0.0569 -1.48554,0.0344 -2.20493,0.21591 -0.13557,0.0434 -0.2733,0.0805 -0.40672,0.13017 -0.62358,0.23199 -1.1191,0.60894 0.79562,-0.54058 0.11956,-0.0718 -0.24279,0.1375 -0.36066,0.21203 -0.31976,0.20219 -0.38117,0.26194 -0.6786,0.4941 -0.65775,0.56445 -1.1165,1.08443 -1.44512,1.90281 -0.49537,1.10308 -0.80693,2.27244 -1.04311,3.45667 -0.27801,1.37583 -0.48872,2.76374 -0.70476,4.15043 -0.0266,0.16247 -0.0525,0.32508 -0.0799,0.48742 -0.0192,0.11387 0.0271,0.26535 -0.06,0.3412 -0.21074,0.18359 -1.29862,1.69673 -1.76373,1.01529 -0.0311,-0.0455 -0.0219,-0.15321 -0.0217,-0.19932 0.003,-0.4584 -0.002,-0.91685 -0.009,-1.37518 -0.0194,-0.99866 -0.0606,-1.99807 -0.0236,-2.99673 0.10269,-1.27244 0.27405,-2.53754 0.57684,-3.7795 0.24355,-0.92523 0.50374,-1.84603 0.771,-2.76469 0,0 1.68386,-0.7908 1.68386,-0.7908 z"
       inkscape:connector-curvature="0"
       style="stroke-width:0.26458332" />
    <path
       id="path3816"
       d="m 171.5938,129.29928 c -0.75467,-0.0798 -1.51151,-0.0987 -2.26813,-0.0458 -1.13897,0.16983 -2.17632,0.69023 -3.2082,1.17309 -0.19639,0.0976 -0.90556,0.44737 -1.10269,0.55538 -0.16837,0.0922 -0.66715,0.37988 -0.49639,0.29213 0.36618,-0.18816 0.70457,-0.43165 1.08307,-0.59361 0.16444,-0.0704 -0.29275,0.20583 -0.43381,0.3158 -0.14189,0.11062 -0.27639,0.2304 -0.41458,0.3456 -0.80632,0.72155 -1.36651,1.64321 -1.82535,2.61113 -0.34995,0.82612 -0.49791,1.72466 -0.40611,2.61989 0.0201,0.19603 0.0636,0.38896 0.0954,0.58344 0.23342,1.01573 0.77682,1.90532 1.54953,2.60262 0.15764,0.14226 0.33037,0.26682 0.49556,0.40024 0.85686,0.58862 1.85822,0.9923 2.91241,0.98356 0.20198,-0.002 0.40247,-0.0349 0.6037,-0.0524 -0.28694,0.30685 1.5673,-0.64222 1.17994,-0.47105 -0.32349,0.14295 -0.61176,0.55423 -0.95388,0.46459 -0.25893,-0.0678 0.39804,-0.3604 0.57065,-0.56499 0.52588,-0.62331 0.64625,-0.94927 1.03521,-1.68022 0.87666,-1.93604 1.31147,-4.02479 1.64393,-6.11217 0.24116,-1.5031 0.35153,-3.02108 0.4052,-4.54097 0.0433,-1.46368 0.0289,-2.92813 0.0541,-4.39206 0.0112,-1.60409 0.16021,-3.20226 0.32201,-4.79681 0.0855,-0.83006 0.17708,-1.65987 0.22616,-2.49308 -0.005,-0.0352 0.007,-0.13279 -0.0154,-0.10557 -0.0283,0.0337 -0.0471,0.14946 -0.007,0.13191 0.50493,-0.21949 0.94666,-0.5762 1.46375,-0.76525 0.12071,-0.0441 -0.15962,0.20236 -0.22568,0.3126 -0.27507,0.45899 -0.40696,0.81538 -0.62618,1.31889 -0.47927,1.21955 -0.92679,2.45527 -1.25441,3.7254 -0.22167,0.85936 -0.23796,1.04563 -0.39357,1.9171 -0.15736,1.1635 -0.2908,2.33862 -0.28236,3.51492 0.005,0.67705 0.0399,0.86398 0.10824,1.54009 0.22955,1.68446 0.67053,3.33052 1.1121,4.96924 0.44722,1.55264 0.75574,3.13957 1.07895,4.72118 0.25739,1.23139 0.57768,2.44745 0.96462,3.64418 0.34221,0.91489 0.81403,1.77804 1.39122,2.56488 0.3821,0.48813 0.84517,0.90769 1.32238,1.30089 0.3537,0.29953 0.75314,0.51372 1.1724,0.70244 0.2437,0.0901 0.48507,0.18294 0.73462,0.25567 0,0 -1.53905,1.0485 -1.53905,1.0485 v 0 c -0.25114,-0.0836 -0.49836,-0.17775 -0.74339,-0.27791 -0.42975,-0.19904 -0.82984,-0.44132 -1.1929,-0.74832 -0.48179,-0.40862 -0.94867,-0.84277 -1.32701,-1.35133 -0.57873,-0.80874 -1.05285,-1.69279 -1.40184,-2.62476 -0.38707,-1.20608 -0.69914,-2.43307 -0.95175,-3.67447 -0.30946,-1.58198 -0.61841,-3.16595 -1.06119,-4.71742 -0.44474,-1.64638 -0.87809,-3.30188 -1.13281,-4.99008 -0.0756,-0.69235 -0.11296,-0.86723 -0.11659,-1.5618 -0.006,-1.18811 0.1437,-2.37356 0.29317,-3.54954 0.15494,-0.89206 0.16563,-1.05414 0.38862,-1.93404 0.32219,-1.27132 0.76893,-2.50563 1.22366,-3.73414 0.21294,-0.54006 0.30947,-0.82429 0.55563,-1.3215 0.0571,-0.11531 0.084,-0.26163 0.18826,-0.33697 0.0509,-0.0368 1.53159,-1.51634 1.91021,-0.9539 0.0281,0.0417 0.0155,0.0994 0.0233,0.14917 -0.0799,0.84557 -0.18693,1.68812 -0.29058,2.53105 -0.17639,1.5906 -0.32465,3.18616 -0.3391,4.78777 -0.0248,1.46056 0.0108,2.92134 -0.0254,4.38178 -0.063,1.53501 -0.19786,3.06639 -0.44343,4.58386 -0.33847,2.10244 -0.77926,4.20221 -1.6285,6.16592 -0.36096,0.72478 -0.49134,1.08409 -0.98259,1.71381 -0.73781,0.94578 -1.47754,1.21108 -2.65596,1.89991 -0.19197,0.11222 -0.39725,0.20326 -0.6076,0.27533 -0.20073,0.0688 -0.41317,0.0968 -0.61976,0.1452 -0.20617,0.01 -0.41218,0.035 -0.61852,0.0295 -1.08104,-0.0285 -2.09735,-0.45812 -2.96952,-1.075 -0.16886,-0.13883 -0.34545,-0.26875 -0.50657,-0.41649 -0.79268,-0.72683 -1.35714,-1.64792 -1.60873,-2.695 -0.0355,-0.20056 -0.0825,-0.39942 -0.10639,-0.60169 -0.10819,-0.91456 0.0142,-1.84083 0.35739,-2.69395 0.45048,-0.98701 1.0057,-1.92986 1.79853,-2.68436 0.24287,-0.21159 0.56654,-0.51045 0.84153,-0.68271 1.17021,-0.73307 2.35363,-1.44674 3.60633,-2.02978 1.0493,-0.48541 2.10868,-1.00499 3.27227,-1.13687 0.77372,-0.0413 1.54651,-0.0116 2.31904,0.0457 0,0 -1.52038,1.08163 -1.52038,1.08163 z"
       inkscape:connector-curvature="0"
       style="stroke-width:0.26458332" />
    <path
       id="path3818"
       d="m 96.153908,138.32824 c -0.555532,0.14677 -1.096391,0.3401 -1.620626,0.57434 -0.588483,0.26064 -1.830797,0.96592 0.707417,-0.45553 0.08835,-0.0495 -0.173445,0.10462 -0.258834,0.15905 -0.159772,0.10186 -0.316296,0.20873 -0.475065,0.31214 -0.08131,0.05 -0.161285,0.10232 -0.24393,0.15012 -0.603364,0.34899 -1.207111,0.69736 -1.813996,1.04019 -0.295461,0.16691 -0.614035,0.29566 -0.914726,0.45336 -0.390062,0.22435 -0.79158,0.42484 -1.201735,0.60982 -0.176006,0.0605 -0.34286,0.14082 -0.504994,0.23142 -0.04515,0.0252 -0.17926,0.1033 -0.134398,0.0776 1.510387,-0.86659 1.946281,-1.16078 1.356231,-0.76767 -0.363035,0.25805 -0.572199,0.66413 -0.741686,1.06438 -0.229163,0.7013 -0.0728,1.32133 0.191921,1.98266 0.413372,0.87671 1.134914,1.53179 1.842119,2.1701 1.074859,0.95422 2.149213,1.90891 3.203792,2.88556 1.020085,0.96318 2.157688,1.78768 3.397639,2.44528 0.328729,0.17434 0.667187,0.32968 1.000779,0.49452 2.801004,1.21247 5.722334,2.12543 8.659114,2.94395 2.60443,0.70493 5.25263,1.23794 7.91582,1.66464 2.41179,0.31989 4.85636,0.26456 7.28416,0.27054 3.36457,0.0279 6.71371,0.36032 10.04186,0.83181 2.55064,0.36981 5.08521,0.83971 7.64331,1.15677 2.29997,0.2328 4.61528,0.33847 6.92702,0.28736 0.50654,-0.0112 1.01259,-0.0386 1.51888,-0.0579 2.86428,-0.18257 5.72937,-0.34304 8.59777,-0.44304 1.42232,-0.0497 2.84677,-0.0461 4.26796,-0.12849 0.90191,-0.0523 1.29698,-0.099 2.21248,-0.18622 2.8265,-0.25738 5.64514,-0.5867 8.45981,-0.9493 2.24716,-0.29587 4.49427,-0.58898 6.72884,-0.96952 1.08648,-0.19119 2.16346,-0.44534 3.20249,-0.8199 0.52691,-0.18994 0.82913,-0.33406 1.34045,-0.55989 -0.38882,0.25401 1.73995,-0.93567 1.30417,-0.70323 -0.28541,0.15224 -0.53885,0.37539 -0.84709,0.47348 -0.25286,0.0805 0.44998,-0.28138 0.67669,-0.41926 0.91502,-0.55647 2.0154,-1.17519 2.87383,-1.66965 0.78732,-0.45523 1.57725,-0.9059 2.36613,-1.35841 0.16901,-0.0969 0.67712,-0.38576 0.5062,-0.29222 -0.35957,0.19677 -0.71483,0.40133 -1.07224,0.60199 0.76552,-0.47339 1.47887,-1.04905 1.98241,-1.80471 0.092,-0.138 0.16781,-0.28608 0.25171,-0.42912 0.2583,-0.53262 0.4441,-1.11188 0.47222,-1.70743 0.0163,-0.34455 -0.0184,-0.50064 -0.0614,-0.84113 -0.19989,-1.03422 -0.6964,-1.97015 -1.27241,-2.83989 -0.78642,-1.08879 -1.82412,-1.93669 -2.94057,-2.66479 -0.83869,-0.49276 -1.6904,-0.99372 -2.60844,-1.3277 -0.18215,-0.0663 -0.36918,-0.11828 -0.55377,-0.17743 -0.95344,-0.2772 -1.94455,-0.35162 -2.9317,-0.38508 -0.48493,-0.009 -0.24967,-0.006 -0.70579,-0.008 0,0 1.49032,-1.08007 1.49032,-1.08007 v 0 c 0.45193,0.009 0.21838,0.003 0.70064,0.0186 0.99134,0.0531 1.98578,0.14345 2.93879,0.44068 0.18732,0.0628 0.37704,0.11879 0.56197,0.18829 0.92228,0.34657 1.78129,0.84984 2.61835,1.36254 1.12599,0.75484 2.17919,1.61887 2.98439,2.72188 0.11393,0.16956 0.23497,0.33456 0.3418,0.50868 0.45166,0.73617 0.80069,1.54956 0.99225,2.39147 0.0471,0.3351 0.0898,0.53905 0.0813,0.87967 -0.0153,0.61655 -0.19955,1.22179 -0.44982,1.7798 -0.0824,0.14964 -0.15661,0.3041 -0.2472,0.44894 -0.48688,0.77843 -1.18632,1.3873 -1.95874,1.87122 -1.61648,0.95128 -3.23697,1.89486 -4.86852,2.82009 0.28309,-0.16517 0.56234,-0.3371 0.84925,-0.49552 0.23272,-0.1285 -0.4594,0.26769 -0.6866,0.40571 -1.37438,0.83497 -2.73692,1.69883 -4.18746,2.39753 -0.55261,0.23727 -0.77758,0.34572 -1.34678,0.54259 -1.03945,0.3595 -2.11435,0.60025 -3.19755,0.7835 -2.21911,0.36314 -4.4502,0.64038 -6.68053,0.925 -2.82603,0.35594 -5.65565,0.68017 -8.48977,0.96525 -0.97176,0.0962 -1.28303,0.13788 -2.23626,0.19203 -1.41236,0.0802 -2.82753,0.0635 -4.24101,0.10657 -2.85841,0.0846 -5.71295,0.24146 -8.56686,0.42142 -2.83378,0.10161 -5.67414,0.0874 -8.49615,-0.22669 -2.54944,-0.31628 -5.07145,-0.80551 -7.61212,-1.18281 -3.31796,-0.48364 -6.6579,-0.82848 -10.01553,-0.82109 -2.45592,0.0142 -4.93234,0.11368 -7.37011,-0.2442 -2.63957,-0.46176 -5.26203,-1.0299 -7.84813,-1.73341 -2.96008,-0.82474 -5.90504,-1.73742 -8.742004,-2.92533 -0.340731,-0.16447 -0.686483,-0.31892 -1.022194,-0.4934 -1.260745,-0.65526 -2.419281,-1.48215 -3.448891,-2.46092 -1.055513,-0.9773 -2.132971,-1.92997 -3.220609,-2.87136 -0.736886,-0.65129 -1.478,-1.32348 -1.909067,-2.2266 -0.286451,-0.69182 -0.465796,-1.35351 -0.266684,-2.09983 0.144521,-0.41779 0.348208,-0.85106 0.67926,-1.15372 0.740754,-0.58749 1.608325,-1.01101 2.474206,-1.38483 0.405175,-0.18877 0.798449,-0.3997 1.19159,-0.61208 0.227142,-0.11365 0.456904,-0.2221 0.683192,-0.33743 0.07592,-0.0387 0.299836,-0.16194 0.226591,-0.11838 -0.365439,0.21732 -1.991375,1.16409 -1.103302,0.64007 1.037421,-0.65155 2.057866,-1.34696 3.190799,-1.82669 0.539226,-0.22559 1.093626,-0.40457 1.649113,-0.58512 0,0 -1.471742,1.15216 -1.471742,1.15216 z"
       inkscape:connector-curvature="0"
       style="stroke-width:0.26458332" />
    <path
       id="path3820"
       d="m 121.62314,147.86179 c -0.0206,0.45472 -0.0253,0.90409 0.0912,1.34607 0.139,0.52258 0.52302,0.8817 0.89814,1.24533 0.77444,0.63374 1.65552,1.12683 2.54088,1.58696 1.10294,0.58514 2.26447,1.03335 3.4513,1.41357 1.38658,0.41548 2.7809,0.80488 4.17032,1.21106 1.48118,0.41892 2.97209,0.80234 4.47331,1.14232 1.78508,0.36867 3.6123,0.45151 5.42991,0.47145 1.8902,-0.0284 3.75995,-0.34142 5.6056,-0.72784 1.57074,-0.31194 3.09172,-0.82132 4.60117,-1.34723 0.82784,-0.31008 1.66605,-0.60988 2.4478,-1.02757 0.16088,-0.086 0.63404,-0.36083 0.47322,-0.27476 -0.37871,0.20268 -0.75138,0.41646 -1.12707,0.62469 0.71519,-0.49096 1.22447,-1.00793 1.61803,-1.78069 0.29229,-0.67145 0.24952,-1.38673 0.15843,-2.0948 -0.10008,-0.60056 -0.40356,-1.1123 -0.73748,-1.60812 -0.23654,-0.32897 -0.55377,-0.58428 -0.86751,-0.83551 0,0 1.58321,-0.99065 1.58321,-0.99065 v 0 c 0.31721,0.27195 0.63738,0.54645 0.87879,0.89139 0.34728,0.52137 0.65745,1.06096 0.76775,1.6881 0.0987,0.7352 0.1583,1.48006 -0.10905,2.1899 -0.3787,0.81558 -0.86966,1.35437 -1.60034,1.88095 -0.81316,0.48339 -1.6057,1.0053 -2.44866,1.43463 -0.78399,0.3993 -1.61681,0.69324 -2.44102,0.99569 -1.50965,0.51887 -3.03126,1.01762 -4.6021,1.31868 -1.85219,0.37131 -3.72635,0.67581 -5.62032,0.69154 -1.83039,-0.03 -3.67123,-0.11388 -5.46814,-0.4897 -1.5056,-0.34351 -3.0026,-0.72414 -4.48858,-1.14487 -1.39191,-0.40538 -2.78744,-0.79826 -4.17667,-1.21252 -1.19729,-0.38545 -2.37077,-0.83592 -3.48245,-1.4297 -0.90093,-0.47361 -1.80356,-0.96831 -2.59518,-1.61329 -0.40505,-0.38273 -0.80844,-0.76836 -0.96451,-1.32209 -0.12935,-0.45525 -0.12862,-0.91412 -0.1245,-1.38488 0,0 1.6645,-0.84811 1.6645,-0.84811 z"
       inkscape:connector-curvature="0"
       style="stroke-width:0.26458332" />
    <path
       id="path3822"
       d="m 91.715226,133.47473 c -0.775253,-0.0111 -1.550812,-0.0248 -2.325745,0.003 -1.005795,0.033 -2.004259,0.17857 -2.999619,0.31897 -1.1895,0.17007 -2.370846,0.38764 -3.540902,0.66056 -0.855642,0.18478 -1.657268,0.53636 -2.447319,0.90252 -0.538843,0.30373 -1.90259,1.02296 0.560511,-0.33144 0.11924,-0.0656 -0.23133,0.14338 -0.34622,0.2163 -0.263837,0.16744 -0.450765,0.29166 -0.712542,0.46355 -0.688887,0.46007 -1.32308,0.9954 -1.941634,1.54471 -0.491294,0.44898 -0.960403,0.91924 -1.380384,1.43564 -0.578702,0.76096 -0.893881,1.65987 -1.158377,2.56683 -0.248375,0.84382 -0.320546,1.7081 -0.292365,2.58238 0.08926,1.188 0.499885,2.30368 0.977347,3.38312 0.106579,0.20705 0.208052,0.41681 0.319736,0.62116 0.2277,0.41661 0.578493,0.98592 0.814885,1.3883 0.497271,0.84646 0.988636,1.69652 1.484624,2.54375 0.931291,1.56738 1.950524,3.08413 3.104743,4.49701 0.253881,0.31077 0.519985,0.61136 0.779978,0.91705 1.696186,1.87864 3.689133,3.47697 5.837272,4.81146 0.532164,0.3306 1.082924,0.63028 1.624388,0.94542 1.632604,0.91413 3.344373,1.67498 5.084236,2.35885 0.873567,0.34336 1.969717,0.75699 2.892018,0.98007 0.455805,0.11025 0.922721,0.16803 1.38408,0.25204 0.494856,0.0375 0.988633,0.0943 1.484573,0.1124 2.09664,0.0765 4.20688,-0.0779 6.30132,-0.14213 3.23668,-0.0992 2.3971,-0.0736 5.69419,-0.0788 4.96371,0.0349 9.893,0.71387 14.76594,1.61448 0.99063,0.18309 1.9769,0.38902 2.96535,0.58354 4.35385,0.89918 8.65388,2.04213 13.00381,2.95835 0.63957,0.13472 1.28284,0.25124 1.92426,0.37685 2.76525,0.48943 5.57996,0.43362 8.37402,0.33598 0.45718,-0.016 5.79206,-0.2499 6.10483,-0.26356 5.58633,-0.26949 11.17796,-0.38937 16.76711,-0.57931 3.07366,-0.15889 6.16519,-0.18881 9.2226,-0.57797 0.51142,-0.0651 1.01945,-0.15451 1.52917,-0.23177 1.26765,-0.25679 2.56412,-0.46374 3.77299,-0.94593 0.33292,-0.1328 0.64477,-0.31346 0.97075,-0.46251 0.19581,-0.0895 -0.71832,0.44909 -0.58019,0.28393 0.24205,-0.28943 0.60531,-0.45058 0.90796,-0.67587 2.24932,-1.80008 4.22186,-3.90887 6.2355,-5.96054 1.6885,-1.6987 3.37131,-3.40241 4.95849,-5.19683 0.80251,-0.93466 1.51658,-1.93975 2.24563,-2.93147 0.45587,-0.60569 0.86423,-1.24301 1.2411,-1.90004 0.49186,-0.85095 0.59678,-1.82252 0.67946,-2.78238 0.0646,-0.9651 -0.0147,-1.9262 -0.18779,-2.87534 -0.13341,-0.61954 -0.25134,-1.24176 -0.39017,-1.86013 -0.27939,-1.04518 -0.58415,-2.08718 -0.95626,-3.10373 -0.29127,-0.79569 -0.4286,-1.07621 -0.76989,-1.85578 -0.77215,-1.67935 -1.76504,-3.25111 -2.92262,-4.69107 -0.23403,-0.29112 -0.48191,-0.57082 -0.72286,-0.85623 -1.24741,-1.36068 -2.56973,-2.68335 -4.07695,-3.75973 -0.26307,-0.18787 -0.54015,-0.35531 -0.81023,-0.53296 -1.26398,-0.79476 -2.70372,-1.09166 -4.15174,-1.33654 -1.45724,-0.19994 -2.92985,-0.26736 -4.39822,-0.33426 -1.17244,-0.0705 -2.34592,-0.0264 -3.51911,-0.0238 0,0 1.45219,-1.05533 1.45219,-1.05533 v 0 c 1.17106,9e-5 2.34261,-0.0336 3.51263,0.039 1.47525,0.0709 2.9554,0.1365 4.41857,0.34658 1.47677,0.25429 2.88358,0.58541 4.15879,1.42138 0.26934,0.18307 0.54547,0.35652 0.80801,0.5492 1.50098,1.10158 2.83312,2.4266 4.08665,3.7963 0.24237,0.2878 0.49178,0.56981 0.72711,0.86339 1.16393,1.45202 2.16316,3.0355 2.95619,4.71929 0.3441,0.77775 0.48723,1.07087 0.78512,1.86373 0.38107,1.01423 0.69833,2.05241 1.02567,3.08468 0.16323,0.61631 0.30172,1.23577 0.40552,1.86514 0.16779,0.96751 0.2395,1.94644 0.18616,2.92857 -0.072,0.97307 -0.15341,1.96487 -0.62032,2.84252 -0.37583,0.6662 -0.77802,1.31589 -1.24289,1.92483 -0.7489,1.00421 -1.48703,2.0186 -2.30047,2.97214 -1.61389,1.80987 -3.32589,3.52562 -5.03987,5.24021 -2.00457,2.03809 -3.95154,4.14751 -6.16906,5.96043 -0.29826,0.22893 -0.57829,0.4838 -0.89477,0.68679 -0.903,0.5792 -2.24021,1.43684 -3.37208,1.86344 -1.20412,0.45383 -2.48839,0.64352 -3.74399,0.88899 -0.5081,0.0729 -1.01465,0.15756 -1.5243,0.21864 -3.03747,0.36404 -6.10583,0.38098 -9.15792,0.51619 -5.55272,0.14476 -11.10807,0.21518 -16.65627,0.50126 -2.05894,0.10309 -4.11716,0.22122 -6.17662,0.31338 -2.82576,0.12645 -5.67574,0.2316 -8.46941,-0.31277 -4.95331,-1.05564 -9.84591,-2.3784 -14.80252,-3.42132 -0.98659,-0.19438 -1.97078,-0.40137 -2.95978,-0.58314 -4.87284,-0.89559 -9.80526,-1.54976 -14.76686,-1.58254 -3.3237,0.0195 -2.46548,-0.0151 -5.74021,0.1193 -0.87261,0.0358 -3.67483,0.17993 -4.64586,0.20282 -0.59317,0.014 -1.18702,0.0266 -1.779992,0.006 -0.503047,-0.0175 -1.003509,-0.0801 -1.505265,-0.12013 -0.463626,-0.0903 -0.933375,-0.15339 -1.390877,-0.27081 -0.922938,-0.23689 -1.985563,-0.66509 -2.859564,-1.02052 -1.735039,-0.7056 -3.447272,-1.47134 -5.085053,-2.38372 -0.547913,-0.31478 -1.10489,-0.61428 -1.643737,-0.94433 -2.176333,-1.33304 -4.20419,-2.92578 -5.930046,-4.80957 -1.456595,-1.70962 -2.80343,-3.47356 -3.924046,-5.42578 -0.498385,-0.84485 -0.99347,-1.69205 -1.502608,-2.53049 -0.274114,-0.4514 -0.581575,-0.92517 -0.839409,-1.38796 -0.115023,-0.20646 -0.218602,-0.41908 -0.327904,-0.62862 -0.491212,-1.09392 -0.919451,-2.22381 -1.04005,-3.42686 -0.04581,-0.89394 0.0258,-1.77502 0.27605,-2.6394 0.258128,-0.91871 0.558147,-1.83289 1.110239,-2.62344 0.410097,-0.53132 0.871834,-1.01146 1.367994,-1.46395 0.61577,-0.56044 1.258255,-1.09511 1.940171,-1.5736 1.174134,-0.77735 2.373731,-1.52178 3.633793,-2.15271 0.789945,-0.36009 1.598583,-0.68342 2.45251,-0.85886 1.174276,-0.26116 2.358443,-0.47296 3.548708,-0.64764 1.001998,-0.14311 2.007513,-0.28514 3.020838,-0.30996 0.789347,-0.0214 1.578959,-0.0115 2.368439,-0.027 0,0 -1.511335,1.09805 -1.511335,1.09805 z"
       inkscape:connector-curvature="0"
       style="stroke-width:0.26458332" />
  </g>
</svg>
