<?xml version='1.0' encoding='utf-8'?>
<svg xmlns:xlink="http://www.w3.org/1999/xlink" xmlns="http://www.w3.org/2000/svg" width="343pt" height="340pt" id="svg2985" version="1.1"> <defs id="defs2987"> <linearGradient id="linearGradient3854"> <stop id="stop3856" offset="0" style="stop-color:#ffbe00;stop-opacity:1;"/> <stop style="stop-color:#ffc895;stop-opacity:1;" offset="0.5" id="stop3860"/> <stop id="stop3858" offset="1" style="stop-color:#ffffff;stop-opacity:1;"/> </linearGradient> <linearGradient id="linearGradient3781"> <stop style="stop-color:#b4c700;stop-opacity:1;" offset="0" id="stop3783"/> <stop style="stop-color:#1ec700;stop-opacity:1;" offset="1" id="stop3785"/> </linearGradient> <linearGradient id="linearGradient3765"> <stop style="stop-color:#bcbb00;stop-opacity:0.49803922;" offset="0" id="stop3779"/> <stop style="stop-color:#b2b700;stop-opacity:1;" offset="1" id="stop3769"/> </linearGradient> <radialGradient xlink:href="#linearGradient3781" id="radialGradient3787" cx="211.875" cy="201.875" fx="211.875" fy="201.875" r="167.375" gradientTransform="matrix(1.1929256,0,0,1.1892072,-45.876126,-35.071197)" gradientUnits="userSpaceOnUse"/> <radialGradient xlink:href="#linearGradient3781-7" id="radialGradient3787-1" cx="211.875" cy="201.875" fx="211.875" fy="201.875" r="167.375" gradientTransform="matrix(1.1929256,0,0,1.1892072,-45.876126,-35.071197)" gradientUnits="userSpaceOnUse"/> <linearGradient id="linearGradient3781-7"> <stop style="stop-color:#b4c700;stop-opacity:1;" offset="0" id="stop3783-4"/> <stop style="stop-color:#1ec700;stop-opacity:1;" offset="1" id="stop3785-0"/> </linearGradient> <radialGradient xlink:href="#linearGradient3854" id="radialGradient3852" cx="236.89177" cy="94.616302" fx="236.89177" fy="94.616302" r="94.635666" gradientTransform="matrix(1,0,0,1.0333496,0,-3.1554127)" gradientUnits="userSpaceOnUse"/> <radialGradient xlink:href="#linearGradient3854" id="radialGradient3863" gradientUnits="userSpaceOnUse" gradientTransform="matrix(1,0,0,1.0333496,71,38.844587)" cx="236.89177" cy="94.616302" fx="236.89177" fy="94.616302" r="94.635666"/> <radialGradient xlink:href="#linearGradient3854-7" id="radialGradient3863-2" gradientUnits="userSpaceOnUse" gradientTransform="matrix(1,0,0,1.0333496,75,36.844587)" cx="236.89177" cy="94.616302" fx="236.89177" fy="94.616302" r="94.635666"/> <linearGradient id="linearGradient3854-7"> <stop id="stop3856-7" offset="0" style="stop-color:#ffbe00;stop-opacity:1;"/> <stop style="stop-color:#ffb095;stop-opacity:1;" offset="0.5" id="stop3860-1"/> <stop id="stop3858-2" offset="1" style="stop-color:#ffffde;stop-opacity:1;"/> </linearGradient> <radialGradient r="94.635666" fy="94.616302" fx="236.89177" cy="94.616302" cx="236.89177" gradientTransform="matrix(1,0,0,1.0333496,76.47055,35.77855)" gradientUnits="userSpaceOnUse" id="radialGradient3881" xlink:href="#linearGradient3854-7"/> <radialGradient xlink:href="#linearGradient3854-7" id="radialGradient3913" cx="257.21243" cy="95.896019" fx="257.21243" fy="95.896019" r="81.850082" gradientTransform="matrix(1,0,0,0.96317364,0,3.5315011)" gradientUnits="userSpaceOnUse"/> <radialGradient xlink:href="#linearGradient3854-7" id="radialGradient3916" gradientUnits="userSpaceOnUse" gradientTransform="matrix(0.99524277,-0.097426,0.09383816,0.9585916,49.878179,73.886603)" cx="257.21243" cy="95.896019" fx="257.21243" fy="95.896019" r="81.850082"/> <radialGradient xlink:href="#linearGradient3854-7-0" id="radialGradient3916-6" gradientUnits="userSpaceOnUse" gradientTransform="matrix(0.99524277,-0.097426,0.09383816,0.9585916,49.878179,73.886603)" cx="257.21243" cy="95.896019" fx="257.21243" fy="95.896019" r="81.850082"/> <linearGradient id="linearGradient3854-7-0"> <stop id="stop3856-7-3" offset="0" style="stop-color:#ffbe00;stop-opacity:1;"/> <stop style="stop-color:#ffb095;stop-opacity:1;" offset="0.5" id="stop3860-1-6"/> <stop id="stop3858-2-2" offset="1" style="stop-color:#ffffde;stop-opacity:1;"/> </linearGradient> <radialGradient r="81.850082" fy="95.896019" fx="257.21243" cy="95.896019" cx="257.21243" gradientTransform="matrix(0.55907512,-0.5222096,0.50297853,0.5384864,126.0489,221.83648)" gradientUnits="userSpaceOnUse" id="radialGradient3934" xlink:href="#linearGradient3854-7-0"/> <radialGradient xlink:href="#linearGradient3854-8" id="radialGradient3863-5" gradientUnits="userSpaceOnUse" gradientTransform="matrix(1,0,0,1.0333496,75,36.844587)" cx="236.89177" cy="94.616302" fx="236.89177" fy="94.616302" r="94.635666"/> <linearGradient id="linearGradient3854-8"> <stop id="stop3856-8" offset="0" style="stop-color:#ffbe00;stop-opacity:1;"/> <stop style="stop-color:#ffc895;stop-opacity:1;" offset="0.5" id="stop3860-12"/> <stop id="stop3858-1" offset="1" style="stop-color:#ffffff;stop-opacity:1;"/> </linearGradient> </defs> <metadata id="metadata2991"> </metadata> <g id="layer2" style="display:inline"> <path style="fill:#004600;fill-opacity:1;stroke:none" d="m 416.06947,213.25 c 0,109.59786 -89.12643,198.44447 -199.06947,198.44447 -27.48575,0 -53.67048,-5.55291 -77.48682,-15.59474 -11.90818,-5.02091 63.26286,-133.975 52.6723,-141.10737 C 181.59491,247.85998 85.24274,362.54928 76.23663,353.57143 40.212138,317.66004 17.930529,268.04893 17.930529,213.25 17.930529,103.65215 107.05696,14.80553 217,14.80553 c 109.94304,0 199.06947,88.84662 199.06947,198.44447 z" id="path2994-9"/> </g> <g id="layer1" style="display:inline"> <path style="fill:url(#radialGradient3787);fill-opacity:1;stroke:#008200;stroke-width:6.25;stroke-miterlimit:4;stroke-opacity:1;stroke-dasharray:none" d="m 405.94447,205 c 0,109.59786 -89.12643,198.44447 -199.06947,198.44447 -27.48575,0 -53.67048,-5.55291 -77.48682,-15.59474 -11.90818,-5.02091 63.26286,-133.975 52.6723,-141.10737 C 171.46991,239.60998 75.117742,354.29928 66.111624,345.32143 30.087137,309.41004 7.8055275,259.79893 7.8055275,205 7.8055275,95.402145 96.931963,6.5555275 206.875,6.5555275 316.81804,6.5555275 405.94447,95.402145 405.94447,205 z" id="path2994"/> </g> <g id="layer4" style="display:inline"> <path style="display:inline;fill:url(#radialGradient3863);fill-opacity:1;stroke:#cc756c;stroke-width:6.25000000000000000;stroke-miterlimit:4;stroke-opacity:1;stroke-dasharray:none" d="m 394.75,202 c -14.11139,17.43172 -65.63061,-14.81854 -65.63061,-14.81854 0,0 -28.47494,53.6981 -49.41415,45.66407 -20.93921,-8.03403 -6.18771,-66.9976 -6.18771,-66.9976 0,0 -59.86918,-10.48764 -58.69893,-32.88467 1.17025,-22.39703 61.8064,-26.58826 61.8064,-26.58826 0,0 -8.52624,-60.179832 13.13622,-65.987921 21.66246,-5.808089 44.38616,50.565155 44.38616,50.565155 0,0 54.59967,-26.70553 66.81756,-7.898101 12.21789,18.807427 -34.37424,57.839237 -34.37424,57.839237 0,0 42.27069,43.67491 28.1593,61.10663 z" id="path3844"/> <path style="fill:url(#radialGradient3916);fill-opacity:1;stroke:#cc756c;stroke-width:6.25;stroke-miterlimit:4;stroke-opacity:1;stroke-dasharray:none" d="m 396.32809,148.83341 c -3.34227,18.39826 -53.93266,15.43592 -53.93266,15.43592 0,0 0.67108,50.6726 -17.85952,53.17928 -18.5306,2.50669 -31.34654,-46.52305 -31.34654,-46.52305 0,0 -47.98514,16.29694 -56.0954,-0.5521 -8.11027,-16.84905 34.55944,-44.18874 34.55944,-44.18874 0,0 -30.32753,-40.600544 -16.80935,-53.520511 13.51817,-12.919968 52.70544,19.21291 52.70544,19.21291 0,0 29.24168,-41.389452 45.70665,-32.525392 16.46497,8.864059 -1.98568,56.062963 -1.98568,56.062963 0,0 48.39989,15.02046 45.05762,33.41872 z" id="path3905"/> <path style="fill:url(#radialGradient3934);fill-opacity:1;stroke:#cc756c;stroke-width:6.25;stroke-miterlimit:4;stroke-opacity:1;stroke-dasharray:none;display:inline" d="m 371.31476,106.16288 c 6.53017,12.72814 -25.57121,34.46667 -25.57121,34.46667 0,0 23.98331,30.46084 13.89607,40.60462 -10.08724,10.14377 -40.68168,-13.6689 -40.68168,-13.6689 0,0 -21.55875,32.22242 -34.32317,25.76349 -12.76445,-6.45893 0.42858,-42.91449 0.42858,-42.91449 0,0 -37.30737,-10.54631 -35.10899,-24.68193 2.19837,-14.13562 40.94654,-12.85372 40.94654,-12.85372 0,0 -1.49848,-38.74038 12.62464,-41.01775 14.12311,-2.277364 24.87779,34.97046 24.87779,34.97046 0,0 36.38124,-13.396574 42.91143,-0.66845 z" id="path3905-4"/> </g> </svg>