<?xml version="1.0" encoding="UTF-8" standalone="no"?>
<!-- Created with Inkscape (http://www.inkscape.org/) -->

<svg
   xmlns:dc="http://purl.org/dc/elements/1.1/"
   xmlns:cc="http://creativecommons.org/ns#"
   xmlns:rdf="http://www.w3.org/1999/02/22-rdf-syntax-ns#"
   xmlns:svg="http://www.w3.org/2000/svg"
   xmlns="http://www.w3.org/2000/svg"
   xmlns:sodipodi="http://sodipodi.sourceforge.net/DTD/sodipodi-0.dtd"
   xmlns:inkscape="http://www.inkscape.org/namespaces/inkscape"
   width="87.319893mm"
   height="24.1196mm"
   viewBox="0 0 87.319893 24.1196"
   version="1.1"
   id="svg8"
   inkscape:version="0.92.4 (f8dce91, 2019-08-02)"
   sodipodi:docname="welcome-to_2.svg">
  <defs
     id="defs2" />
  <sodipodi:namedview
     id="base"
     pagecolor="#ffffff"
     bordercolor="#666666"
     borderopacity="1.0"
     inkscape:pageopacity="0.0"
     inkscape:pageshadow="2"
     inkscape:zoom="2.1028075"
     inkscape:cx="271.59775"
     inkscape:cy="-14.755591"
     inkscape:document-units="mm"
     inkscape:current-layer="layer1"
     showgrid="false"
     inkscape:window-width="1850"
     inkscape:window-height="1016"
     inkscape:window-x="70"
     inkscape:window-y="27"
     inkscape:window-maximized="1" />
  <metadata
     id="metadata5">
    <rdf:RDF>
      <cc:Work
         rdf:about="">
        <dc:format>image/svg+xml</dc:format>
        <dc:type
           rdf:resource="http://purl.org/dc/dcmitype/StillImage" />
        <dc:title></dc:title>
      </cc:Work>
    </rdf:RDF>
  </metadata>
  <g
     inkscape:label="Layer 1"
     inkscape:groupmode="layer"
     id="layer1"
     transform="translate(-33.139763,-120.80965)">
    <path
       style="fill:#000000;stroke-width:0.26458332"
       id="path10"
       d="m 35.147617,131.67066 c -0.188542,0.61258 -0.257487,1.25208 -0.309089,1.88826 -0.03706,0.49817 -0.03853,0.99778 -0.04013,1.497 0.0013,0.33049 0.0042,0.66094 0.0031,0.99143 -7.93e-4,0.5071 -0.01257,1.01399 0.0037,1.52088 0.03981,0.7587 0.124013,1.51478 0.218136,2.26849 0.07616,0.54304 0.201678,1.07589 0.348705,1.60345 0.07454,0.27034 0.147248,0.54157 0.178347,0.82074 -0.0046,0.16379 0.02947,0.27242 0.131559,0.3973 0.115425,0.12889 0.241962,0.24712 0.364808,0.36878 0.158101,0.15944 0.297563,0.33558 0.43779,0.5109 0.09982,0.13547 0.203115,0.25054 0.37365,0.27767 0.170772,0.0208 0.344122,0.0141 0.515927,0.0137 0.07189,-0.0252 0.149436,-0.0278 0.222041,-0.0497 0.442674,-0.13381 2.436693,-1.35664 -1.06357,0.64552 0.36971,-0.20446 0.63109,-0.52476 0.878068,-0.85853 0.426124,-0.61389 0.59015,-1.3461 0.755057,-2.06217 0.13031,-0.56877 0.210137,-1.14666 0.248332,-1.72845 0.01318,-0.23668 0.01471,-0.47386 0.01064,-0.71082 -0.0058,-0.69441 -0.362683,-0.15037 1.66946,-0.8594 0.05812,-0.0203 0.0016,0.12313 0.0045,0.18463 0.01172,0.26078 0.02061,0.31709 0.04612,0.59206 0.06964,0.59873 0.197546,1.18627 0.374259,1.76178 0.09625,0.33491 0.253026,0.60759 0.526597,0.82304 0.318813,0.20283 0.684911,0.31266 1.048351,0.40525 0.330234,0.0778 0.658826,0.11425 0.989012,0.0292 0.657088,-0.4938 -0.38541,0.30244 -1.217927,0.61775 -0.113273,0.0429 0.149066,-0.19184 0.21027,-0.29637 0.24729,-0.42234 0.374274,-0.8934 0.511339,-1.35854 0.25572,-0.96758 0.376206,-1.96265 0.452731,-2.95829 0.06156,-1.01177 0.06565,-2.02596 0.06371,-3.03925 0.0054,-0.66912 -0.05303,-1.33666 -0.102542,-2.00341 -0.02344,-0.30365 -0.03762,-0.60786 -0.04781,-0.9122 -5.29e-4,-0.0293 -0.0011,-0.0585 -0.0016,-0.0878 0,0 1.66982,-0.8527 1.66982,-0.8527 v 0 c 6e-6,0.029 1.1e-5,0.0581 1.6e-5,0.0871 -5.29e-4,0.30519 0.0081,0.6103 0.02339,0.91511 0.03358,0.67508 0.09882,1.34975 0.08436,2.0262 -0.0086,1.01885 -0.01582,2.03805 -0.069,3.0558 -0.0667,1.00668 -0.182184,2.01236 -0.435274,2.99137 -0.131061,0.47564 -0.255127,0.94981 -0.470238,1.3964 -0.05445,0.11304 -0.08173,0.25421 -0.1822,0.32936 -1.283931,0.96047 -1.17578,0.90334 -1.976075,1.21189 -0.349444,0.0417 -0.696032,-0.006 -1.034767,-0.0993 -0.381873,-0.111 -0.770811,-0.23028 -1.094907,-0.46892 -0.290375,-0.24917 -0.473803,-0.55145 -0.575485,-0.92201 -0.169571,-0.58991 -0.292904,-1.18969 -0.376758,-1.79809 -0.102111,-0.80765 0.0083,0.0915 -0.06661,-0.58803 -0.0918,-0.83267 -0.225529,-0.10385 1.649698,-1.13347 0.02855,-0.0157 -0.104757,0.2194 -0.0011,0.0977 -7.93e-4,0.24411 -0.0042,0.48821 -0.02058,0.73188 -0.0438,0.59486 -0.129051,1.18536 -0.262088,1.7672 -0.16577,0.7262 -0.309005,1.47478 -0.706316,2.11767 -0.230878,0.34974 -0.481018,0.69255 -0.836332,0.92575 -0.568444,0.32782 -1.551173,1.13573 -2.411294,1.17478 -0.185179,-0.001 -0.374819,0.004 -0.552127,-0.0579 -0.182269,-0.0799 -0.313798,-0.21407 -0.430551,-0.37387 -0.133199,-0.17075 -0.27082,-0.3393 -0.426993,-0.48959 -0.129399,-0.12536 -0.260032,-0.25033 -0.377102,-0.38746 -0.118198,-0.14933 -0.199544,-0.29733 -0.183629,-0.49363 -0.01961,-0.27166 -0.07799,-0.53757 -0.147193,-0.80067 -0.143407,-0.53936 -0.272179,-1.08209 -0.343083,-1.63669 -0.09006,-0.75793 -0.176916,-1.51698 -0.229163,-2.27851 -0.02932,-0.50534 -0.02331,-1.01134 -0.02798,-1.51743 -0.0024,-0.33143 -0.0024,-0.66286 -2.62e-4,-0.99429 0.0031,-0.50613 0.01728,-1.01238 0.04982,-1.51751 0.05105,-0.64257 0.122457,-1.28459 0.270613,-1.9131 0,0 1.685721,-0.79792 1.685721,-0.79792 z"
       inkscape:connector-curvature="0" />
    <path
       style="fill:#000000;stroke-width:0.26458332"
       id="path12"
       d="m 48.181828,137.69354 c 0.374994,-0.56232 0.66054,-1.17728 0.905053,-1.80556 0.224316,-0.58096 0.367709,-1.18854 0.497784,-1.79625 0.124701,-0.6116 0.151331,-1.23596 0.169521,-1.85798 0.0091,-0.5011 0.0082,-1.0024 -1.37e-4,-1.50351 -0.03187,-0.16848 0.06264,-0.44039 -0.06601,-0.57896 -0.342366,-0.16401 -0.72938,-0.1571 -1.099585,-0.14496 -0.28158,0.002 -0.558919,0.058 -0.815263,0.176 -0.05951,0.0274 -0.230751,0.12413 -0.173926,0.0915 0.469498,-0.26937 0.941363,-0.53459 1.412047,-0.80188 -0.436933,0.31446 -0.691283,0.80334 -0.982734,1.24303 -0.255371,0.37972 -0.49951,0.76861 -0.689573,1.18546 -0.166233,0.34089 -0.256903,0.70125 -0.302805,1.07553 -0.03838,0.43617 -0.03386,0.87464 -0.03666,1.31209 -0.02262,0.63649 0.09206,1.26287 0.271991,1.87043 0.267682,0.73455 0.664668,1.41379 1.088361,2.06777 0.439547,0.61911 0.904058,1.21877 1.394129,1.79852 0.478169,0.54987 1.021303,1.0322 1.600872,1.47157 0.325568,0.24497 0.686036,0.42415 1.054518,0.59232 0,0 -1.526365,1.00947 -1.526365,1.00947 v 0 c -0.374224,-0.18146 -0.742331,-0.37168 -1.074859,-0.62503 -0.588843,-0.4498 -1.148903,-0.93365 -1.626897,-1.50303 -0.492233,-0.58753 -0.961694,-1.19287 -1.401751,-1.82073 -0.432073,-0.66917 -0.837624,-1.36201 -1.117839,-2.11029 -0.18979,-0.61848 -0.326294,-1.25931 -0.313163,-1.90981 -0.0027,-0.44219 -0.0039,-0.88483 0.02215,-1.32643 0.03416,-0.38986 0.105161,-0.77131 0.280379,-1.12559 0.170743,-0.43713 0.427519,-0.8317 0.684929,-1.22235 0.302779,-0.44525 0.554289,-0.93366 0.943655,-1.31211 0.98742,-0.57105 1.698096,-1.226 2.806861,-1.22818 0.414692,0.001 0.874967,0.0106 1.214123,0.27968 0.143365,0.20841 0.118938,0.4459 0.112273,0.69017 -0.0055,0.50571 -0.005,1.01149 -0.01503,1.51715 -0.01421,0.63129 -0.0375,1.26519 -0.154826,1.88733 -0.123336,0.61701 -0.267258,1.23357 -0.487323,1.82399 -0.237292,0.63421 -0.526269,1.24719 -0.865992,1.83335 0,0 -1.707904,0.74727 -1.707904,0.74727 z"
       inkscape:connector-curvature="0" />
    <path
       style="fill:#000000;stroke-width:0.26458332"
       id="path14"
       d="m 56.320565,120.80966 c 0.0063,0.60007 -0.04698,1.19579 -0.135091,1.78868 -0.150958,0.94241 -0.264679,1.8901 -0.397605,2.83509 -0.130395,0.89016 -0.360212,1.76142 -0.609444,2.62451 -0.285266,0.97729 -0.479518,1.97645 -0.619726,2.98383 -0.102907,0.80591 -0.128442,1.61841 -0.138139,2.42989 -0.0034,0.54626 5.29e-4,1.09253 0.0027,1.63879 -0.01884,0.56422 0.03382,1.1244 0.104857,1.68318 0.120388,0.61915 0.282424,1.22944 0.444142,1.83884 0.104752,0.41342 0.245258,0.81464 0.40481,1.20952 0.115427,0.2664 0.250026,0.52357 0.376449,0.78472 0.104143,0.22825 0.188016,0.46399 0.274405,0.69909 0.07539,0.23998 0.21254,0.45407 0.364741,0.65215 0.156546,0.17015 0.331941,0.32721 0.514258,0.46992 0.07854,0.0545 0.167798,0.0735 0.259225,0.093 0,0 -1.545788,1.0566 -1.545788,1.0566 v 0 c -0.107363,-0.0394 -0.211749,-0.0804 -0.300466,-0.15555 -0.186815,-0.15999 -0.376558,-0.32074 -0.533961,-0.51041 -0.157885,-0.21493 -0.311703,-0.44044 -0.39384,-0.69649 -0.08824,-0.2286 -0.15793,-0.4644 -0.262996,-0.6868 -0.126752,-0.26595 -0.264576,-0.52654 -0.3795,-0.79812 -0.157321,-0.40512 -0.297175,-0.81534 -0.400923,-1.23805 -0.155231,-0.61913 -0.320352,-1.23599 -0.451932,-1.86075 -0.07331,-0.56412 -0.144751,-1.12956 -0.122711,-1.69994 -0.0011,-0.54894 -0.0031,-1.09792 0.0053,-1.64682 0.01688,-0.82172 0.04972,-1.6439 0.149403,-2.46041 0.140417,-1.01354 0.327263,-2.02044 0.606046,-3.006 0.246327,-0.85698 0.476441,-1.72137 0.620535,-2.60222 0.139923,-0.94134 0.250177,-1.88656 0.382498,-2.82895 0.08889,-0.57854 0.148651,-1.16308 0.118245,-1.7492 0,0 1.664499,-0.84811 1.664499,-0.84811 z"
       inkscape:connector-curvature="0" />
    <path
       style="fill:#000000;stroke-width:0.26458332"
       id="path18"
       d="m 72.184161,133.47347 c -0.734033,-0.0152 -1.467048,-0.0293 -2.197825,0.0486 -0.334835,0.046 -0.662887,0.12582 -0.980093,0.24229 -0.599953,0.22028 -1.763874,0.95114 0.828286,-0.52773 -0.525984,0.3075 -0.920401,0.76313 -1.28723,1.23936 -0.316267,0.44503 -0.641072,0.88389 -0.956754,1.32933 -0.276511,0.35922 -0.473578,0.76562 -0.633963,1.18716 -0.184259,0.46594 -0.266174,0.95721 -0.285131,1.45542 -0.02376,0.63223 0.12179,1.23487 0.357407,1.81578 0.295905,0.6113 0.790324,1.058 1.348875,1.42411 0.599157,0.40071 1.274255,0.58949 1.977612,0.69784 0.523865,0.0731 1.04851,0.0851 1.56826,-0.0156 0.07538,-0.0263 0.155104,-0.0425 0.22615,-0.079 0.08187,-0.042 0.310499,-0.1968 0.228817,-0.15443 -0.445974,0.23136 -0.863703,0.5185 -1.323025,0.72207 -0.105138,0.0466 0.167872,-0.1577 0.244051,-0.24385 0.162478,-0.18375 0.333362,-0.43443 0.474933,-0.63272 0.479208,-0.69373 0.688207,-1.40385 0.810291,-2.2264 0.11161,-1.06345 0.106535,-2.13409 0.06361,-3.20103 -0.03911,-0.75874 -0.166196,-1.51063 -0.361683,-2.24411 -0.08451,-0.33188 -0.224097,-0.64535 -0.330171,-0.97022 -0.02545,-0.0831 -0.04117,-0.16813 -0.05424,-0.25386 0,0 1.661681,-0.8724 1.661681,-0.8724 v 0 c 0.0068,0.0766 0.01595,0.15277 0.03525,0.2275 0.09277,0.33321 0.232473,0.65126 0.311912,0.98842 0.191651,0.75152 0.307535,1.5213 0.34831,2.29605 0.03873,1.07403 0.04923,2.15017 -0.03678,3.22254 -0.104092,0.85871 -0.2946,1.56758 -0.770075,2.3042 -0.135215,0.19549 -0.504333,0.79384 -0.688372,0.91874 -0.610346,0.41424 -1.486723,1.10008 -2.324319,1.31298 -0.530802,0.0685 -1.062869,0.0444 -1.591149,-0.0424 -0.718124,-0.13206 -1.406686,-0.34878 -2.016305,-0.76502 -0.581218,-0.3945 -1.101992,-0.87076 -1.411272,-1.51434 -0.245811,-0.6011 -0.407857,-1.22391 -0.397457,-1.87921 2.46e-4,-0.51252 0.07177,-1.0232 0.251484,-1.50582 0.146519,-0.43711 0.338569,-0.86436 0.617331,-1.23421 0.313024,-0.4514 0.650047,-0.8854 0.960194,-1.33884 0.36576,-0.48506 0.739842,-0.96816 1.256536,-1.30383 1.273326,-0.73307 1.975927,-1.31582 3.349572,-1.46974 0.743405,-0.0598 1.487971,-0.0398 2.233157,-0.0532 0,0 -1.507871,1.09553 -1.507871,1.09553 z"
       inkscape:connector-curvature="0" />
    <path
       style="fill:#000000;stroke-width:0.26458332"
       id="path20"
       d="m 78.56834,130.90769 c -0.187698,0.81484 -0.306231,1.64375 -0.395076,2.47458 -0.09225,0.90483 -0.10119,1.8135 -0.07446,2.72158 0.03718,0.99374 0.06476,1.98773 0.08568,2.98193 0.01119,0.53346 0.02074,1.06698 0.02855,1.6005 0.01723,0.8553 0.08334,0.60258 -1.626335,1.02158 -0.09188,0.0225 0.04697,-0.18328 0.07046,-0.27492 0.209499,-0.90645 0.424741,-1.81154 0.639035,-2.71687 0.288644,-1.209 0.586576,-2.41496 0.916384,-3.61345 0.232476,-0.82553 0.551188,-1.62086 0.907711,-2.39938 0.130099,-0.2914 0.249307,-0.59268 0.443722,-0.84839 1.994567,-2.00651 2.026084,-0.61825 2.206144,0.78874 0.132432,1.48995 0.115686,2.99133 0.07717,4.48556 -0.02503,0.79521 -0.07162,1.58954 -0.09641,2.38474 -0.0036,0.13667 -0.0083,0.27339 -0.0093,0.41012 -1.8e-4,0.0228 0.01582,0.0855 5.29e-4,0.0685 -0.0369,-0.0414 -0.02209,-0.17192 -0.07291,-0.14964 -0.54565,0.23935 -1.042024,0.57817 -1.563039,0.86725 0.310123,-0.81304 0.661014,-1.60943 1.002183,-2.40966 0.507633,-1.25373 0.994215,-2.51453 1.558433,-3.74426 0.373854,-0.81048 0.840568,-1.56772 1.407216,-2.25593 0.278643,-0.29386 0.517258,-0.62481 0.804574,-0.91034 0.522951,-0.46064 0.586184,-0.53029 1.828977,-0.8093 0.111035,-0.0249 0.05665,0.22183 0.06362,0.33541 0.0099,0.16132 -7.94e-4,0.32354 -0.01328,0.48469 -0.03763,0.48942 -0.117898,0.91416 -0.196411,1.402 -0.317968,1.8708 -0.626716,3.74407 -0.782531,5.63622 -0.09182,1.08774 -0.06522,2.1796 0.214907,3.23731 0,0 -1.612185,0.8732 -1.612185,0.8732 v 0 c -0.271513,-1.08858 -0.294788,-2.20585 -0.186193,-3.32092 0.173075,-1.8917 0.495575,-3.76387 0.769718,-5.64274 0.08652,-0.59773 0.193199,-1.1981 0.1739,-1.80489 -0.0024,-0.0753 -0.08783,-0.17986 -0.02702,-0.22425 0.492916,-0.35984 1.059021,-0.60689 1.586351,-0.9141 0.02778,-0.0162 -0.05826,0.0272 -0.08739,0.0408 -0.321659,0.25984 -0.550479,0.6091 -0.843558,0.89898 -0.587605,0.6742 -1.077614,1.41797 -1.462945,2.22713 -0.5749,1.22392 -1.076663,2.47695 -1.562486,3.73867 -0.323787,0.78537 -0.667361,1.56415 -0.939472,2.36954 -0.211389,0.13795 -1.391073,1.6839 -1.735315,0.923 -0.02821,-0.0624 0.04809,-0.4213 0.02556,-0.49234 0.05441,-0.80395 0.114102,-1.6076 0.157649,-2.41223 0.05957,-1.48254 0.0778,-2.97528 -0.07474,-4.45269 -0.05986,-0.41016 -0.08208,-0.66104 -0.188191,-1.05118 -0.02921,-0.1074 -0.06395,-0.21389 -0.109654,-0.31537 -0.01794,-0.0399 -0.115652,-0.08 -0.07937,-0.10437 0.933466,-0.6271 2.14552,-1.1422 1.50082,-0.86663 -0.272172,0.16022 -0.357875,0.53347 -0.500256,0.79281 -0.37279,0.77431 -0.716692,1.56239 -0.958167,2.3894 -0.338982,1.19225 -0.640506,2.39327 -0.912074,3.60272 -0.207312,0.899 -0.42522,1.79576 -0.607505,2.70031 -0.01799,0.0915 0.02186,0.2202 -0.05398,0.27447 -1.924983,1.37785 -1.724453,1.56321 -1.715534,0.62726 0.0068,-0.53863 0.01101,-1.07728 0.0074,-1.61597 -0.0088,-0.99472 -0.03117,-1.9893 -0.07586,-2.98311 -0.03476,-0.91458 -0.03959,-1.82942 0.05723,-2.74123 0.08655,-0.82775 0.209132,-1.65055 0.349018,-2.47089 0,0 1.678609,-0.81397 1.678609,-0.81397 z"
       inkscape:connector-curvature="0" />
    <path
       style="fill:#000000;stroke-width:0.26458332"
       id="path24"
       d="m 106.51382,122.20299 c -0.11769,1.33479 -0.0476,2.68242 0.009,4.0192 0.083,1.7171 0.21971,3.43116 0.34848,5.14531 0.0916,1.51345 0.27664,3.01857 0.39648,4.52967 0.0674,0.90542 0.10586,1.81275 0.1261,2.72037 0.0333,0.5469 -0.0672,1.08459 -0.1877,1.61487 -0.0759,0.31451 -0.12826,0.6336 -0.16218,0.95514 -0.0115,0.12128 -0.014,0.24309 -0.0133,0.36483 -5.3e-4,0.16883 -0.002,0.33767 -0.002,0.5065 -8e-4,0.22038 -8e-4,0.44075 0.002,0.66112 0.001,0.14403 7.9e-4,0.28807 0.002,0.4321 -2.2e-4,0.13773 -2.7e-4,0.27546 -8e-4,0.41319 5.3e-4,0.0924 5.3e-4,0.0456 2.1e-4,0.14058 0,0 -1.67252,0.85219 -1.67252,0.85219 v 0 c -2.7e-4,-0.0949 -2.7e-4,-0.048 2.1e-4,-0.14079 -5.3e-4,-0.13744 -5.3e-4,-0.27488 -8e-4,-0.41232 0.001,-0.14462 5.3e-4,-0.28926 0.002,-0.43389 0.002,-0.22071 0.002,-0.44143 10e-4,-0.66215 -10e-4,-0.16734 -0.002,-0.33468 -0.006,-0.502 -5.3e-4,-0.1286 -10e-4,-0.2575 0.0112,-0.38567 0.0313,-0.33211 0.0959,-0.66076 0.17018,-0.98563 0.12235,-0.51881 0.24463,-1.04167 0.21605,-1.57951 -0.002,-0.91134 -0.0182,-1.82283 -0.0779,-2.73249 -0.1049,-1.51571 -0.27728,-3.02553 -0.37146,-4.54211 -0.13546,-1.71712 -0.26288,-3.43531 -0.3394,-5.15621 -0.0649,-1.32945 -0.14177,-2.66148 -0.12414,-3.99272 0,0 1.67367,-0.82958 1.67367,-0.82958 z"
       inkscape:connector-curvature="0" />
    <path
       style="fill:#000000;stroke-width:0.26458332"
       id="path28"
       d="m 114.77087,134.21583 c 2.73542,-1.64438 1.08363,-0.63411 0.52501,-0.17886 -0.22798,0.1858 -0.32492,0.28278 -0.53965,0.4829 -0.45645,0.45308 -0.88088,0.93719 -1.27895,1.44204 -0.42846,0.53067 -0.69929,1.14641 -0.9121,1.78814 -0.21351,0.62366 -0.30858,1.27358 -0.36015,1.92783 -0.002,0.32596 -0.0571,0.65849 -0.0159,0.98416 0.0219,0.17348 0.0591,0.2539 0.11558,0.41967 0.25925,0.60429 0.77166,1.02238 1.27238,1.42261 0.37852,0.29785 0.77035,0.59839 1.22287,0.77588 0.27122,0.10639 0.3889,0.12153 0.67278,0.18562 0.82892,0.13547 1.60805,-0.13685 2.34991,-0.48047 1.0838,-0.58001 -0.55642,0.34953 -0.84819,0.49973 -0.12289,0.0633 0.23068,-0.15292 0.33927,-0.23843 0.3273,-0.25778 0.58385,-0.56476 0.8388,-0.89064 0.3943,-0.57784 0.65844,-1.24908 0.67299,-1.95563 0.003,-0.13822 -0.014,-0.27615 -0.021,-0.41423 -0.15451,-1.00173 -0.63409,-1.91459 -1.10637,-2.79892 -0.36826,-0.65481 -0.72786,-1.31537 -1.14116,-1.94325 -0.1638,-0.22142 -0.30269,-0.46728 -0.52312,-0.63784 -0.18813,-0.11949 -0.38578,-0.22544 -0.57884,-0.33964 0,0 1.56831,-1.01457 1.56831,-1.01457 v 0 c 0.19906,0.12146 0.41318,0.21896 0.59711,0.3628 0.22073,0.19775 0.37834,0.44739 0.5368,0.69594 0.39731,0.6434 0.74585,1.31538 1.11311,1.97602 0.48162,0.90707 0.97408,1.83958 1.15655,2.85989 0.0109,0.14567 0.0318,0.29094 0.0327,0.43701 0.004,0.73061 -0.24426,1.43535 -0.62739,2.04921 -0.22445,0.30815 -0.25726,0.37432 -0.52077,0.65146 -0.7991,0.84045 -1.89864,1.31823 -2.92032,1.83503 -0.77672,0.32647 -1.58133,0.56752 -2.42925,0.39021 -0.29988,-0.0778 -0.40967,-0.094 -0.69499,-0.21684 -0.45742,-0.19692 -0.85228,-0.50929 -1.24103,-0.81414 -0.52663,-0.42332 -1.06215,-0.86816 -1.34355,-1.49966 -0.0609,-0.16804 -0.11359,-0.28735 -0.1411,-0.46526 -0.0515,-0.33328 0.012,-0.67681 0.0137,-1.01076 0.0499,-0.6673 0.13737,-1.33229 0.34883,-1.97038 0.20468,-0.65493 0.45545,-1.294 0.8783,-1.84299 0.3932,-0.51777 0.82527,-1.0038 1.27628,-1.47162 0.94029,-0.90565 1.97488,-1.58949 3.16422,-2.17352 0,0 -1.45158,1.1715 -1.45158,1.1715 z"
       inkscape:connector-curvature="0" />
    <path
       style="fill:#000000;stroke-width:0.26458332"
       id="path30"
       d="m 104.78036,132.65948 c 0.49782,-0.2556 1.03459,-0.41814 1.56226,-0.59852 0.53344,-0.20408 1.08722,-0.34557 1.62268,-0.54328 0.36365,-0.13995 0.73618,-0.27101 1.08346,-0.44827 0.19445,-0.10307 0.39613,-0.17411 0.61338,-0.20462 0.0906,-0.007 0.18133,-0.005 0.27208,-0.005 0,0 -1.51778,1.10733 -1.51778,1.10733 v 0 c -0.0844,0.004 -0.16914,0.009 -0.25134,0.0303 -0.20139,0.0516 -0.38704,0.14625 -0.57521,0.23264 -0.35757,0.1515 -0.7152,0.30393 -1.08405,0.42646 -0.53735,0.1844 -1.08563,0.33611 -1.61773,0.53635 -0.53354,0.18197 -1.06926,0.36429 -1.56666,0.63381 0,0 1.45891,-1.16699 1.45891,-1.16699 z"
       inkscape:connector-curvature="0" />
    <path
       style="fill:#000000;stroke-width:0.26458332"
       id="path32"
       d="m 62.701662,132.71978 c -0.462693,0.0309 -0.921919,0.0847 -1.374669,0.18572 -0.389202,0.0687 -0.750533,0.23374 -1.127379,0.34371 -0.290026,0.11068 -0.586899,0.19822 -0.851162,0.36373 2.887197,-1.54813 1.512491,-0.98937 1.032423,-0.51567 -0.127286,0.1256 -0.182917,0.21283 -0.290179,0.35744 -0.367107,0.47029 -0.602491,1.01277 -0.776627,1.57878 -0.116787,0.42438 -0.159308,0.86262 -0.175842,1.30086 -0.0062,0.28594 -0.0021,0.57197 -0.0024,0.85795 -0.0049,0.49744 0.07345,0.99173 0.149077,1.48206 0.07378,0.57386 0.219771,1.13327 0.347086,1.69632 0.05632,0.27974 0.101433,0.56099 0.240291,0.81323 0.19489,0.2565 0.458272,0.43078 0.738601,0.58062 0.278646,0.15259 0.542541,0.3318 0.837094,0.45305 0.204216,0.0719 0.419552,0.0956 0.634666,0.10113 0.171974,1.8e-4 0.343953,-0.001 0.515933,-0.002 0.23605,0.0147 0.46442,-0.0491 0.695483,-0.0898 0.09529,-0.0142 0.190699,-0.0248 0.28674,-0.0318 0,0 -1.505826,1.11718 -1.505826,1.11718 v 0 c -0.09222,0.0119 -0.184544,0.0234 -0.276024,0.0403 -0.237061,0.0397 -0.472794,0.0805 -0.714568,0.0655 -0.175191,0.002 -0.350864,0.007 -0.52569,-0.007 -0.228325,-0.0228 -0.454641,-0.0677 -0.665837,-0.16062 -0.290354,-0.13927 -0.56102,-0.31408 -0.842669,-0.46965 -0.30257,-0.17698 -0.589672,-0.37761 -0.798719,-0.66485 -0.150908,-0.26984 -0.208383,-0.56434 -0.252619,-0.86854 -0.119874,-0.56904 -0.26281,-1.13364 -0.341045,-1.71086 -0.08437,-0.4949 -0.173278,-0.99416 -0.182676,-1.49701 -0.0038,-0.28846 -0.0083,-0.57701 -7.94e-4,-0.86544 0.01736,-0.45443 0.06334,-0.90794 0.172569,-1.35054 0.162862,-0.57819 0.381429,-1.14545 0.744604,-1.63007 0.122602,-0.18574 0.2442,-0.387 0.408747,-0.54028 0.569957,-0.53093 1.638427,-0.47257 2.000877,-1.21183 0.280783,-0.13484 0.577445,-0.23357 0.872109,-0.33351 0.371054,-0.12682 0.744003,-0.25144 1.130832,-0.32188 0.465473,-0.0868 0.935786,-0.14196 1.408937,-0.16438 0,0 -1.511331,1.09805 -1.511331,1.09805 z"
       inkscape:connector-curvature="0" />
    <path
       style="fill:#000000;stroke-width:0.26458332"
       id="path34"
       d="m 89.98859,135.77455 c 0.636087,0.006 1.268288,0.0544 1.904632,0.0474 0.586272,-0.0349 1.163691,-0.16068 1.72702,-0.32237 0.221525,-0.0728 0.432075,-0.17047 0.637273,-0.28022 0.06682,-0.0357 0.264882,-0.14736 0.199258,-0.10946 -1.518291,0.87679 -1.833261,1.09763 -1.214713,0.67723 0.458925,-0.33617 0.768527,-0.79629 1.002183,-1.30656 0.197567,-0.47802 0.266645,-0.98818 0.297151,-1.50023 0.01389,-0.27854 0.0071,-0.55739 0.0034,-0.83605 0.0057,-0.18411 -0.0067,-0.36011 -0.06137,-0.53636 -0.115913,-0.26691 -0.321259,-0.48007 -0.516421,-0.69084 -0.234704,-0.21171 -0.525452,-0.29102 -0.831533,-0.32481 -0.343633,-0.0247 -0.68499,0.0565 -1.020122,0.12291 -0.403249,0.0942 -0.785286,0.2337 -1.152215,0.4251 -0.643123,0.34978 -0.441616,0.24212 1.201547,-0.69541 0.06599,-0.0376 -0.130652,0.0776 -0.195943,0.11641 -0.217895,0.12962 -0.426942,0.26179 -0.632142,0.41087 -0.561655,0.42376 -0.957956,0.99754 -1.312715,1.5951 -0.356211,0.61669 -0.641977,1.2678 -0.884316,1.93637 -0.160745,0.42018 -0.330304,0.83184 -0.419794,1.27402 -0.103095,0.59586 -0.06893,1.19362 0.03288,1.7859 0.177279,0.85346 0.619524,1.57998 1.145476,2.25903 0.502627,0.63973 1.160119,1.12729 1.831147,1.5761 0.69056,0.47329 1.43365,0.63314 2.248845,0.73354 0.754639,0.0791 1.494663,-0.0292 2.231744,-0.17703 0.188717,-0.0375 0.377121,-0.0756 0.566833,-0.10766 0,0 -1.490496,1.12221 -1.490496,1.12221 v 0 c -0.183885,0.0322 -0.367599,0.0654 -0.551127,0.0997 -0.743021,0.13194 -1.491922,0.20524 -2.246254,0.1155 -0.851257,-0.11799 -1.58622,-0.30069 -2.304185,-0.79886 -0.680321,-0.46702 -1.344774,-0.97274 -1.85425,-1.62988 -0.542354,-0.70141 -0.994132,-1.45619 -1.194676,-2.33106 -0.120216,-0.60624 -0.169574,-1.21812 -0.08685,-1.83397 0.07599,-0.45761 0.234302,-0.88235 0.418806,-1.30673 0.240316,-0.68115 0.532268,-1.34244 0.885378,-1.97322 0.342077,-0.60959 0.718751,-1.20385 1.265446,-1.65307 0.678442,-0.55465 2.045055,-1.26009 2.594732,-1.57334 0.06531,-0.0372 0.133758,-0.0686 0.200636,-0.10293 0.380045,-0.17427 0.774581,-0.30592 1.18504,-0.38902 0.348681,-0.0676 0.706887,-0.12794 1.061807,-0.0743 0.337355,0.0631 0.648849,0.18676 0.898697,0.43133 0.213043,0.23072 0.431385,0.46544 0.562655,0.75464 0.0694,0.19154 0.105778,0.38315 0.09067,0.5876 0.0027,0.2852 -7.94e-4,0.57044 -0.01334,0.85542 -0.02943,0.53155 -0.08962,1.06224 -0.281424,1.56364 -0.211921,0.53328 -0.503867,1.01992 -0.951362,1.39091 -0.701789,0.56951 -0.160513,0.14551 -1.955557,1.17012 -0.269616,0.1539 -0.562062,0.26684 -0.859007,0.3547 -0.571725,0.1461 -1.154094,0.26557 -1.746258,0.27708 -0.642858,5.3e-4 -1.28384,-0.056 -1.926836,-0.0326 0,0 1.509602,-1.09679 1.509602,-1.09679 z"
       inkscape:connector-curvature="0" />
  </g>
</svg>
